<svg xmlns="http://www.w3.org/2000/svg" viewBox="0 0 2834.64 2032.08"><defs><style>.cls-1{fill:#e08282;}.cls-2{isolation:isolate;}.cls-3{fill:#1b1b1b;}.cls-4,.cls-5{fill:#fff;}.cls-5{font-size:207.21px;font-family:GameofThrones, Game of Thrones;}.cls-10,.cls-11,.cls-12,.cls-6,.cls-7,.cls-8,.cls-9{font-size:181.99px;}.cls-6{letter-spacing:0.05em;}.cls-7{letter-spacing:0.07em;}.cls-8{letter-spacing:-0.04em;}.cls-9{letter-spacing:0.06em;}.cls-10{letter-spacing:0.07em;}.cls-11{letter-spacing:0.05em;}.cls-13{font-size:125.19px;}.cls-14{letter-spacing:-0.02em;}.cls-15,.cls-16,.cls-17,.cls-18,.cls-19{font-size:180.83px;}.cls-15{letter-spacing:-0.05em;}.cls-16{letter-spacing:0.07em;}.cls-17{letter-spacing:0.07em;}.cls-18{letter-spacing:-0.02em;}</style></defs><title>Artboard 1</title><g id="Zunge"><path class="cls-1" d="M1852,827.67c155.87,63.07,279.65,92.59,367.34,107.92,52.33,9.15,115.16,17.32,151.74,67.61,46.06,63.31,18.9,149.91,15,162.26-15.51,49.44-43.56,92.19-91.84,84.85-33.19-5-50.1-26.44-56.15-41.46"/></g><g id="Shape_1" data-name="Shape 1"><g class="cls-2"><path d="M1964.9,896.16c-.22,4.47,107.52,77.91,117.06,82.46,3.17,1.51,156.86,64.32,164.67,62.58,18.63-4.15,67.29,37.13,63.93,42.21-6,9.09,2-.55-5.3,7.5a426.3,426.3,0,0,1-45.52,42.58c-2.23,1.82-4.41,3.71-6.75,5.39a9.75,9.75,0,0,0-3.89,6.36,177.84,177.84,0,0,1-4.91,19.53c-5.4,16.46-12.83,47.53-53.34,75a251.13,251.13,0,0,1-24.91,14.89c-11.07,5.76-22.25,11.29-33.37,16.94-10,5.06-20.05,10-29.91,15.27-6.19,3.32-12.13,7.13-18.07,10.9a54.33,54.33,0,0,0-11.61,10c-5.85,6.64-9.82,14.15-10.71,23.1-.15,1.51.09,3.17-1.09,4.42a.94.94,0,0,1-.9-.12,8.87,8.87,0,0,1-1.55-2.34,119.84,119.84,0,0,1-7.36-38.46,110.52,110.52,0,0,1,2.84-25.71,218.73,218.73,0,0,1,9.62-32.13c2.92-7.45,2.55-8.17-5-9.41-10.41-1.71-20.77-3.79-31.38-4.1a86.52,86.52,0,0,0-19.07,1.5,166,166,0,0,0-39.05,12.94,49.31,49.31,0,0,1-5.32,1.94c-.1,0-.6-.56-.55-.69a26,26,0,0,1,2.06-4.13A168.84,168.84,0,0,0,1980,1209.7c5.29-11.37,9.29-23.12,10.45-35.73,1.74-18.95-3.59-35.35-16.95-49.08a129.5,129.5,0,0,0-59.45-35.36c-22.29-6.14-44.86-6.75-67.67-3.44a179.63,179.63,0,0,0-52.48,16.28c-31,15-57.78,35.68-81,61.08-20.42,22.33-37.21,47.18-51.35,73.85a466.81,466.81,0,0,0-35,86,390.67,390.67,0,0,0-10.45,41.86,34.13,34.13,0,0,1-1,3.68c-.22.73-1.86,1.27-2.39.81a23.13,23.13,0,0,1-2.14-1.88c-10.94-12.27-20-25.72-26.17-41.07a318.1,318.1,0,0,1-11.72-35.51c-.75-2.77-1.48-5.54-2.19-8.21-.84-.16-1.57-.55-2-.34a13.13,13.13,0,0,0-3.18,2.06c-21.79,19.64-40.39,41.87-54.6,67.62-7.14,12.94-12.37,26.67-16.74,40.74a459.09,459.09,0,0,0-17.47,85.43c-1.56,14-2.61,28-3.92,42-.18,1.9-.51,3.78-.83,5.66,0,.18-.45.36-.71.42s-.73.09-.85-.07c-1.36-1.76-2.79-3.49-4-5.37a290.2,290.2,0,0,1-26.63-53.09c-6.77-18-12.51-36.27-17.55-54.79-1-3.67-2.11-7.31-3.15-10.9-1,.09-1.72,0-2.19.25a18.71,18.71,0,0,0-3,2.34,415.31,415.31,0,0,0-53.76,61.18c-9.27,13.08-17.56,26.72-23.84,41.51a293.19,293.19,0,0,0-13,39.09c-8.81,32.94-12.53,66.61-14.17,100.55-.45,9.25,0,18.54-.05,27.82,0,2.23-.17,4.46-.27,6.69,0,.82-.46,1.19-1.21,1.14-.31,0-.7.1-.9-.05a26.07,26.07,0,0,1-3-2.37,200,200,0,0,1-21.87-25.45,151.61,151.61,0,0,1-21.37-42.73,265,265,0,0,1-8.19-32.53c-.46-2.46-.54-5-2.37-7.46a21.3,21.3,0,0,0-3.3,1.6c-18.66,13.23-35.2,28.67-48.81,47.13A133.67,133.67,0,0,0,1183,1646a514.61,514.61,0,0,0-21.79,59.39c-5.82,19-10.82,38.16-15.18,57.5-3.87,17.16-7.6,34.36-10.25,51.77-.43,2.81-.42,5.77-2,8.27a1.71,1.71,0,0,1-1.64.33,6.84,6.84,0,0,1-2.11-1.84,248,248,0,0,1-27.3-43.94,502.9,502.9,0,0,1-20.67-51.64c-.72-2.1-1.58-4.16-2.41-6.23a2.26,2.26,0,0,0-2.51-.74c-1.39.78-2.83,1.49-4.12,2.41a213.65,213.65,0,0,0-47.55,45.71,181.15,181.15,0,0,0-21,36.49,470.81,470.81,0,0,0-19.66,54c-4.53,15-8.38,30.2-11.95,45.46-2.11,9-3.76,18.16-5.57,27.26-1.25,6.28-2.4,12.57-3.66,18.84-.1.52-.63,1-1,1.43s-1.64-.18-2.33-1.22c-.53-.8-1.08-1.59-1.57-2.41-25.47-42.46-45.79-87.16-58.75-135.07a329.28,329.28,0,0,1-11.08-71.89,484.14,484.14,0,0,1,1.66-68.05c1.52-15.61,3.21-31.19,5.8-46.67.16-.94.23-1.9.33-2.86a2.38,2.38,0,0,0-2.58-2.16c-6.32.94-12.61,2.14-19,2.77a118.93,118.93,0,0,1-40-2.39c-11.19-2.71-22.4-5.33-33.66-7.71-11.91-2.51-23.93-4.46-36.15-4.38a132,132,0,0,0-48.72,9.22,27.94,27.94,0,0,1-4.46,1.14c-.11,0-.55-.55-.49-.75a10.82,10.82,0,0,1,1-2.62c8.75-14.48,14.31-30.22,18.5-46.49a65.61,65.61,0,0,0,1.47-7.56,279.56,279.56,0,0,0,2.43-32.16,246.94,246.94,0,0,1,5.91-51.39,408.65,408.65,0,0,1,11.63-40.55,7.38,7.38,0,0,0,.48-2.74c0-.41-.88-1.16-1.25-1.1a72,72,0,0,0-7.45,1.48,338.59,338.59,0,0,1-53.72,9.81,74.8,74.8,0,0,1-11.49.3,171.73,171.73,0,0,1-25.64-3.62c-7.51-1.56-15-3.26-22.5-4.91-10.12-2.23-20.33-2-30.56-1.09a258.71,258.71,0,0,0-59.9,12.71c-2.1.7-4.26,1.26-6.41,1.83-.21.06-.56-.19-.76-.38s-.54-.6-.47-.76c.94-2,1.86-4.05,2.93-6a497.5,497.5,0,0,0,26.42-56.33,327.52,327.52,0,0,0,21-86.53c1.12-10.82,2-21.66,3-32.49.15-1.59.17-3.19.2-4.79,0-2.4-1.18-3.64-3.44-3.53-4.79.24-9.57.56-14.36.74a277.55,277.55,0,0,1-31.64-.36c-6.06-.46-12.11-1.18-18.17-1.55-11.49-.7-23-1.55-34.5-1.75-11.84-.2-23.62,1.09-35.35,2.75a237.67,237.67,0,0,0-37.47,8,16.44,16.44,0,0,1-2.8.67,2.27,2.27,0,0,1-1.69-.31,2,2,0,0,1-.32-1.71c.57-1.48,1.33-2.9,2-4.32A329.16,329.16,0,0,0,426.56,1218c4.2-12.53,7-25.29,6.67-38.57-.13-6.07-.46-12.14-.71-18.21-.09-2.24-.15-4.47-.31-6.71-1.18-16.94,2.93-33,8-48.95a220.09,220.09,0,0,1,12.65-31.07,15.27,15.27,0,0,0,1.26-3.56c.07-.33-.73-1.19-1.14-1.2a19.14,19.14,0,0,0-3.78.36c-11.36,1.91-22.76,3.48-34.31,3.59-3.83,0-7.68.1-11.49-.21a256.42,256.42,0,0,1-28.52-3.9c-15.16-2.94-30.45-3.52-45.86-2.75a448.66,448.66,0,0,0-55.21,6.43c-1.49.26-3.05,1.06-4.6.15a.81.81,0,0,1-.25-.75,14.73,14.73,0,0,1,1.53-2.33c3.53-4.13,7.32-8.06,10.6-12.37a67.5,67.5,0,0,0,11.81-25c1.53-6.22,2.86-12.46,3.9-18.78,1.55-9.47,3-19,5-28.35,2.26-10.3,4.95-20.52,7.84-30.66S315.93,935,319.1,925a1.91,1.91,0,0,0-2.05-2.41c-8.58.91-17.15,2-25.74,2.7-9.24.79-18.5,1.29-27.75,1.85a20.89,20.89,0,0,1-3.79-.34c-.25,0-.69-.35-.67-.46.13-.58.2-1.36.6-1.65,1.54-1.14,3.21-2.08,4.79-3.16,4.5-3,9.09-6,13.46-9.22a93.15,93.15,0,0,0,19.93-20.62c1.69-2.34,1.18-3.85-1.66-5.13-.87-.39-1.78-.71-2.66-1.11-10.48-4.76-21-9.37-31.41-14.33-22.53-10.75-44.61-22.34-65.54-36-7.49-4.88-14.85-10-21.94-15.48a153.42,153.42,0,0,1-42.11-49.23c-2.73-5.07-5.41-10.17-6.85-15.81a1.52,1.52,0,0,1,1.63-1.87c.95.1,1.91.07,2.85.23,2.45.42,4.91.85,7.35,1.33a264.72,264.72,0,0,0,44.16,5.06A344.61,344.61,0,0,0,217,758.7a230.56,230.56,0,0,0,52.61-10.17c29.71-9.44,57.7-22.7,84.7-38.15a26.12,26.12,0,0,0,2.32-1.67,1.67,1.67,0,0,0,0-2.47c-2.73-1.65-5.44-3.34-8.22-4.92q-19.6-11.16-38.23-23.88A288.13,288.13,0,0,1,283.55,657,118.19,118.19,0,0,1,262,632.65a83.53,83.53,0,0,1-10.71-22.43,2.46,2.46,0,0,1,.5-1.67c.39-.61,1-.61,1.7-.19.27.17.57.28.84.45,10.54,6.42,22.2,9.82,34.15,12.38a324.51,324.51,0,0,0,56,6.82c13.15.49,26.3.84,39.45.88a372.38,372.38,0,0,0,79-8.48,557.74,557.74,0,0,0,70.1-19.8c2.7-1,5.32-2.16,8-3.27a1.68,1.68,0,0,0,.22-2.43c-2-1.61-3.94-3.24-6-4.79-14.46-11.11-29-22.08-43.36-33.33A408.74,408.74,0,0,1,460,529.13,139,139,0,0,1,444,511.23a63.31,63.31,0,0,1-7.32-12.36c-1.38-3.23-2.66-6.53-2.41-10.14a1.63,1.63,0,0,1,1.25-1,6.52,6.52,0,0,1,2.59,1.1c13.07,9.7,28,15.39,43.49,19.55A301,301,0,0,0,547,518c30.13,1.31,60.09-.41,90-3.5a564,564,0,0,0,69.08-11.09,255.7,255.7,0,0,0,33.14-9.6c5.38-2,10.61-4.43,15.9-6.7a4.16,4.16,0,0,0,2.57-3c-1.86-1-3.75-2.17-5.72-3.16-15.17-7.57-30.23-15.33-44.87-23.87a357.45,357.45,0,0,1-32.23-20.8,127.46,127.46,0,0,1-19.39-17.12c-7.15-7.95-12.76-16.8-15.82-27.13a15.89,15.89,0,0,1-.35-3.78c0-.25.29-.57.52-.76s.58-.28.72-.18a25.46,25.46,0,0,1,3,2.3c14.37,13.8,31.6,21.46,51.27,23.82a267.58,267.58,0,0,0,31.59,2c15.68,0,31.33-.61,47-.72,39.27-.28,77.62-6.9,115.58-16.35,18.32-4.56,36.41-9.89,54.22-16.15,1.51-.53,3-1,3.65-2.75-1.42-2.61-4.05-4-6.27-5.76-15.22-12.21-30.34-24.55-44.81-37.66-8.53-7.73-16.81-15.74-25-23.8a86.61,86.61,0,0,1-14.21-18.06,43.3,43.3,0,0,1-5.91-15.1,1.58,1.58,0,0,1,1.83-1.78c.61.1,1.24.14,1.84.3,1.24.33,2.48.66,3.68,1.1,22.52,8.3,45.45,15.31,68.56,21.7q25.88,7.15,52.23,12.53c15.69,3.17,31.45,5.93,47.33,7.79A335.67,335.67,0,0,0,1132,316a318.13,318.13,0,0,0,38-9.92q2.73-.91,5.42-1.92a2,2,0,0,0,1-3.06c-1.48-1.67-3-3.34-4.52-5-14.78-15.53-29.36-31.25-43.27-47.57-7.47-8.77-14.75-17.69-21.33-27.17a115.64,115.64,0,0,1-11-19.11,44.07,44.07,0,0,1-4.12-15.68,3.15,3.15,0,0,1,.4-1.81,2.47,2.47,0,0,1,1.5-.95c1.73-.28,3,.9,4.34,1.68A618.12,618.12,0,0,0,1196,230.36a505.35,505.35,0,0,0,65.38,18.88c14.09,3,28.48,4.42,42.83,5.71q22.89,2.07,45.9,2.15c19.84.05,39.68-.11,59.73-1.71.11-1,.59-2.1.23-2.72-1.44-2.48-3.1-4.84-4.75-7.19-14.74-20.94-29-42.22-42.11-64.19-6.58-11-12.84-22.14-18.37-33.69a118.84,118.84,0,0,1-7.64-19.65,59.35,59.35,0,0,1-2.49-18.94,34.88,34.88,0,0,1,2.42-12.16,3.79,3.79,0,0,1,2.09-1.56c.31-.12,1.14.54,1.41,1,1.23,2.24,2.35,4.54,3.51,6.82a159.47,159.47,0,0,0,45.48,55,323.09,323.09,0,0,0,49.57,31,466.54,466.54,0,0,0,84.76,33c25.64,7.29,51.78,11.54,78.25,14.26a519.66,519.66,0,0,0,53.65,2.89,546.61,546.61,0,0,0,84-6.87,517.54,517.54,0,0,0,54.46-11.17,21,21,0,0,1,13.93,1c20.82,8.2,41.72,16.2,62.6,24.24l211.19,81.38q41.16,15.87,82.29,31.82a50.94,50.94,0,0,0,15.78,3.62c6.38.37,12.73,1.28,19.07,2.13,3.48.47,6.94,1.2,10.12,3.67.55,6.14,4.13,10.79,8.26,15.45,10.4,11.72,20.47,23.75,30.52,35.78a297.51,297.51,0,0,1,29.8,43.5c1.27,2.21,1.56,14.52,12.76,17.19,12.45,3,128.78,75.23,162.58,92,6.3,3.13,12.66,6.13,19,9.24a28.9,28.9,0,0,0,7.34,2.46c4,.78,8.06,1.78,12.1,2.59,9.41,1.9,102.25,24.3,103.49,27l-3.66,34.37a9.44,9.44,0,0,0-2.25,5.21c-.65,4.86-2.82,9.12-5.16,13.33a143.42,143.42,0,0,1-18.5,25.34,267.86,267.86,0,0,1-21.25,20.74,15,15,0,0,0-4.93,8.23,124.14,124.14,0,0,1-8.6,24.38c-5.73,12.67-21.35,19.78-23.6,33.54-25.24,154.19-500.21,18.6-501.34,18.36-6-1.24-117.12-38.61-119-29.73-1.8,8.55,18.46,54.41,20.2,57.13"/><path class="cls-3" d="M1404.23,880.18c0-.94-.41-2.05,0-2.78a62.28,62.28,0,0,1,3.59-5.64,107.45,107.45,0,0,0,15.22-35,49,49,0,0,0,1.27-10.45c.1-6.39-.19-12.79-.31-19.19-.19-10.23-.47-20.45,0-30.7a124.08,124.08,0,0,1,9.69-41.83,234.36,234.36,0,0,1,25.66-46c1.65-2.33,3.19-4.73,4.75-7.13,0-.07-.47-.67-.58-.63A10.51,10.51,0,0,0,1461,682a180.27,180.27,0,0,1-21.27,13,122,122,0,0,1-26.85,10.2,82.87,82.87,0,0,1-25.68,2.37c-13.1-1-26.08-2.82-39-5.07-7.56-1.32-15.13-2.67-22.74-3.61-18.59-2.3-37-1-55.31,2.86-2.19.46-4.35,1.06-6.53,1.58-1.22.29-2.58-.07-2.52-.68a8.22,8.22,0,0,1,.58-2.58c.52-1.16,1.26-2.23,1.88-3.34a92.57,92.57,0,0,0,10.35-29.76,166.41,166.41,0,0,0,2.25-31.54c-.21-12.47,0-24.95.13-37.42a77.43,77.43,0,0,1,6.88-30.7c7-15.69,16.58-29.52,29.56-40.89,1.4-1.23,3.26-2.1,3.64-4.23l.18.2a7.56,7.56,0,0,0-2.75-.33c-2.46.67-4.85,1.62-7.27,2.43a205.76,205.76,0,0,1-59.19,10.92,172.92,172.92,0,0,1-18.2-.79c-16.67-1.27-32.87-5-48.76-10a433.89,433.89,0,0,1-72.42-30.32c-1.68-.89-3.49-1.6-4.49-3.84.81-1.13,1.67-2.45,2.66-3.67,4-5,8.16-9.85,12.13-14.86A265.59,265.59,0,0,0,1140,440.31c2.56-4.42,5.38-8.7,8.11-13,7.68-12.16,18-21.5,30.36-28.74,1.1-.65,2.21-1.29,3.34-1.88,7.08-3.68,6.69-3.11,7.47-10.78.55-5.4,1-10.82,1.36-16.23,0-.41-.72-.93-1.2-1.28-.19-.14-.66,0-.92.1a19.38,19.38,0,0,0-2.43,1.49c-1.79,1.35-3.52,2.76-5.28,4.15l-42.23,33.23a52.15,52.15,0,0,1-4.62,3.42,5.79,5.79,0,0,1-2.74.63,11.15,11.15,0,0,1-2.84-.37c-30.89-7-61.53-14.85-91-26.73A356.83,356.83,0,0,1,970,348c-1.17-.8-1.16-.82-.77-3.16,6.37,0,12.76-.06,19.15-.07,14.07,0,28.14.18,42.2-.1,16.3-.33,32.58-1.06,48.87-1.64,22.69-.82,45.3-2.58,67.91-4.63q43-3.91,85.73-9.62c12.34-1.65,24.66-3.52,37-5.36.37-.06.68-.89.9-1.42.07-.17-.16-.62-.37-.75a37.79,37.79,0,0,0-3.32-1.83c-4.92-2.31-9.88-4.52-14.78-6.87a411.35,411.35,0,0,1-39.7-21.28,142.74,142.74,0,0,1-27.48-22.32c-.88-.91-1.64-1.94-2.46-2.92a1.14,1.14,0,0,1,0-1.74,3.89,3.89,0,0,1,1.63-.57,2.56,2.56,0,0,1,.95.11c29.56,5.56,59.35,9.57,89.17,13.42,24.44,3.16,49,4.89,73.58,6.53,12.75.85,25.56.87,38.35,1.18q14.38.35,28.77.48c6.07.06,12.15.07,18.22-.07,13.42-.31,26.84-.72,40.26-1.12a26.15,26.15,0,0,0,2.82-.38c0-.69.15-1.53-.18-1.85-1.6-1.54-3.29-3-5-4.39a309.13,309.13,0,0,1-25.76-23A155.22,155.22,0,0,1,1416,212.42c-.69-1.43-1.43-2.88-.31-4.45l-.15.25c2.39-.11,4.23,1.27,6.22,2.27a616.4,616.4,0,0,0,70.55,30,530.19,530.19,0,0,0,60.72,17.71c18.13,4,36.34,7.5,54.88,8.95,12.76,1,25.54,1.3,38.34,1.19,44.32-.37,87.93-6.46,131.08-16.19a26.08,26.08,0,0,1,14.1.38c16.46,5.19,33,10.27,49.44,15.39l55,17c1.54.48,3,1,3.36,3-4.27,1.4-8.74,1.56-13.17,2a138,138,0,0,1-49.5-3.35q-9.74-2.54-19.5-5c-.93-.24-2.09-.25-2.4.74A4,4,0,0,0,1815,285a17.37,17.37,0,0,0,2.12,3.18,28.49,28.49,0,0,0,8.76,7.37,97.75,97.75,0,0,0,12.06,5.84,127.5,127.5,0,0,0,25,6.68c17.68,2.91,35.41,5.43,53.23,7.33q34.83,3.7,69.61,7.94a207.08,207.08,0,0,1,36.58,7.65,102.89,102.89,0,0,1,43.7,26.8,18.22,18.22,0,0,1,2.16,3.1c.14.22,0,.63,0,1-1.44,1.46-3.46,1.44-5.24,1.75-19.88,3.5,15.9,33,24.49,33.8,18.88,1.77,37.15,6.5,55.16,12.22,12.43,4,21.61,12.12,28.35,23.15,5.75,9.41,6.1,19.3,2.49,29.51a37,37,0,0,1-1.48,3.54c-4.4,9.26-3.93,8.65-13.74,7.75-34.72-3.19-69.44-6.42-104.18-9.42q-29.64-2.55-59.34-4.38c-22.67-1.39-45.35-2.52-68-3.51-10.22-.45-20.46-.33-30.69-.4q-12-.09-24,0c-6.7,0-13.4.23-20.27.36.49.7.72,1.4,1.15,1.57a50.23,50.23,0,0,0,6.35,2.13A128.67,128.67,0,0,1,1887,470.39c16.76,8.36,31.83,19,44.48,32.9,7.11,7.8,14,15.77,20.94,23.76,6.28,7.26,12.4,14.65,18.61,22,1.24,1.46,2.59,2.84,3.81,4.32,13.3,16.14,30.23,27.4,48.86,36.37,2.3,1.11,4.68,2,7,3.09,3.77,1.69,3.08,3.29.3,5.46a67.22,67.22,0,0,1-23.13,11.32c-5.22,1.49-10.51,2.74-15.81,4-20.24,4.7-40.53,9.16-60.57,14.68q-25,6.88-49.19,16.12c-32.53,12.45-60.56,31.52-84.67,56.58a333.38,333.38,0,0,0-42.33,54.43,61.57,61.57,0,0,0-9,23.09c-.46,2.84-1.34,5.61-1.82,8.44a54.86,54.86,0,0,1-8.79,21.1c-3.34,5.07-6.92,10-10.43,14.94a4.4,4.4,0,0,0-1,3.52,10.07,10.07,0,0,0-2.57,2c-1.1,1.43-2.37,2.71-3.4,4.19a1,1,0,0,1-1.37.6,1.21,1.21,0,0,0,1.37-.6c1-1.48,2.31-2.76,3.41-4.19.75-.79,1.64-1.43,2.42-2.19a7.91,7.91,0,0,0,2.52-1,152.57,152.57,0,0,0,19.55-22.35,30.09,30.09,0,0,0,4.72-9.37c1-3.38,2.12-6.73,2.81-10.16a49.09,49.09,0,0,1,10.92-22.05,303.69,303.69,0,0,1,67.64-60.62A577.58,577.58,0,0,1,1914,656.3c22-9.82,44.94-16.71,68.33-22.18a595.15,595.15,0,0,1,91.85-14.05c6.38-.47,12.76-.89,19.13-1.38a26,26,0,0,0,3-.6,7.78,7.78,0,0,0-.95-2.59,10.38,10.38,0,0,0-5.75-3.23c-3.77-.73-7.53-1.49-11.31-2.17-1.57-.28-3.19-.3-4.76-.58s-3.68.27-3.86-1.75c-.16-1.83,2.12-2.07,3.42-2.72,4.28-2.16,8.63-4.19,13-6.16a610.85,610.85,0,0,1,67.22-25.53,634.67,634.67,0,0,1,119.83-25.67c16.84-1.91-5.26-3,11.69-3.46,21.47-.63,42.85.52,64.22,2.18,13.41,1-13.44,6.89-.27,9.5,14.8,2.94,28.87,8.27,42.4,14.95,34.64,17.08,39.12,11.4,64.13,40.73,6.66,7.81,16.41,46.79,21.65,55.61a161.67,161.67,0,0,1,10.41,20.52c.74,1.77,1.45,3.55,2.3,5.27a3.27,3.27,0,0,0,3,2c8.65,0,13.19,21.55,12,24.87a87.17,87.17,0,0,1-23.23,35.85c-9.9,9.14-55.66,48.62-65.93,52.59a143.89,143.89,0,0,1-34.35,8.63c-10.78,1.33-54.58,13.13-65.47,13.52-13.51.48-253.28-59.07-279.13-61.7-4.77-.49-123.68-54.45-139.69-41.67-52.86,16.39-35,95.53-34.59,95.92a11.41,11.41,0,0,1,1.63,2.34c14.31,25.16,32,47.82,51.41,69.19a571.22,571.22,0,0,0,80.31,72.62c25.33,19,58.53,22.31,85.11,39.52,22,14.25,69.22,27,91.84,40.24,4.19,2.46,18.52,5.31,21.7,9,6.23,7.31,19,6.58,26.15,13,3.57,3.2,7.29,6.23,11,9.29a34.93,34.93,0,0,0,15.28,7.66c3.13.65,6.21,1.55,9.35,2.13a27.73,27.73,0,0,1,12.74,6.3c3.77,3.1-43.52,30.06-44,35.06-1.37,14.7-3.49,29.22-8.45,43.19-1.17,3.31-2.48,6.58-3.92,9.78a65.69,65.69,0,0,1-17.76,23.54,143.91,143.91,0,0,1-20.41,14.29,188.25,188.25,0,0,1-25.87,12.56c-8,3.16-16.17,6-24.27,9q-11.71,4.28-23.46,8.44a9.29,9.29,0,0,1-2.8.09l.16.22c.17-.9.08-2,.56-2.66,1.69-2.33,3.6-4.49,5.38-6.75a171.73,171.73,0,0,0,15.62-23,94,94,0,0,0,6.73-14.82c4.58-13.27,2.44-25.82-3.82-38a2.06,2.06,0,0,0-1.44-1,2,2,0,0,0-1.57.79c-1.18,2.26-2.13,4.63-3.3,6.9-2.06,4-4.06,8-6.39,11.79a59.48,59.48,0,0,1-5.78,7.63c-5.34,6.2-12.28,9-20.36,9.07a58.34,58.34,0,0,1-7.66-.41c-5.39-.68-10.84-1.18-16.13-2.37a221.65,221.65,0,0,0-33.21-4.73,8.77,8.77,0,0,1-2.75-.69,2.36,2.36,0,0,1-1.3-1.27,28.38,28.38,0,0,1-.82-4.66,141.7,141.7,0,0,0-5.74-29.1,113.27,113.27,0,0,0-33.71-52.63,203.45,203.45,0,0,0-94.61-46.06,122.82,122.82,0,0,0-48.6,0c-34.8,7.26-67.37,19.91-97.07,39.63a230.2,230.2,0,0,0-31.4,25.18c-21.14,20.13-39.93,42.32-57.23,65.79a674.66,674.66,0,0,0-45.79,70.84c-1.41,2.51-2.79,5-4.39,7.42-.36.54-1.59.49-2.52.74-1.58-7.51-1.65-14.88-1.88-22.2a292.24,292.24,0,0,1,4.53-61.14,252.85,252.85,0,0,1,10.44-38.87c3.7-10.55,7.61-21,11.5-31.52,4-10.79,8.42-21.43,11.51-32.53.7-2.53,2.24-3.5,4.72-4,6-1.12,11.92-2.33,17.8-3.83a189.49,189.49,0,0,0,39.5-14.59,135.26,135.26,0,0,0,22.63-14.39,73.44,73.44,0,0,0,18.52-21.78,134.76,134.76,0,0,0,12.74-32c1.47-5.55,3.39-11,3.76-16.83.05-.83-.25-1.28-.87-1.24a1.17,1.17,0,0,0-.81.31c-.91,1.31-1.77,2.65-2.63,4-3.63,5.64-7.15,11.37-10.92,16.91a151.58,151.58,0,0,1-14.56,17.81,103.4,103.4,0,0,1-51.21,30.47,260,260,0,0,1-34.9,6.19c-11.43,1.3-22.87,2.55-34.32,3.65a151.06,151.06,0,0,0-55,15.76,13.13,13.13,0,0,1-2.67.88.9.9,0,0,1-.7-.37,1.22,1.22,0,0,1-.27-.88,23.18,23.18,0,0,1,1.17-3.63,301.59,301.59,0,0,0,16.79-45.87,182.88,182.88,0,0,0,7.2-50.16,238.94,238.94,0,0,1,2.43-35.39,78.41,78.41,0,0,1,12.41-31.92c1.93-2.94,4.05-5.75,6.14-8.58,1.52-2.06,3-4.13,4.69-6.08,9.32-11,13.28-23.88,13.82-38,.21-5.42.74-10.88-1.13-16.15a1,1,0,0,0-.63-.48c-.29-.07-.75-.1-.91.07-.88.91-1.72,1.85-2.53,2.83-3.45,4.2-6.68,8.59-10.35,12.58-12.21,13.29-27.26,20.85-45.37,22.23a270.82,270.82,0,0,1-27.79.78c-12.47-.33-24.92-1.1-37.38-1.61-28-1.15-55.53,1.83-82.1,11.37Z"/><path class="cls-3" d="M1017.87,1178.36c.11,1.21.5,2.22.24,3-1.09,3.34-2.38,6.6-3.58,9.9a236.28,236.28,0,0,0-12.27,53.1,139.88,139.88,0,0,0,.64,38.21q2.22,14.2,4.25,28.42c1.28,8.88,1.92,17.8.45,26.72a52.1,52.1,0,0,1-2,8.38A34.83,34.83,0,0,1,995.47,1361a55.58,55.58,0,0,1-16.33,9.85,98.51,98.51,0,0,1-24.1,6.06,213.31,213.31,0,0,1-27.71,1.8c-16.3,0-32.57-.84-48.86-1.35-21.5-.67-42.78.91-63.42,7.6a1.91,1.91,0,0,1-2.56-1.81c.06-.64.08-1.28.18-1.91a368.32,368.32,0,0,0,4.24-44.82,428.26,428.26,0,0,1,4.77-49.6,166.52,166.52,0,0,1,12-42.28c.78-1.75,1.6-3.48,2.44-5.2q15.69-32.09,49.18-44.52c13.56-5.07,27.64-7.8,42-9.24,13.67-1.36,27.39-1.78,41.14-1.83,10.84,0,21.74.27,32.47-1.87,3.75-.75,7.49-1.57,11.24-2.35C1014,1179.13,1015.82,1178.77,1017.87,1178.36Z"/><path class="cls-3" d="M760.38,1579.8c.62-1.88,1.23-4,2-6.08a113.86,113.86,0,0,0,6.61-25c1-7.29,1.9-14.59,2.88-21.88,1.57-11.73,3-23.49,4.81-35.18a144.59,144.59,0,0,1,9.1-32.25,92.53,92.53,0,0,1,7.45-14.49,65.22,65.22,0,0,1,39.12-29A118.37,118.37,0,0,1,860.8,1412c9.28-.23,18.54.23,27.81.57,11.5.41,23,1.2,34.52.84,20.68-.64,40.56-4.94,60-11.9,1.5-.54,3-1.13,4.47-1.74s3.25-1.74,4.51-.79.46,3-.05,4.42a73.67,73.67,0,0,0-3,15,204.4,204.4,0,0,0-1.28,22c-.44,23.52-4.09,46.5-12.22,68.65a130.1,130.1,0,0,1-22.85,39.71c-14.73,17.37-33,29.06-55.11,34.71a162.93,162.93,0,0,1-31.23,4.79,285.42,285.42,0,0,1-45-1c-18.46-1.87-36.94-3.61-55.4-5.44C764,1581.73,762,1581.86,760.38,1579.8Z"/><path class="cls-3" d="M893.29,1152.54c-1.33-.55-1.56-1.1-1.12-1.8,1-1.62,2-3.24,3.1-4.8a68.54,68.54,0,0,0,10.43-23.51,50,50,0,0,0,1.46-14.25c-.38-7.66-.59-15.33-1-23a193.48,193.48,0,0,1,.74-28.73,123.53,123.53,0,0,1,8.5-36.26A82,82,0,0,1,949,980.75a140.05,140.05,0,0,1,37.86-15.93,200.71,200.71,0,0,1,42.59-6.17c14.1-.61,28.12.28,42.13,1.54a125.23,125.23,0,0,0,33.43-1.08c4.4-.79,8.74-1.88,13.12-2.77,1.14-.23,2.7-1.34,3.33.27.37.94-.19,2.47-.75,3.5a224,224,0,0,0-16.31,37.78,175.5,175.5,0,0,0-5.33,20.39c-2.22,11.3-3.84,22.69-5.4,34.09a217.59,217.59,0,0,1-7.3,34.67c-1.13,3.66-2.34,7.31-3.8,10.84a73,73,0,0,1-33.28,37.05,111.39,111.39,0,0,1-32.41,11.45,186.74,186.74,0,0,1-28.53,3.26c-11.5.47-23,.45-34.5.37a513.25,513.25,0,0,0-57.42,2.42C895.17,1152.57,893.91,1152.52,893.29,1152.54Z"/><path class="cls-3" d="M1018.18,1489c1-13.1,2.08-25.85,4.19-38.49a135.23,135.23,0,0,1,9-31.24,89.94,89.94,0,0,1,7.21-13.52c9.8-15.09,23.18-25.34,40.55-30.34a151,151,0,0,1,25.4-4.83c9.53-1,19.09-1.82,28.62-2.84,5.08-.54,10.13-1.34,15.2-2A107.69,107.69,0,0,0,1176,1358c6.78-2.85,13.43-6,20.11-9.08,5.23-2.41,10.39-5,15.63-7.34a113.23,113.23,0,0,1,35.08-9.29,131.4,131.4,0,0,1,13.41-.25,2.61,2.61,0,0,1,2.42,3.32,36.65,36.65,0,0,1-1,3.7,387,387,0,0,0-13.53,47c-2.3,10.29-4,20.72-5.93,31.1a164.6,164.6,0,0,1-9,32.27,83.16,83.16,0,0,1-27.75,36,136.14,136.14,0,0,1-29.2,16.39,222.24,222.24,0,0,1-43.19,12.59,443.93,443.93,0,0,1-48.46,6.33c-11.15.93-22.31,1.62-33.47,2.44a105.25,105.25,0,0,0-28.9,6.52c-2.4.89-4.78,1.8-7.18,2.68-.62.23-1.88-1-1.8-1.79.1-1,.15-1.91.31-2.85C1015.78,1514.75,1017,1501.69,1018.18,1489Z"/><path class="cls-3" d="M1039.25,1354.8c-.67-1.35,0-2.46.53-3.62a48.74,48.74,0,0,0,4.17-28.05c-.3-2.22-.48-4.45-.87-6.65-1.5-8.5-3-17-4.6-25.47-2-10.69-3.82-21.41-4.34-32.28-.84-17.44.69-34.61,8.08-50.67,14.69-31.91,38-54.07,72.65-63.17a170.39,170.39,0,0,1,37.91-5.11,241,241,0,0,1,35.41,1.92c10.49,1.2,21,2.56,31.56,1.69a17.51,17.51,0,0,1,1.92,0c2.47.07,3.61,1.3,3.2,3.48a45.21,45.21,0,0,1-1,4.69c-2.7,8.91-3.95,18.12-5.38,27.28-.79,5-1.3,10.15-1.68,15.25-.94,12.44-1.77,24.88-2.59,37.33-.67,10.23-2.05,20.36-3.65,30.47a123.09,123.09,0,0,1-6.73,25,92.82,92.82,0,0,1-4.82,10.43,60.72,60.72,0,0,1-30.58,27.87,100.06,100.06,0,0,1-24.93,6.71q-11.37,1.68-22.84,2.73c-20.49,1.89-40.31,6.75-59.8,13.16-5.77,1.9-11.44,4.08-17.17,6.08C1042.28,1354.38,1040.88,1355.2,1039.25,1354.8Z"/><path class="cls-3" d="M1205.72,745.42a30,30,0,0,1-1.3,3.34,173.34,173.34,0,0,0-10,22.8,187.54,187.54,0,0,0-9.2,36.16q-3,21.36-6.17,42.7a123.15,123.15,0,0,1-6.58,26,100.17,100.17,0,0,1-4.75,10.44,43.05,43.05,0,0,1-10.87,13.25,117.45,117.45,0,0,1-28.52,17.45c-14.15,6.19-29,9.89-44.15,12.42a406.58,406.58,0,0,1-44.78,4.5q-26.81,1.46-53.39,5.07a14.79,14.79,0,0,1-3.76.07c-.43-.05-.95-.83-1.09-1.36a3.79,3.79,0,0,1,.16-1.88c4.85-17.6,7.82-35.58,10.42-53.6,1.78-12.35,3.77-24.65,6.42-36.82,3.27-15,7.55-29.72,14.1-43.68a115.61,115.61,0,0,1,13.37-22.08,78.77,78.77,0,0,1,32.42-24.7,122.19,122.19,0,0,1,30.48-8.09,249.22,249.22,0,0,1,40.14-2.07c12.79.31,25.54,1,38.29,2a109.55,109.55,0,0,0,35.2-2.82,7.8,7.8,0,0,1,2.71.07C1205.12,744.54,1205.31,745,1205.72,745.42Z"/><path class="cls-3" d="M607.93,1331.59a300.8,300.8,0,0,1,3.5-30.3,117.57,117.57,0,0,1,8.65-28.33,84.52,84.52,0,0,1,34.52-38.72,120.19,120.19,0,0,1,35.52-14,184.68,184.68,0,0,1,37.06-4.23c10.25-.22,20.43.57,30.64,1.22a344.34,344.34,0,0,0,34.49.74c2.87-.11,5.75,0,8.62.12,2.05.06,2.88,1.46,1.9,3.13-1.29,2.2-2.66,4.36-3.92,6.58a73.61,73.61,0,0,0-9.76,33.74c-.11,2.55-.19,5.11-.21,7.67q-.09,12-.11,24a190.44,190.44,0,0,1-5.86,47.45,102.66,102.66,0,0,1-9.82,24.88,73.93,73.93,0,0,1-22.29,24.69A132.79,132.79,0,0,1,721.39,1406c-15.62,5.85-31.57,7.58-48,4.05-7.5-1.61-15.07-2.86-22.62-4.21-8.56-1.53-17.2-1.27-25.81-.8-9.25.5-18.44,1.66-27.6,3.07a37,37,0,0,1-6.62.17,1,1,0,0,1-.84-1.37,31,31,0,0,1,1.61-3.44c1.41-2.5,3-4.93,4.36-7.44a78.09,78.09,0,0,0,9.94-33.72C606.35,1353.44,607,1344.51,607.93,1331.59Z"/><path class="cls-3" d="M1557.67,897.76a18.54,18.54,0,0,1-.49,2.57c-1.69,5.16-3.51,10.27-5.14,15.45a204.1,204.1,0,0,0-6.92,29.85c-1.72,11.05-3.42,22.11-5.38,33.12-2.25,12.59-5,25-9.44,37.1a91.4,91.4,0,0,1-8.26,17.25,46.54,46.54,0,0,1-15.55,15.34,87.63,87.63,0,0,1-25.65,10.4,137,137,0,0,1-25.59,3.47,342.25,342.25,0,0,1-42.13-1c-14-1.15-28-2.07-42.11-2.18a344.28,344.28,0,0,0-42.07,2.19,37.16,37.16,0,0,1-5.7.14c-.41,0-1.2-.9-1.12-1.19a24,24,0,0,1,1.61-4.49,267.21,267.21,0,0,0,17.39-46.61c2.67-9.53,4.92-19.18,7.52-28.74a177.65,177.65,0,0,1,10.56-29.76c1.1-2.31,2.16-4.63,3.36-6.88a80.46,80.46,0,0,1,35.72-34.94,152.55,152.55,0,0,1,38-12.83,270.26,270.26,0,0,1,46.61-5,411.86,411.86,0,0,1,65,3.63c2.83.37,5.64,1,8.42,1.64C1556.8,896.38,1557.13,897.13,1557.67,897.76Z"/><path class="cls-3" d="M1331.81,924.3c.33.62.87,1.17.82,1.67a8.92,8.92,0,0,1-.84,2.7c-5.46,12-8.62,24.7-10.64,37.71-1.92,12.32-3.77,24.66-6.06,36.91-3,16.06-7.28,31.77-14.5,46.54-7.87,16.11-18.86,29.59-33.7,39.8-4,2.72-7.87,5.5-11.92,8.05-3.78,2.38-7.68,4.61-11.62,6.71a60.14,60.14,0,0,1-35.25,6.74c-7.64-.79-15.21-1.89-22.75-3.41a215.63,215.63,0,0,0-22.73-3.49c-14.47-1.33-28.69.78-42.71,4.35-2.77.71-5.54,1.42-8.33,2.09a1.32,1.32,0,0,1-.89-.22,1.24,1.24,0,0,1-.48-1.67c2.57-6.88,5.34-13.69,7.64-20.66a128.36,128.36,0,0,0,5.95-26.14q1.31-11.92,2.55-23.85a225.78,225.78,0,0,1,4.63-29.34A107.78,107.78,0,0,1,1147,972.15,128.41,128.41,0,0,1,1178,941c9.23-6.66,19.66-10.62,30.72-12.92a143.59,143.59,0,0,1,31.45-2.79c12.79.18,25.56.85,38.3,2.09a163.73,163.73,0,0,0,47.71-2.24C1328,924.78,1330,924.58,1331.81,924.3Z"/><path class="cls-3" d="M979.63,799.79c-.89,3.07-2.09,7.38-3.39,11.65-4.65,15.33-7.72,31-10.3,46.79a383.94,383.94,0,0,1-8.18,38.43,142.74,142.74,0,0,1-10.57,27.71,82.63,82.63,0,0,1-29.92,33A130.67,130.67,0,0,1,887.77,971a219.57,219.57,0,0,1-41.18,8.78q-17.59,2.18-35.26,3.66a453.31,453.31,0,0,0-59.68,8.75,13.77,13.77,0,0,1-3.78.25c-.44,0-1.24-.85-1.17-1.16a13.47,13.47,0,0,1,1.23-3.6A219.19,219.19,0,0,0,764,948.74c3-9.77,5.48-19.7,8-29.6,3.88-15.17,7.5-30.4,12.53-45.25a181.71,181.71,0,0,1,12.38-29.06A118.66,118.66,0,0,1,808,828.06c12.62-15.94,29.21-24.43,49.28-26.38a107.88,107.88,0,0,1,19.15-.4c9.24.75,18.49,1.31,27.74,2q6.7.49,13.38,1.13c17.75,1.7,35.06-.66,52.09-5.66,2.76-.81,5.51-1.66,8.27-2.45C979.27,795.91,980.24,797,979.63,799.79Z"/><path class="cls-3" d="M883.49,1009.71c-2.24,7.16-3.32,16.06-4.87,24.86a133.77,133.77,0,0,0-1.91,18.1c-.42,10.86-.84,21.72-1.39,32.57a197.76,197.76,0,0,1-5.58,39.81,101.48,101.48,0,0,1-6.85,18.88,69.21,69.21,0,0,1-32.53,32.65c-11,5.44-22.74,8.44-34.82,10.11a242.75,242.75,0,0,1-39.2,1.92c-12.14-.3-24.26-1-36.39-1.65-15-.82-30-.46-44.89,2.21a39,39,0,0,1-5.71.54c-.33,0-1-.9-1-1.34a14.83,14.83,0,0,1,.76-3.71c5.68-16.3,10.4-32.87,14.54-49.63,4-16.12,8.24-32.18,14.29-47.7a165.73,165.73,0,0,1,11.91-25.06c1.64-2.74,3.33-5.45,5.12-8.1,13.07-19.37,31-31.92,53.56-37.87a152.34,152.34,0,0,1,28.32-4.71c9.87-.68,19.78-.92,29.67-1.18,16.61-.44,33.2-1.07,49.61-4,1.57-.28,3.16-.48,4.74-.7C882.93,1005.45,884.08,1006.47,883.49,1009.71Z"/><path class="cls-3" d="M1188.87,908.09c1.48-3.7,2.26-5.76,3.12-7.78a165.52,165.52,0,0,0,10.68-36.75c3.62-20.8,8.09-41.42,14.44-61.59a182.24,182.24,0,0,1,12.64-31,116.48,116.48,0,0,1,9.72-15.39c11.86-15.77,27.53-25.54,46.8-29.49a117.16,117.16,0,0,1,22.86-2.23,183.76,183.76,0,0,1,38.11,3.79c9.71,2,19.48,3.72,29.43,4.09,5.11.19,10.22.53,15.33-.16a30.12,30.12,0,0,1,4.78,0,2.3,2.3,0,0,1,1.8,1.91c0,1,0,1.91,0,2.86-.77,12.13-1.32,24.25-1.32,36.42,0,15.66-.5,31.34-2.65,46.91a174.72,174.72,0,0,1-7,30.82,88.13,88.13,0,0,1-7.91,17.43,53.94,53.94,0,0,1-27.19,23.24,111.59,111.59,0,0,1-25,6.49,228,228,0,0,1-34.4,2.49c-13.75-.05-27.49-.31-41.24-.28-11.51,0-23,.24-34.45,1.75a117.71,117.71,0,0,0-22.47,4.74C1193.47,906.87,1191.94,907.23,1188.87,908.09Z"/><path class="cls-3" d="M1231.82,1306.18c-1.22-1.78-.78-3.35-.38-4.88,1.14-4.32,2.38-8.62,3.5-13a304.82,304.82,0,0,0,8.15-49.16c1.44-15.93,3.29-31.82,5.79-47.61a195.06,195.06,0,0,1,9.83-38,122.55,122.55,0,0,1,9.06-19,74.28,74.28,0,0,1,29.37-28.21A118.78,118.78,0,0,1,1328.6,1095a193.52,193.52,0,0,1,35.16-4.28,181.06,181.06,0,0,1,21.08.37c1.27.11,2.53.37,3.78.59a2.15,2.15,0,0,1,1.47,2.1c-.94,3-1.78,6.12-2.86,9.12a231.75,231.75,0,0,0-8,29.61c-1.61,7.52-2.52,15.13-1.61,22.87.41,3.49.57,7,.71,10.52a72.23,72.23,0,0,1-3,24.62,297.41,297.41,0,0,1-23.31,54.57,64.38,64.38,0,0,0-2.68,6c-.06.15.34.72.53.72a4.12,4.12,0,0,0,1.85-.28c2.56-1.3,5.07-2.71,7.62-4a367.87,367.87,0,0,1,36.49-17c14.42-5.71,29.45-8.43,44.86-9.28.63,0,1.27.07,1.91.1a2.07,2.07,0,0,1,2.12,2.47,24,24,0,0,1-.78,2.76c-6,14.53-13.18,28.42-22.79,40.93a123.83,123.83,0,0,1-9.45,10.83,60.92,60.92,0,0,1-25.9,15.87,156.24,156.24,0,0,1-31,6.22,376.11,376.11,0,0,1-44.06,1.41c-13.74-.22-27.5-.53-41.24-.24a160.91,160.91,0,0,0-30.44,3.46C1236.66,1305.49,1234.15,1305.8,1231.82,1306.18Z"/><path class="cls-3" d="M974.85,600.06c8.15,4.46,16.19,8.41,24.9,10.71,3.39.9,6.79,1.83,10.25,2.44a134.63,134.63,0,0,0,38.23,1.06c6-.66,12-1.51,18.07-2.27.95-.12,1.9-.2,2.86-.28a2.89,2.89,0,0,1,3.34,2.56c0,.64.07,1.28,0,1.92-1.54,31.16-9.25,60.6-24.82,87.77a156.06,156.06,0,0,1-36.36,43,120,120,0,0,1-51.28,24.89A191.51,191.51,0,0,1,924,776c-18,.52-35.78-1.52-53.47-4.39a249.86,249.86,0,0,1-31.74-7.43,2.78,2.78,0,0,1-1.71-3.83c1-2,2-4,3.15-5.92,12.41-21.64,24.09-43.66,35.28-65.94,4.59-9.13,9.54-18.09,14.5-27,2.17-3.91,4.7-7.61,7.18-11.34a107.22,107.22,0,0,1,33.72-32.23A146.4,146.4,0,0,1,974.85,600.06Z"/><path class="cls-3" d="M665.89,1085.6c-4.39,16.59-8.29,31.43-12.25,46.26-2.56,9.57-5,19.17-7.86,28.67a151.45,151.45,0,0,1-9.92,24.91c-11.07,22.07-28.72,35.46-52.79,40.57a159.62,159.62,0,0,1-26.63,3.1c-13.48.56-26.84-.85-40.23-1.85-6.7-.5-13.39-1.06-20.09-1.54a164.26,164.26,0,0,0-37.29,1.69,13.22,13.22,0,0,1-3.77,0,1.71,1.71,0,0,1-1.08-1.28,32.9,32.9,0,0,1,.6-5.67q5.23-23.91,8.92-48.1c1.43-9.49,3-19,4.77-28.39a161.5,161.5,0,0,1,8.83-31.33,81.36,81.36,0,0,1,9.69-17.59c9.91-13.39,23.08-20.8,39.79-21.91a111.08,111.08,0,0,1,19.16.11c15,1.59,30,2.05,45,2.7,12.46.54,24.93.72,37.4,1.11q16.3.51,32.6,1.14c1.59.06,3.17.36,4.75.57a2.28,2.28,0,0,1,1.52,2.12C666.5,1083,666,1085.2,665.89,1085.6Z"/><path class="cls-3" d="M575.38,1046.17c-8.38-1.1-18.23-2.29-28-3.71a82.61,82.61,0,0,0-25.77.62,1.56,1.56,0,0,1-1.63-1.79c.09-.3,0-.67.16-.94,4.49-8.38,5.84-17.48,6.47-26.83.52-7.65,1.3-15.32,2.47-22.9,2.61-16.83,7-33.15,14.69-48.47a103.26,103.26,0,0,1,22-30c1.17-1.09,2.38-2.14,3.57-3.2,12.74-11.27,27.58-15.56,44.42-13.71,8.64.95,17,3.21,25.3,5.45,6.17,1.66,12.28,3.58,18.42,5.37q4.14,1.21,8.29,2.39c20.07,5.69,40.44,5.57,60.93,3.19l8.57-1a2.46,2.46,0,0,1,2.47,2.34A154,154,0,0,1,730.8,965a80.63,80.63,0,0,1-15.17,27.54,123.8,123.8,0,0,1-21,19.58,7.87,7.87,0,0,0-1.62,2.23c-.11.18,0,.72.11.8a33.9,33.9,0,0,0,5.17,2.42c2.43.74,5,1.11,7.46,1.68.16,0,.3.44.33.69a1.34,1.34,0,0,1-.15.9,6.33,6.33,0,0,1-1.4,1.29c-17.47,10.93-36,19.48-56.14,24.16a134.89,134.89,0,0,1-36.18,3.37C600.33,1049.18,588.51,1048.58,575.38,1046.17Z"/><path class="cls-3" d="M1248.84,651.55c-1.38,13.23-2.29,22.47-5.5,31.27a94.24,94.24,0,0,1-3.52,8.9,47.34,47.34,0,0,1-23.43,23.05,80.77,80.77,0,0,1-22,6.37,167.67,167.67,0,0,1-24.83,1.77c-10.56,0-21.08-.63-31.62-1.17-17.55-.91-35.13-1.72-52.7-.3-5.73.46-11.44,1.09-17.16,1.63-1.84.17-2.81-1.34-2-3.09.41-.87.88-1.7,1.3-2.56,2.24-4.59,4.55-9.15,6.7-13.79a299.79,299.79,0,0,0,16.4-44c1.83-6.45,3.28-13,4.68-19.58,2.13-10,4.26-20,7.24-29.8a178.87,178.87,0,0,1,6.21-17.1,72.35,72.35,0,0,1,17.73-24.77,138.21,138.21,0,0,1,22-16.95c6.53-4,13.26-7.7,19.94-11.48a6.63,6.63,0,0,1,5.57-.41c3.32,1.14,6.65,2.27,9.93,3.53a280.6,280.6,0,0,0,33.9,10.33,115.34,115.34,0,0,0,14.18,2.33c8.57,1,17.18,1.72,25.76,2.6a8.06,8.06,0,0,1,2.73.73,1.68,1.68,0,0,1,.67,1.48,27.23,27.23,0,0,1-1.72,4.43c-7.64,15.24-10.16,31.51-9.85,48.37C1249.7,627.46,1249.92,641.53,1248.84,651.55Z"/><path class="cls-3" d="M1072.87,1677.75c-2.5,1.92-4.73,3.7-7,5.39a408.28,408.28,0,0,0-32.54,26.87c-27.17,24.77-47.39,54.33-61.41,88.24a384.67,384.67,0,0,0-17.79,53.65,1.85,1.85,0,0,1-1.19,1.14,3,3,0,0,1-1.65-.56c-.24-.13-.37-.5-.52-.78-.44-.85-.91-1.69-1.29-2.57-12.6-29.2-21.77-59.37-26-91-3.72-27.81-2.85-55.5,1.48-83.15a216,216,0,0,1,11.71-43.44,75.84,75.84,0,0,1,15.13-24.25,126.05,126.05,0,0,1,25-20.8,172.44,172.44,0,0,1,75.26-26.64,106.32,106.32,0,0,1,16.26-.94,2.38,2.38,0,0,1,2.39,2.4c-.14,1.59-.32,3.17-.52,4.76-.9,7.3-1.85,14.6-2.7,21.9-1.83,15.64-1.4,31.29-.11,46.93q1.5,18.16,4.61,36.13C1072.34,1672.92,1072.5,1674.83,1072.87,1677.75Z"/><path class="cls-3" d="M553.43,885.29a7,7,0,0,1-.11,2.11,4.06,4.06,0,0,1-1.23,1.42c-14.84,12-31.26,21-49.73,26.15A100.13,100.13,0,0,1,471,918.52a309.08,309.08,0,0,1-52.27-6.75c-15-3.27-29.87-7-44.75-10.79a213,213,0,0,0-34.9-6.28c-1.27-.1-2.54-.28-3.81-.45a1.86,1.86,0,0,1-1.6-2.7,18.86,18.86,0,0,1,.91-1.68c11.85-17.12,21.72-35.4,31.7-53.64,5.83-10.65,12-21.11,18.3-31.51a179.06,179.06,0,0,1,15.56-21.86,61.21,61.21,0,0,1,19.17-15.7,48.78,48.78,0,0,1,14.46-4.93,4.38,4.38,0,0,1,3.66.52c.62.48.28,1.61-1.07,3.22-.82,1-1.7,1.92-2.49,2.92-1.58,2-3.17,4-4.67,6.09a39.3,39.3,0,0,0-7.52,25.24,1.89,1.89,0,0,0,1,1.37,2,2,0,0,0,1.72-.2c10.65-9.33,23.5-12.42,37.18-13.42,14.19-1,28.1.87,41.91,3.72,28.22,5.83,55.7,14.34,83,23.46q1.82.61,3.59,1.33c2.41,1,2.91,2.2,1.83,4.35a89.36,89.36,0,0,1-17.37,24c-5.48,5.36-11.21,10.5-17.13,15.37-6.42,5.28-13.19,10.12-19.79,15.18a17,17,0,0,0-2.77,2.57,2.05,2.05,0,0,0,0,1.74,3.51,3.51,0,0,0,1.29,1.34,23.9,23.9,0,0,0,11.65,4C549.66,885.19,551.55,885.22,553.43,885.29Z"/><path class="cls-3" d="M672.09,883.85a94.43,94.43,0,0,1-22.41-5c-15.11-5.12-30.06-10.72-45.07-16.13-.77-.28-1-1.76-.34-2.47,1.29-1.41,2.59-2.81,3.93-4.17a154.68,154.68,0,0,0,35.31-55.31c4-10.77,7.57-21.71,11.42-32.54a226.54,226.54,0,0,1,10-23.84c7.75-15.82,19.63-27.35,35.44-35a138.66,138.66,0,0,1,35.5-11.27A12.51,12.51,0,0,1,745,700a120.72,120.72,0,0,0,25.19,11.57,89.62,89.62,0,0,0,14.93,3.37,158.09,158.09,0,0,0,36.33.81c.95-.08,1.9-.09,2.85-.12a2,2,0,0,1,1.71,1.91,15.38,15.38,0,0,1-.33,2.83,78.15,78.15,0,0,1-19.08,32.8c-10.75,11-22.71,20.6-35.13,29.63-2.33,1.69-4.69,3.33-7,5.09a1.8,1.8,0,0,0-.45,1.59,2.15,2.15,0,0,0,1.24,1.28c4.78,1.3,9.51.5,14.19-.59,3.42-.8,6.76-1.93,10.16-2.81,6.14-1.6,12-.59,17.73,1.94.41.18.57,1,.72,1.61a1,1,0,0,1-.33.86c-1.3.9-2.65,1.75-4,2.61-4,2.61-8.14,5.07-12,7.85a86.52,86.52,0,0,0-21.85,22.63,223.48,223.48,0,0,0-18.44,34.62c-4.3,9.81-1.81,7.88-12.13,12-14.27,5.73-29,10.06-44.28,11.95C687.4,884.38,679.75,884.88,672.09,883.85Z"/><path class="cls-3" d="M708.09,661.35a8.15,8.15,0,0,1,.75-2.67c1.52-2.05,3.26-3.94,4.86-5.93,12.93-16.11,23-33.75,29-53.65,2.29-7.64,4.95-15.19,7.69-22.69a104.55,104.55,0,0,1,20.37-33.36,182.22,182.22,0,0,1,25.47-23.25c8.62-6.66,18.48-10.06,29.16-11.16a82.84,82.84,0,0,1,19.15-.14c8.56,1.1,17.18,1.87,25.67,3.39q14.66,2.62,29.43,4.17c1.9.2,3.79.52,5.68.84a2.8,2.8,0,0,1,2,2.86,42.4,42.4,0,0,1-2.45,13.13,56.43,56.43,0,0,1-7.27,13.45,201.59,201.59,0,0,1-20.6,24c-1.56,1.59-3.08,3.23-4.58,4.88-.17.19-.13.58-.17.89a1.06,1.06,0,0,0,1,1.3c3.5.14,7,.42,10.52.25a126.64,126.64,0,0,1,24.85,1.61,66.71,66.71,0,0,1,20.94,6.56,1.75,1.75,0,0,1,.24,1.61,34.14,34.14,0,0,1-4.55,3.41c-9.33,5.59-18.45,11.51-27.24,17.92a230.36,230.36,0,0,0-22.17,18.31,85.75,85.75,0,0,0-20.48,28.66c-1.39,3.23-2.81,6.45-4.32,9.62-1.37,2.88-2.81,5.74-4.35,8.54-5.86,10.7-15.22,15.88-27.05,17.47-9.84,1.33-19.07-1-28.25-3.93-4.26-1.35-8.47-2.92-12.59-4.65-10.93-4.6-22.29-7.87-33.68-11s-22.82-6.22-34.22-9.34C710,662.17,709.14,661.76,708.09,661.35Z"/><path class="cls-3" d="M921,564.34c-.08-.79-.41-1.56-.16-2,1-1.63,2.14-3.16,3.27-4.7A87.81,87.81,0,0,0,940,523.09c1.37-6.56,3.19-13,4.93-19.52a92.72,92.72,0,0,1,9.94-22.78,238.15,238.15,0,0,1,23.19-32.89c14-16.69,31.5-28.88,51.38-37.71a24.31,24.31,0,0,1,3-.87c4.6,1.84,9.35,3.7,14.06,5.64a234.13,234.13,0,0,0,28.18,9.39,112.93,112.93,0,0,0,21.79,3.28c4.79.33,9.58.53,14.37.81a2,2,0,0,1,1.47,2.83c-.73,1.42-1.46,2.84-2.29,4.2-9,14.79-19,28.88-30.73,41.59-8.91,9.62-18.1,19-27.17,28.44-.88.92-1.85,1.78-2.64,2.77a2.26,2.26,0,0,0-.47,1.67,2,2,0,0,0,1.16,1.22,13.45,13.45,0,0,0,2.8.56c15.85,2.16,31.68,4.36,47.54,6.43a120.17,120.17,0,0,1,34.94,10.57c-.33,1-.37,2.07-.95,2.58a30.22,30.22,0,0,1-4,2.63,85.39,85.39,0,0,0-21.4,19c-2.79,3.5-5.58,7-8.58,10.33a124.08,124.08,0,0,1-8.78,8.83,39.77,39.77,0,0,1-22.33,10.21q-10,1.21-20,1.79a141.7,141.7,0,0,1-15.34.11c-20.14-1-40.19-3-60-7-8.77-1.79-17.54-3.58-26.27-5.58C938.71,569.56,929.75,567.21,921,564.34Z"/><path class="cls-3" d="M507.5,945.74c-.79,3.05-1.6,6.47-2.56,9.84a266,266,0,0,0-6.44,28,156.2,156.2,0,0,1-6.29,25.06,66.89,66.89,0,0,1-6.57,13.8A34.33,34.33,0,0,1,467.25,1037a126.79,126.79,0,0,1-23.24,5.64,256.72,256.72,0,0,1-37.24,2.49c-19.18,0-38.31-1-57.45-2.15-9.87-.58-19.78-1-29.65.38-2.28.31-3.39-1.25-2.61-3.59,1.91-5.75,3.9-11.48,5.82-17.24a293.14,293.14,0,0,0,10.33-40.83c1.53-8.47,3.09-17,6-25.15a56.76,56.76,0,0,1,5.25-11.26,35.27,35.27,0,0,1,13.87-12.89A29.2,29.2,0,0,1,373,928.93,62.48,62.48,0,0,1,390,932c4.86,1.56,9.68,3.26,14.49,5a122,122,0,0,0,28,6.37,322.15,322.15,0,0,0,44,1.65c9.25-.24,18.5-.77,27.75-1.15A3.06,3.06,0,0,1,507.5,945.74Z"/><path class="cls-3" d="M1411.32,1157.15c.68-10.06,3-21,5.07-32,2.24-12,8.3-22,16.88-30.56a6.35,6.35,0,0,1,4.22-2c2.23-.12,4.47-.32,6.7-.3a137.57,137.57,0,0,0,62.16-13.54,14.28,14.28,0,0,1,3.61-1.16c.42-.08,1.16.47,1.42.92a3.84,3.84,0,0,1,.29,1.85c0,6.39-.11,12.77,0,19.16a57.18,57.18,0,0,0,2.17,15.13c1.24,4.35,3.09,8.41,6.68,11.38a1.6,1.6,0,0,0,1.53-.26,3,3,0,0,0,.58-1.77c.34-5.44,3.14-9.62,6.77-13.38a48.37,48.37,0,0,1,9.8-7.64,106.83,106.83,0,0,1,26.19-11.66,186.77,186.77,0,0,1,33.91-6,42.25,42.25,0,0,1,4.78,0,2,2,0,0,1,1.54,2.05,26.06,26.06,0,0,1-.63,3.76c-5.52,17.79-13,34.69-23.39,50.19a126.64,126.64,0,0,1-17.83,21.26,87.2,87.2,0,0,1-42.59,22.67,202.75,202.75,0,0,1-31.31,4.12c-22,1.21-44,2.55-65.93,4.71-4.13.41-8.27.73-12.4,1a2.3,2.3,0,0,1-2.38-2.4C1409.51,1181.22,1409.83,1169.72,1411.32,1157.15Z"/><path class="cls-3" d="M1305.56,1334.52c8.21-.57,15.54-1.06,22.86-1.6a192,192,0,0,0,47.72-10.13c10.61-3.61,21-7.73,31.23-12.3,2.34-1,4.66-2.11,7-3.11,1.71-.73,3.38.21,3.44,1.89.1,2.88.24,5.76.23,8.63-.05,11.83-.17,23.67-.22,35.5a6.05,6.05,0,0,1-2.42,5q-2.62,2.1-5.22,4.22a429.79,429.79,0,0,0-37.18,34.67c-24.61,25.67-43.79,55-58.34,87.32a497.35,497.35,0,0,0-25.57,70.23,28.87,28.87,0,0,1-3.27,8.35,9.29,9.29,0,0,1-1.27-2.38c-1.51-9.47-3.1-18.93-4.37-28.43-2.51-18.71-4.22-37.5-4.93-56.36a411.36,411.36,0,0,1,.86-51.77c1.88-21.23,7.33-41.52,15.24-61.21a202,202,0,0,1,11-23.41C1303.32,1337.94,1304.41,1336.36,1305.56,1334.52Z"/><path class="cls-3" d="M591.29,790.83c-7.42-.66-14.42-3-21.37-5.37-7.55-2.6-15-5.59-22.51-8.24-7.23-2.54-14.5-5-21.82-7.26-9.52-2.95-19.36-4.18-29.26-5.08-2.22-.2-4.44-.51-6.66-.76a1.16,1.16,0,0,1-1.15-1.27,1.23,1.23,0,0,1,.2-.81,33.53,33.53,0,0,1,2.8-2.6,223.17,223.17,0,0,0,32.77-32.25c6.36-7.6,12.66-15.26,19-22.87,7-8.36,14.17-16.5,21.9-24.16A185,185,0,0,1,582.51,665a85.76,85.76,0,0,1,27-14.22c5.8-1.8,11.61-3.58,17.49-5.09a59.83,59.83,0,0,0,20.78-9.55c1-.76,2.16-1.38,3.19-2.14,8.07-5.92,17.35-7.92,27.09-8.23,3.48-.11,7-.55,10.43.82a2.34,2.34,0,0,1,1.2,2.35,30,30,0,0,1-1.46,3.54,79.77,79.77,0,0,1-11.75,16.3c-4.16,4.42-8.39,8.79-12.45,13.31-6.51,7.23-13.89,13.2-23.09,16.72a9.61,9.61,0,0,0-2.38,1.53c-.53.41-.47,1.11.17,1.59,5.11,3.81,10.7,5.6,17,3.83a39,39,0,0,0,6.34-2.17,27.48,27.48,0,0,1,16.87-2c1.87.32,3.72.84,5.56,1.32.17,0,.3.5.34.78s0,.72-.12.85a43.66,43.66,0,0,1-3.85,2.81,228.18,228.18,0,0,0-20.5,14.2,102.5,102.5,0,0,0-26.84,30.95,262,262,0,0,0-20.49,46.41c-.6,1.82-1.32,3.61-1.82,5.46-1.71,6.28-2,6.62-9.47,6.94C598.33,791.43,594.8,791,591.29,790.83Z"/><path class="cls-3" d="M423.52,738.48c-.82,1.91-2.37,2.42-3.81,3.1a203.4,203.4,0,0,0-25.1,14,142.56,142.56,0,0,0-42.23,42.62,290.32,290.32,0,0,0-27.15,54.91c-1,2.69-2,5.41-3,8.1-.8,2.11-2.2,2.86-4.58,2.28-3.72-.92-7.42-1.93-11.11-3A411.14,411.14,0,0,1,251.49,841a158.56,158.56,0,0,1-32.22-18.84,129.4,129.4,0,0,1-26.74-27.34,32.85,32.85,0,0,1-2.78-5,1.66,1.66,0,0,1,.59-1.51,17.56,17.56,0,0,1,4.59-1.09,432.16,432.16,0,0,0,56.1-6.93A359.61,359.61,0,0,0,329.65,756q27.74-12.06,54.12-26.85c2-1.09,3.92-2.17,5.83-3.33a6.53,6.53,0,0,1,6.42-.21c8.18,3.63,16.36,7.25,24.52,10.94A21.75,21.75,0,0,1,423.52,738.48Z"/><path class="cls-3" d="M676.78,610.73a491.15,491.15,0,0,1-55.59-10.56c-38.68-9.5-73.77-26.77-105.93-50.14-1-.75-2-1.56-3-2.35s-1.57-2.13-1.06-2.41a3.69,3.69,0,0,1,1.58-.68c7,.06,14.07.22,21.1.27,8.31.05,16.63.15,24.94,0,11.18-.23,22.36-.7,33.54-1.08,19.82-.67,39.55-2.47,59.23-4.77q45.25-5.28,90-13.81c2.19-.42,4.42-.67,6.64-1a.94.94,0,0,1,.79.37c.23.51.59,1.27.38,1.61-1.32,2.18-2.74,4.31-4.19,6.41a196.7,196.7,0,0,0-21.47,39.52c-2.35,5.94-4.92,11.8-7.6,17.6A89.77,89.77,0,0,1,703.43,610c-1.79,2.14-3.73,3.26-6.61,2.91C690.15,612.08,683.46,611.44,676.78,610.73Z"/><path class="cls-3" d="M590.18,629.78c-.16.56-.14,1.43-.5,1.62-2.25,1.19-4.57,2.27-6.9,3.31A126.93,126.93,0,0,0,550,656.07a498.05,498.05,0,0,0-36.07,35.76c-9.25,10.15-18.23,20.56-27.34,30.84-1.48,1.67-2.89,3.42-4.5,4.95a3.76,3.76,0,0,1-2.59.9,19.06,19.06,0,0,1-4.67-1c-28.1-9.63-56-19.73-83.12-31.93a256.71,256.71,0,0,1-34.62-18.47,179.1,179.1,0,0,1-18.57-13.55c-2.19-1.86-4.33-3.79-6.44-5.73a2.81,2.81,0,0,1-1.19-2.39c.07-.85,1.16-1.28,3.26-1.14,10.52.69,21,1.63,31.57,2a390.17,390.17,0,0,0,63.11-2.52,175.15,175.15,0,0,0,28.11-5.86c24.28-7.27,49.14-11.33,74.27-13.88,16.84-1.71,33.71-3.05,50.57-4.46,2.84-.24,5.74-.54,8.55.43Z"/><path class="cls-3" d="M1123.88,1707.39a9.18,9.18,0,0,1-1.87-1.1,4.61,4.61,0,0,1-1-1.63,288.11,288.11,0,0,1-17.17-74.56c-1.33-15.12.26-30.06,3.17-44.85,1.73-8.78,4.11-17.43,6.32-26.1a47.55,47.55,0,0,1,2.6-7.2,3.42,3.42,0,0,1,2.06-1.78c2.81-.59,5.67-.94,8.52-1.33a238.21,238.21,0,0,0,37.38-8.42,167.59,167.59,0,0,0,42.67-19.38c7.79-5,15.44-10.29,23.14-15.45,1.86-1.24,3.68-2.53,5.55-3.76,1-.65,2.71.28,2.87,1.58.53,4.44,1,8.89,1.54,13.33.26,2.22.59,4.44.77,6.66a5.85,5.85,0,0,1-2.1,5.07q-12.75,11.64-25.38,23.43c-1.64,1.52-3.16,3.17-4.73,4.77a306.33,306.33,0,0,0-64.52,96.82,463.12,463.12,0,0,0-17,45.84C1126,1702,1124.86,1704.68,1123.88,1707.39Z"/><path class="cls-3" d="M1568.78,1236.65c-1.81,1.5-4,3.37-6.2,5.13a420.41,420.41,0,0,0-35,31.26c-24.7,24.46-42.49,53.32-55.08,85.55a314.86,314.86,0,0,0-12,36.35,2.67,2.67,0,0,1-1.58,2.12c-.88.35-1.58-.4-2.19-2.55-.26-.92-.58-1.83-.79-2.76a266.88,266.88,0,0,1-5.12-30.2,209.8,209.8,0,0,1-.66-37.31,163.84,163.84,0,0,1,7.42-38.49,309.27,309.27,0,0,1,26.88-60.24c.32-.55.61-1.12,1-1.66a6.13,6.13,0,0,1,4.62-3c3.49-.38,7-.72,10.46-1.19,3.79-.51,7.58-1.11,11.35-1.75a147.84,147.84,0,0,0,53.53-19.93,30.77,30.77,0,0,1,4.23-2.2c.45-.19,1.17.16,1.71.4a1,1,0,0,1,.32.86c-2.6,12.59-2.82,25.34-2.44,38.12A8,8,0,0,1,1568.78,1236.65Z"/><path class="cls-3" d="M2118.92,560.73a19.36,19.36,0,0,1-3.37,1.43c-6.28,1.39-12.17,3.84-18.09,6.27-6.21,2.55-12.46,5-18.8,7.18a88.67,88.67,0,0,1-25.34,4.81,43.64,43.64,0,0,1-20.42-4.32,83,83,0,0,1-17.61-11.51,159.06,159.06,0,0,1-17.81-17.42c-4-4.54-8-9.15-11.84-13.85-15.37-18.84-31.51-37-48.1-54.78-1.3-1.4-2.53-2.87-3.76-4.34a1.64,1.64,0,0,1-.18-.88,1.09,1.09,0,0,1,1.13-1.24c5.78-.48,11.48.22,17.18,1a213.54,213.54,0,0,1,69,22.45c14.2,7.36,27.92,15.54,41.39,24.16,17.77,11.38,35.07,23.46,52,36.07C2116,557.1,2118.17,558.07,2118.92,560.73Z"/><path class="cls-3" d="M920.94,488.83c-1.68-.08-3.6-.08-5.5-.29-12.72-1.39-25.46-2.66-38.15-4.28s-25.38-3.38-38-5.52c-16.08-2.72-32.13-5.69-47.72-10.66A125.78,125.78,0,0,1,767.76,458a55,55,0,0,1-12.43-8.92,6.26,6.26,0,0,1-1.16-2.45c-.23-.69.76-1.3,2.13-1.38l1,0c25.25-1.06,50.42-3.1,75.54-5.73,47.58-5,94.07-14.85,139.21-30.83a62.76,62.76,0,0,1,6.42-1.84c.38-.09,1,.48,1.38.84.1.09-.07.67-.26.87q-2.35,2.4-4.76,4.73a213.83,213.83,0,0,0-34.24,42.47q-8.29,13.5-15.54,27.57C924,485.29,923.13,487.37,920.94,488.83Z"/><path class="cls-3" d="M2255.66,496.56c7.38.85,14,1.73,20.7,2.38,17.52,1.71-4.16,4.72,13.13,7.86a175.28,175.28,0,0,1,34.91,10.12c1.33.54,3.19.8,3.31,3.13-1.28,0-2.54.1-3.79,0q-9.57-.45-19.14-1c-30.5-1.63-21.58,1.71-51.48,7.46-32,6.15-63.64,13.87-95,22.62-3.07.86-6.18,1.6-9.26,2.42a1.22,1.22,0,0,1-1.61-.67,1.1,1.1,0,0,1,.06-.92c.92-1.29,1.9-2.54,2.87-3.8,2.73-3.54,5.59-7,8.16-10.64a64.51,64.51,0,0,0,11-27.33c.4-2.52.72-5.06,1.11-7.59.45-3,1.82-3.43,4.64-1.56,2.13,1.41,4.16,3,6.35,4.29,5.76,3.43,11.51,6.88,17.4,10.07,2.79,1.51,5.9,2.41,8.84,3.66,6.81,2.91,13.74,2.27,20.69.68a4.54,4.54,0,0,0,1.57-1c.19-.15.25-.46.53-1-9.15-2.94-18.33-5.87-25.24-13-4.68-4.84-8.92-10-11.15-16,.07-2.82,1.45-4.64,2.38-6.65a79.59,79.59,0,0,0,7.52-26.6,53.22,53.22,0,0,0-3.77-25.33,118.69,118.69,0,0,0-11-20.15c-1.58-2.4-3.27-4.73-4.83-7.14a3,3,0,0,1-.31-1.74,5,5,0,0,1,2.6-.51,20.46,20.46,0,0,1,4.47,1.63,49.91,49.91,0,0,1,11.69,8.29,96.34,96.34,0,0,1,16.55,19.82c4.74,7.58,9.4,15.24,13.57,23.15,6.26,11.87,12.06,24,18.06,36C2252.5,490.3,2253.93,493.13,2255.66,496.56Z"/><path class="cls-4" d="M2137.18,492.09c2.18.46-15.14,32.31-20.45,36.5-1,.82-18.45-11.4-28.35-16.65-12.42-6.59-50-28.45-49.73-28.5C2040.21,483.18,2125,489.54,2137.18,492.09Z"/><path class="cls-4" d="M590.31,630a13.62,13.62,0,0,1,1.2-.87c.06,0,.48.35.46.4-.45.93-1.07.93-1.78.25Z"/><path class="cls-4" d="M2097.9,1250.31l-.8,1.14c-.63-1.3,0-1.26,1-.92Z"/><path class="cls-4" d="M1404.13,880c.13-.19,0,.05.09.09S1404.13,880,1404.13,880Z"/><path class="cls-4" d="M1415.74,208l-.41.4c-.38-.57-.3-.61.25-.13Z"/><path d="M1724.8,670.43a72.18,72.18,0,0,0-26.4-23.18,77.77,77.77,0,0,0-21.67-7.52,162.82,162.82,0,0,0-33.43-2.41c-18.23.5-36.38,2.12-54.55,3.47-18.5,1.38-37,2.47-55.56,2.34a236.75,236.75,0,0,1-44.84-4.41,97.73,97.73,0,0,1-37.74-15.87,277.43,277.43,0,0,1-40.43-35.26,488.21,488.21,0,0,1-32.37-38c-8.43-10.87-16.68-21.88-25-32.84-6.19-8.15-12.43-16.27-18.55-24.48A112.92,112.92,0,0,0,1305,464.91c-7.5-4.87-15.24-9.38-23-13.81-7.22-4.11-14.66-7.83-21.92-11.87-4.47-2.48-8.88-5.1-13.14-7.92a89.16,89.16,0,0,1-9.12-7A45.19,45.19,0,0,1,1223.22,400a63.69,63.69,0,0,1-1.78-11.35,86.45,86.45,0,0,1,4.34-33.08c.72-2.07,2-2.87,4.39-2.85,13.75.11,27.5.39,41.25.32,12.79-.06,25.58-.38,38.36-.8,9.9-.32,19.8-.91,29.69-1.47,15.45-.87,30.42-3.91,44.66-10.12a38.8,38.8,0,0,0,4.15-2.32c.22-.13.3-.48.48-.76-1.24-2.72-3.9-4.14-5.89-6.17-5.63-5.77-10.61-12-13.82-19.43a12.38,12.38,0,0,1-.64-2.73c-.15-.82.28-1.21,1.13-1.15a7.49,7.49,0,0,1,1.87.17c13.41,4.7,27.33,6.65,41.41,7.53,9.6.6,19.16-.24,28.69-1.47,14-1.81,27.75-4.56,41.57-7.16s27.64-5.17,41.62-6.89a159.08,159.08,0,0,1,27.76-1.25c19.24,1,37,6.67,52.94,17.78,2.09,1.46,4.15,3,6.31,4.35a1.68,1.68,0,0,0,1.61-.37,22.23,22.23,0,0,0,1.28-3.58c1.77-5.81,3.43-11.66,6.07-17.16a28,28,0,0,1,17.53-15.31,16.24,16.24,0,0,1,3.78-.57,2.37,2.37,0,0,1,1.69.53,1.91,1.91,0,0,1,.36,1.66c-.57,1.48-1.33,2.89-2,4.33-4,8.2-2.91,16.19,1.24,23.92a56.71,56.71,0,0,0,5.82,8.78c4.22,5.22,8.55,10.37,13.12,15.29,7,7.5,14.18,14.76,21.28,22.14,8.21,8.53,16.27,17.18,23.86,26.29,14.34,17.22,22.41,37.09,25.45,59.12a104.7,104.7,0,0,1,.51,10.51,1.05,1.05,0,0,1-.55.75,1.08,1.08,0,0,1-1.56-.61c-1.14-2.29-2.26-4.59-3.44-6.86-12.72-24.6-28.38-47.1-48-66.73a181.39,181.39,0,0,0-45.33-33.52,148.35,148.35,0,0,0-46.45-14.64c-11.06-1.64-22.22-3-33.38-3.65a215.3,215.3,0,0,0-67.46,7c-11.15,2.9-22.08,6.5-32.94,10.32-10.26,3.6-20.51,7.23-30.81,10.7-18.89,6.37-38.39,9.63-58.18,11.59q-26.74,2.65-53.59,3.26c-9.27.21-18.55-.1-27.82-.3a370.22,370.22,0,0,1-38.29-2.46,24,24,0,0,0-2.87-.07,3.21,3.21,0,0,0-2.93,2c-4.24,11.19-2.44,21.41,5.25,30.47a55.59,55.59,0,0,0,8.37,7.86c4.8,3.71,9.77,7.22,14.85,10.54,8,5.25,16.26,10.18,24.28,15.44s16,10.6,23.79,16.18a160.82,160.82,0,0,1,28.38,25.72c8.78,10.17,17.44,20.45,26.15,30.67,10,11.69,19.79,23.49,29.92,35a315.91,315.91,0,0,0,32.77,32.33,249.25,249.25,0,0,0,23,17.34,112.26,112.26,0,0,0,36.83,15.73c15.34,3.66,30.87,5.07,46.6,5.39,19.84.4,39.63-.61,59.44-1.39,16.29-.64,32.6-1.41,48.9.07,9.9.9,19.71,2.25,29.08,5.77q33.18,12.45,47.25,45c.65,1.51,1.07,3,.15,4.56l.69-.32Z"/><path d="M1573.88,477.4a18.18,18.18,0,0,0-2.06-3.14c-3.38-3.4-6.81-6.76-10.33-10-11.72-10.83-25.4-18.13-40.64-22.76-8.29-2.52-16.75-4.15-25.21-5.85-2.49-.5-5.06-.57-7.95-.88.1,1.11-.15,2.34.31,2.71,3.95,3.25,8.06,6.3,12,9.51a49.83,49.83,0,0,1,9.51,9.43c.93,1.29,1.81,2.59,1.57,4.31-1.33.59-2.44-.1-3.61-.58a267.3,267.3,0,0,0-28-10c-11.11-3.14-22.31-5.63-33.86-6.39-3.83-.25-7.65-.6-11.49-.77a119.41,119.41,0,0,1-21.81-3.2,55.08,55.08,0,0,1-26.54-14.62,38.06,38.06,0,0,1-10.5-18,4.8,4.8,0,0,1,.19-1.87c.11-.63,1.54-.79,2.6-.28s2.26,1.18,3.41,1.73c6.63,3.17,13.19,6.5,19.92,9.44a150,150,0,0,0,15.27,5.64,42.73,42.73,0,0,0,23.45,1c.65-1.94-.16-3.36-.72-4.85-1.8-4.78-3.79-9.51-5.32-14.38a84.42,84.42,0,0,1-2.45-11.22,18.36,18.36,0,0,1,3-13.81,9.08,9.08,0,0,1,2.64,1.11c1.42,1.27,2.59,2.83,4,4.16,4.61,4.43,9.12,9,13.93,13.18a122.76,122.76,0,0,0,44.06,24.61c7.3,2.32,14.77,4.14,22.17,6.13a14.26,14.26,0,0,0,2.85.22,2.23,2.23,0,0,0,2-1.76c.13-2.55.2-5.1.34-7.64.4-7.37,1.24-14.66,3.79-21.66,3.07-8.43,8.29-15,16.18-19.16,1.75.94,2.33,2.42,3.11,3.8,3.78,6.67,7.44,13.43,11.52,19.92,11,17.52,26.09,30.54,44.7,39.45,5.47,2.62,11.13,4.84,16.74,7.16,2,.84,3.59-.08,4.47-2.28,1.89-4.75,3.64-9.56,5.75-14.2,5.73-12.62,15.07-22.07,26.57-29.54a7.09,7.09,0,0,1,1.76-.7,6.74,6.74,0,0,1,1.33-.07c.88,2.22,1.88,4.53,2.74,6.89a234.88,234.88,0,0,0,14.47,32.37,182,182,0,0,0,13.42,21,101.51,101.51,0,0,0,34.64,29.72A177.52,177.52,0,0,0,1756.11,503a45.4,45.4,0,0,0,6.55,1.17c.74.12,1.69-1.28,1.4-2.06-1.11-3-2.36-5.95-3.33-9-1.55-4.86-3.07-9.75-4.32-14.7a15.08,15.08,0,0,1,.83-10.31,2.17,2.17,0,0,1,1.48-1c.4-.05,1,.47,1.29.9a9.82,9.82,0,0,1,.45,1.85,8.49,8.49,0,0,0,6.86,6,58,58,0,0,0,6.67.71c25.33,2,48.73,10.07,70.47,23a117.59,117.59,0,0,1,14.86,10.51c16.92,14,25.59,32.4,27.37,54.07a37.36,37.36,0,0,1-3.43,19.64,24.43,24.43,0,0,1-5.51,7.78c-7.26,6.47-15.39,11.45-24.93,13.79a32.86,32.86,0,0,1-20.71-1.25,21.32,21.32,0,0,1-7.3-4.48,2.07,2.07,0,0,1-.09-2.53c2.19-1.87,4.45-3.65,6.57-5.59,7.37-6.78,11.76-15.12,12.39-25.16a76.64,76.64,0,0,0-.32-13.41c-.61-5.38-1.77-10.71-2.8-16-2.35-12.11-8.75-21.88-17.9-29.89a85.48,85.48,0,0,0-10.78-8,116.67,116.67,0,0,0-38-15.3,12,12,0,0,0-3.75-.09,1.72,1.72,0,0,0-1.15,1.22,26.39,26.39,0,0,0,.33,4.71,40.43,40.43,0,0,0,9.2,19.74,120.8,120.8,0,0,0,14.05,14.4q8.39,7.15,17.15,13.86a6.29,6.29,0,0,1,2.76,6.59,14.73,14.73,0,0,1-.27,1.89c-.18.59-.42,1.36-.87,1.6a1.91,1.91,0,0,1-1.71-.32c-1.91-1.69-3.68-3.55-5.58-5.26-12.08-10.91-25.84-18.78-41.79-22.41-7.79-1.78-15.71-3-23.54-4.6-5.94-1.25-11.9-2.5-17.69-4.29a59.18,59.18,0,0,1-26.59-16.5c-4.75-5.17-9.17-10.66-13.65-16.08-3.46-4.19-6.68-8.59-10.22-12.7a46.94,46.94,0,0,0-17.6-13,24.83,24.83,0,0,0-4.63-1.1,1,1,0,0,0-.87.31c-.27.49-.66,1.18-.5,1.59,1,2.37,2.06,4.68,3.15,7,5.25,11.14,7.64,23,8.92,35.14a6.4,6.4,0,0,1-.06,1.91c-.12.6-.3,1.44-.72,1.67s-1.26-.1-1.71-.45a13.11,13.11,0,0,1-2-2.07,130.82,130.82,0,0,0-38.2-31.6c-6.45-3.53-12.82-7.2-19.32-10.63-14.49-7.66-28.12-16.49-39.82-28.08-.75-.74-2.17-1-2.51-.52a3.46,3.46,0,0,0-.82,1.66,27,27,0,0,0,.38,5.69,27.7,27.7,0,0,0,2,5.37c1.85,4.07,3.68,8.16,5.72,12.15q5.46,10.67,11.18,21.21a6.91,6.91,0,0,1,.39,5.53C1574,476.44,1574.16,476.45,1573.88,477.4Z"/><path d="M1733.22,597.36a8.36,8.36,0,0,1-2.72-.59c-2.44-1.52-4.74-3.25-7.12-4.87a226.73,226.73,0,0,0-43.77-23.61,138.71,138.71,0,0,0-28.57-8,212.8,212.8,0,0,0-35.3-3.24c-7.67,0-15.32-.34-23-.1a420.9,420.9,0,0,0-54.33,5.22c-9.23,1.5-8,1.58-13.32-5.56-8.61-11.53-17.55-22.8-27.16-33.53a170.4,170.4,0,0,0-18.36-18.23,93.9,93.9,0,0,0-10.88-7.8c-5.2-3.15-10.41-2.54-15.14,1.23a31,31,0,0,0-7.28,8.83c-1.45,2.48-2.64,5.11-4,7.66-.81,1.55-2.62,1.6-3.84.07-2.39-3-4.64-6.12-7.12-9-4.13-4.87-8.3-9.72-12.65-14.4a53.59,53.59,0,0,0-6.56-5.57,15.07,15.07,0,0,0-3.36-1.79,6.34,6.34,0,0,0-7,1.79,38.4,38.4,0,0,0-2.46,4.09c-.57,1-.5,2.44-1.91,2.9a5.82,5.82,0,0,1-1.57-1,27.14,27.14,0,0,1-4.64-10.43,15.76,15.76,0,0,1,4.12-15,7.09,7.09,0,0,1,7.87-2,35.87,35.87,0,0,1,10.12,5.38c4.86,3.63,9.57,7.46,14.32,11.24,2,1.58,3.89,3.24,5.59,4.65,2.49,0,3.93-1.41,5.59-2.32,10-5.46,20.65-6.55,31.6-4,9.11,2.12,17.63,5.75,24.83,11.93,5.33,4.58,10.76,9.08,15.74,14,8.62,8.56,16.93,17.42,25.35,26.18,2,2.07,4,4.16,5.78,6.41a7.65,7.65,0,0,0,7.54,3c6.34-.74,12.71-1.27,19.07-1.84A378.78,378.78,0,0,1,1631,539a226.23,226.23,0,0,1,44.26,8.09,58.74,58.74,0,0,1,18.13,8.54,156.47,156.47,0,0,1,12.84,10c9.65,8.46,18,18.19,25.66,28.43.76,1,1.48,2.08,1.14,3.48Z"/><path d="M2132,1135.32c-9.25-1.49-16.65-3.38-23.73-6.53a180.71,180.71,0,0,1-18.7-9.74c-15.43-9.14-30.1-19.41-44.58-30-30.27-22-59.52-45.39-88.39-69.2-7.16-5.91-14.5-11.56-22.1-16.89-12.83-9-25.68-18-38.32-27.25q-14.7-10.77-28.86-22.27a182.51,182.51,0,0,1-15.42-14.39,47.62,47.62,0,0,1-12.82-25.31c-.4-2.19-.73-4.42,0-6.62a1.1,1.1,0,0,1,.58-.67,1.32,1.32,0,0,1,.9.26,1.84,1.84,0,0,1,.58.7c5.54,11.1,13.8,20,23.17,27.84,5.63,4.73,11.4,9.32,17.3,13.69,8.74,6.47,17.55,12.85,26.52,19,34.33,23.51,67.48,48.58,100.21,74.25q33.22,26.06,66.78,51.69c10.4,8,21.17,15.48,32.15,22.66,9.46,6.18,19.51,10.92,30.64,13.21,2.82.58,5.61,1.29,8.38,2.05.34.09.59.82.72,1.29,0,.17-.32.6-.57.69a13.51,13.51,0,0,1-3.64,1.14C2138.69,1135.23,2134.53,1135.26,2132,1135.32Z"/><path d="M1558.56,704.65a49.19,49.19,0,0,1,9.47-1.11,156.6,156.6,0,0,0,34.87-5.85c4.58-1.36,9.1-3,13.54-4.76a58.55,58.55,0,0,0,22.38-16.05,99.22,99.22,0,0,0,12.63-18c1.07-1.95,2.23-3.84,3.37-5.75.39-.65,2.05-.57,2.53.09,5.7,8,9.34,16.66,9.59,26.59a29.93,29.93,0,0,1-9.61,23.16,46.42,46.42,0,0,1-10.88,7.78c-15.68,8.17-32.36,11.94-50,10.34A73.47,73.47,0,0,1,1560,707.8C1559.06,707.15,1559,707.05,1558.56,704.65Z"/><path d="M1717.59,833.92l3.76-6.81-.15-.23a3.77,3.77,0,0,1-1,4c-1,1-2,2.13-3,3.19Z"/><path d="M2445.29,744c-.66-.11-1,.19-.86.89,0,.13.38.19.58.29,0-.45,0-.89,0-1.34Z"/><path d="M1573.54,477.25c.67,0,.81-.26.4-.72a2.89,2.89,0,0,0-.48.29l.4.56Z"/><path d="M1316.52,522.37c-.33-.6-.19-1.07.46-1.26.15,0,.41.27.62.41l-1.26.65Z"/><path d="M1733,597.52c.83,0,1.13.33.84.89,0,0-.54-.07-.6-.2a2.36,2.36,0,0,1,0-.85Z"/><path d="M1724.63,670.19l.66.2s-.48,0-.48,0A2.57,2.57,0,0,1,1724.63,670.19Z"/><path d="M1721.35,827.11c1-.29,1.75-1.35,2.93-.67l-.15-.22c-1,1.92-1,1.92-2.91.69Z"/><path d="M1717.24,834.07l.29-.48c-.6.17-.57.26.07.3A3.54,3.54,0,0,1,1717.24,834.07Z"/></g></g><g id="Text"><text class="cls-5" transform="translate(556.45 768.08) scale(1.01 1)">D<tspan class="cls-6" x="198" y="0">e</tspan><tspan class="cls-7" x="312.1" y="0">a</tspan><tspan class="cls-8" x="501.81" y="0">d</tspan><tspan class="cls-9" x="669.14" y="0">l</tspan><tspan class="cls-10" x="786.08" y="0">i</tspan><tspan class="cls-11" x="852.64" y="0">n</tspan><tspan class="cls-12" x="1047.95" y="0">e</tspan><tspan class="cls-13"><tspan class="cls-14" x="527.15" y="173.41">i</tspan><tspan x="561.38" y="173.41">s</tspan></tspan><tspan x="70.13" y="422.06">C</tspan><tspan class="cls-15" x="253.76" y="422.06">o</tspan><tspan class="cls-16" x="425.58" y="422.06">m</tspan><tspan class="cls-17" x="664.15" y="422.06">i</tspan><tspan class="cls-18" x="730.29" y="422.06">n</tspan><tspan class="cls-19" x="910.41" y="422.06">g</tspan></text></g></svg>