<svg xmlns="http://www.w3.org/2000/svg" viewBox="0 0 2834.64 2032.08"><defs><style>.cls-1{isolation:isolate;}.cls-2,.cls-3{fill:#fff;}.cls-3{font-size:193.82px;font-family:GameofThrones, Game of Thrones;}.cls-10,.cls-4,.cls-5,.cls-6,.cls-7,.cls-8,.cls-9{font-size:170.23px;}.cls-4{letter-spacing:0.05em;}.cls-5{letter-spacing:0.07em;}.cls-6{letter-spacing:-0.04em;}.cls-7{letter-spacing:0.06em;}.cls-8{letter-spacing:0.07em;}.cls-9{letter-spacing:0.05em;}.cls-11{font-size:117.1px;}.cls-12{letter-spacing:-0.02em;}.cls-13,.cls-14,.cls-15,.cls-16,.cls-17{font-size:169.14px;}.cls-13{letter-spacing:-0.05em;}.cls-14{letter-spacing:0.07em;}.cls-15{letter-spacing:0.07em;}.cls-16{letter-spacing:-0.02em;}</style></defs><title>Artboard 1</title><g id="Shape_1" data-name="Shape 1"><g class="cls-1"><path class="cls-2" d="M2725.07,657.31,2567.53,2135,37.86,1865.32,238.35-15.23,2768,254.47l-39.28,368.47c-9.27,1.23-17.16-3.84-25.74-5.76-29.31-6.56-58.8-12.28-88.11-18.84-18.7-4.19-34.73-14.56-51.53-22.92-66.67-33.2-135.33-60.9-208.06-77.73-9-2.08-18-4.47-27.24-5.56-10.07-1.18-17.63-5.73-22.82-15.19-16.11-29.39-39.62-53.21-60.07-79.36-9.69-12.38-20.55-15.32-34.24-16.41-16.25-1.29-30.49-9.43-45.33-15.14Q2056.33,324,1947.12,281.78c-33.11-12.83-66.36-25.3-99.34-38.44a41.54,41.54,0,0,0-26.22-2.05c-42.1,10.32-84.82,16.34-128.21,16.25-99-.2-191.45-22.45-272.8-81.67-16.3-11.87-28.32-27.6-39.74-43.88-1.81-2.57-2.89-5.7-6.47-8.06-2.07,6.07-.21,11.55,1.3,16.77,6.48,22.41,18.9,41.91,31.1,61.44,11,17.62,21.85,35.39,34.48,51.95a34.61,34.61,0,0,1,3.73,6.7c3.41,7.44,1.44,11.51-6.72,12.88-11.71,2-23.6,1.52-35.4,1.89-34.63,1.08-69.12-1.8-103.21-7.19-32.93-5.21-64.47-16.09-95.3-28.82-20.12-8.31-40-17.14-59.14-27.52-3-1.6-5.87-4.12-9.91-2.75-2.77,4.09.21,7.38,1.93,10.47,7,12.6,14.93,24.65,24.59,35.38,15.4,17.1,30.79,34.22,46.42,51.11,8.48,9.17,7.14,14.78-4.76,18.59a360,360,0,0,1-79.9,15.6c-37.3,3.15-73.9-1.32-110.4-8.77-37.05-7.56-73.26-18-109.17-29.62-2.91-.95-5.91-2.7-9.76-1-1.18,5.3,2.63,8.74,5.47,12.24,14.41,17.71,32,32.21,49,47.21,7,6.13,14.42,11.69,21.52,17.64,5.1,4.27,13.68,7.19,12,15.77-1.64,8.36-10.51,8.57-16.83,10.75-25.75,8.88-52.26,15.06-79,20.26-49.93,9.72-100.34,10.47-150.92,7.66-18.88-1-36.44-6.17-52.73-17.92,4,10.24,11,16.71,18.24,23,23.62,20.65,51.5,34.38,79,48.81,5.46,2.87,13.4,4.3,13.13,12.2s-8.14,9.18-13.87,11.34c-35.92,13.56-73.53,19.16-111.45,23.34a573.14,573.14,0,0,1-98.62,2.71c-28.49-1.78-56.42-7.25-82.67-19.33-2.78-1.28-5.27-3.67-9.91-3,5.57,10,12.64,18.05,20.33,25.59,21.08,20.66,44.9,38,68.17,56,5.05,3.91,13.17,6.65,12.11,14.64-1.08,8.15-9.71,8.5-15.69,10.63-48.9,17.4-99.07,27.72-151.28,26.54-19.8-.45-39.6-.59-59.34-2.63a260.66,260.66,0,0,1-46-9.37c-2.69-.78-5.27-2.53-9-.84.17,5.59,3.9,9.65,7,13.84,17.46,23.36,41.78,38.34,65.93,53.45,5.95,3.72,12.12,7.16,18.16,10.76,9.33,5.55,9.59,11.3.24,17.17-18.48,11.59-38.5,20.16-58.56,28.61-47.33,19.94-96.52,23.46-146.9,17-3.69-.48-7.49-2.08-11.68.12-2.14,5.53,1.84,9.56,4.3,13.7,11.65,19.62,27.94,34.82,46.49,47.73,30.85,21.48,64.27,38.23,98.47,53.6,20.61,9.26,21.15,12.84,5.7,29.57a83.75,83.75,0,0,1-17.94,14.95c14,0,26-1.61,38.09-2.64,9.25-.79,13.19,3.34,10.28,11.77-11.62,33.69-17.43,68.72-24.61,103.44-2.51,12.16-8.64,22.45-16.8,33,16.12-1.4,30.84-4.28,45.81-4.8,18.59-.65,36.93-.44,55.24,4,17.23,4.19,34.94,3.44,52.5,1.28,2.22-.27,4.45-.55,6.67-.81,16.88-2,19.69,1.69,13.06,17A292,292,0,0,0,473.44,1137c-3.59,13.26-3.71,26.56-2.56,39.94,2.54,29.58-4.88,57.08-16.72,83.74a63.36,63.36,0,0,0-3.33,8,3.81,3.81,0,0,0,.24,3c3.18,2.42,6.6.43,9.84-.25A292.17,292.17,0,0,1,554.4,1267c18.2,2,36.35,2.16,54.58,1.52,13.71-.48,15.66,1.79,15,15.27-2.82,56.06-16.21,109.29-42.11,159.24-1.53,3-4.27,5.78-2.8,9.77,3.55,2.38,6.87.21,10.07-.69,19.22-5.39,38.85-7.76,58.72-8.69,11.73-.55,22.93,2.83,34,5.61,24.57,6.19,48.78,5.3,73.14-.2,8.11-1.83,16.21-3.79,24.38-5.32,7.68-1.44,11.69,2.78,10,10.41-1.89,8.42-4.43,16.7-6.85,25-6.52,22.27-9,45-9.37,68.15s-4.26,45.85-14.34,67.08c-1.22,2.57-2.71,5.07-3,7.73.33,1,.86,1.49,1.5,1.29,33.18-9.91,65.89-5.12,98.39,3.4,21,5.51,42.05,7.56,63.61,3.93,12.46-2.1,15,.69,14,13-2.12,25.8-6.06,51.38-6.7,77.38-1.08,43.69,4.8,86.15,18.57,127.5a521.71,521.71,0,0,0,40.26,91.18c2,3.52,3.27,7.7,8.65,9.91,3.17-8.86,4.05-18.05,6-26.88,8.52-39.17,19.55-77.48,36.39-114,14.78-32,38.33-56.36,66.51-76.67,7.48-5.39,12.72-3.68,16.51,5.09,6.72,15.56,11.42,31.93,18.75,47.27,5.25,11,10.78,21.79,17.6,31.9,1.76,2.61,3.18,5.57,7.69,6.94,3.59-7.11,4.51-14.94,6-22.5,9.32-46.83,21.44-92.81,39.84-137,13.76-33.06,37.4-57.68,66.13-78,6.82-4.82,11.25-3.33,13.61,4.81,3.38,11.66,5.59,23.65,9.37,35.23a154.09,154.09,0,0,0,28.84,51.61c1.81,2.16,3.42,4.73,6.91,5,4.14-2.38,2.9-6.56,3.08-10.18,2.08-43.51,6-86.69,18.9-128.67,11.62-37.88,33.07-69.71,59.12-98.83,8.31-9.29,16.66-18.56,26.08-26.81,9-7.85,14.16-6.57,17.65,5.14,6,20.24,11.76,40.55,19.55,60.22a325.25,325.25,0,0,0,21.58,43.83c3.08-4.23,2.63-8.13,3-11.66,3.44-37,8.31-73.63,19.23-109.37,12.3-40.24,35-73.69,64.37-103.08l.71-.65c14.4-13.14,19.63-11.76,25,7.08,4.56,16.06,9.9,31.76,18.29,46.27,3.18,5.5,6.4,11,12.18,14.55,5.13-3.14,5.33-8.18,6.45-12.64,12.4-49.4,31.2-96.16,59-138.94,29.44-45.32,66.58-82.71,116-106.27,45.23-21.57,91.82-26.7,139.52-8.41,23,8.81,41.81,23.32,55.74,43.79,11.8,17.33,10.93,36.31,6.22,55.43a116.54,116.54,0,0,1-16.94,38.32c3.79,1.13,6.32-.37,8.69-1.39,25-10.73,50.59-8.93,76.31-3.6,7.94,1.65,10.23,5.68,8,14.23-1.91,7.43-4.67,14.62-6.87,22-6.06,20.33-7.44,40.76-1.45,61.22,6-16.6,19.63-26,34.33-34.27,23.41-13.24,47.7-24.78,71.73-36.77,42.3-21.11,67.11-55,77-100.57,1.74-8,6.25-13.72,12.59-18.56a320.16,320.16,0,0,0,63.31-63.83c11-14.83,15.16-31.53,14.24-49.67-.19-3.67.53-8.34-3.6-10.31s-7.15,1.72-10,4a187.57,187.57,0,0,1-55,30.79,177.53,177.53,0,0,1-34.53,8c-13.26,1.85-16.88-1.26-17.4-14.55-.5-12.74-5.41-23.58-13.57-33.08-6.08-7.07-8.89-7.14-15.52-.72-7.2,7-15,12.94-24.94,15.55-9.46,2.47-13.37-.6-12.45-10.37a147.86,147.86,0,0,0-.84-32.53,48.23,48.23,0,0,0-6.62-18.89c-3.64-6.07-8.67-7.62-14.6-4-14,8.5-29.43,12.19-45.29,14.85a75.62,75.62,0,0,0-17.39,5.33c-8.1,3.49-11.52,1.36-13.15-7.58-1.79-9.86.53-19.76-.5-29.68-1.42-13.74-2.81-27.41-9-40-4.7-9.53-7.28-9.8-15.69-4-13.76,9.53-29.76,11.17-45.88,10.78-6.37-.15-8.47-5.14-5.4-12.09,4.68-10.62,6.67-21.21,3.09-32.62-3.71-11.8-7.87-14.37-19.8-11.38-32.49,8.17-51.11,1.55-71-25.23-14.63-19.66-6.79-55.79,14.63-67.59a83,83,0,0,1,14.13-5.95c10.5-3.47,13.54-2.08,17.24,8.56A212.91,212.91,0,0,0,1977.77,800a71.14,71.14,0,0,0,11.48,15.32c8.34,8.6,12.73,8.92,22.14,1.19,12.45-10.22,25.09-19.88,41.52-22.87,13.26-2.41,16.27-.62,20.09,12.21,5.16,17.33,11.88,33.69,25.71,46.38,6,5.5,11.09,6.3,17.8,1.69,13.44-9.22,26.57-19,41-26.58,20.8-10.94,25.72-9,34.06,12.6,4.74,12.28,8,25,10.88,37.77,2.43,10.78,5.48,12.62,16.37,9.87,19.5-4.92,38.27-11.08,49.37-30,2.56-4.37,6.67-5.14,11.71-3.71,13.39,3.79,20.57,11.8,22,25.84a138.29,138.29,0,0,1-.14,26.81c-.93,9.85,2.14,13.11,11.93,14.93,20.85,3.88,39.93-1.75,58.45-10.6,6.94-3.31,13.42-7.46,20.24-11,3.31-1.71,6.52-2.81,9.87-.34s3.32,6.06,2.77,9.59a44.35,44.35,0,0,1-6.1,16,253.38,253.38,0,0,1-26.61,36.34c-2.25,2.59-5.67,5.12-4.31,9s5.67,3.77,9.06,4c25,1.62,49.24-.1,71.06-14.36,11-7.17,18.83-17.26,26.34-27.6a229.92,229.92,0,0,0,25.29-44c3.42-7.94,8.6-12.63,17.36-14.66,23.84-5.5,44-17.84,58.91-37.17a138.77,138.77,0,0,1,38.41-33.9c24.95-15.23,42.76-36.53,50.86-64.92a54.16,54.16,0,0,1,15.83-25.46c15.69-14.71,30.51-30.2,37.5-51.35C2719.6,658.24,2721.35,655.85,2725.07,657.31Z"/><path d="M2725.07,657.31a9.44,9.44,0,0,0-2.25,5.21c-.65,4.86-2.82,9.12-5.16,13.33a135.85,135.85,0,0,1-15.5,21.89,206.63,206.63,0,0,1-23.73,23.73,15.23,15.23,0,0,0-5.45,8.69,124.15,124.15,0,0,1-8.6,24.38,107.59,107.59,0,0,1-23.6,33.54,195.69,195.69,0,0,1-32.72,25c-2.72,1.69-5.45,3.36-8.28,4.85a19.1,19.1,0,0,0-6.45,5.58c-2.69,3.58-5.44,7.13-8.39,10.49-4.43,5-8.93,10-13.62,14.84-15.19,15.53-33.59,25.27-54.69,30.17-2.73.63-6.1.07-8,2.51-1.55,1.95-2.42,4.47-3.47,6.79a286.25,286.25,0,0,1-23.47,42.86,190.72,190.72,0,0,1-13.47,17.46c-13.48,15.64-30.54,25.05-50.67,28.95a138.46,138.46,0,0,1-51.52,0,75.22,75.22,0,0,1-9.19-2.62,1.67,1.67,0,0,1-.5-1.53,50.86,50.86,0,0,1,3.41-4.57c6.94-8.38,14-16.62,20.8-25.13,4.17-5.25,7.91-10.85,11.71-16.38a66.31,66.31,0,0,0,7.49-15.51,26,26,0,0,0,1.82-9.35c0-.31,0-.82-.22-.9-.55-.24-1.32-.61-1.74-.4-2,1-3.94,2.1-5.85,3.26a207.48,207.48,0,0,1-31.62,16.06c-9,3.54-18.16,6.16-27.84,6.81a86.71,86.71,0,0,1-35.88-4.69c-2.21-.8-3.23-2.18-3-4.27.37-3.5.85-7,1.25-10.48,1-8.27,1.64-16.56.9-24.9-.23-2.54-.57-5.08-1-7.59-1.49-8-6.57-12.93-13.8-15.94a39.44,39.44,0,0,0-5.53-1.58c-2.38-.6-3.73-.11-4.94,1.78-1,1.61-2,3.28-3,4.89a48.77,48.77,0,0,1-22.39,18.87,197.09,197.09,0,0,1-39.45,11.76,15.54,15.54,0,0,1-4.75.23,3,3,0,0,1-2.1-1.67,85.35,85.35,0,0,1-1.58-8.47c-2.92-19.78-9.34-38.48-17.28-56.73a14.2,14.2,0,0,0-2-3.2,2.27,2.27,0,0,0-1.67-.68,14.71,14.71,0,0,0-3.75.61,100.45,100.45,0,0,0-20.76,9.85c-11.76,7.15-23.11,14.94-34.35,22.87q-3.14,2.21-6.24,4.48c-6.39,4.66-6.32,5-11.77-.7-4-4.16-7.87-8.41-11.75-12.67a83.41,83.41,0,0,1-15.48-25.22,153,153,0,0,1-7.22-23.84c-.49-2.17-1.91-3.17-4.21-3a70.15,70.15,0,0,0-29.93,9.44,77.34,77.34,0,0,0-9.46,6.54c-4.95,4-9.82,8.22-14.44,12.63-6.88,6.55-5.71,6.46-13.27,1.19a70.68,70.68,0,0,1-22.1-24.87A233.13,233.13,0,0,1,1959,769.5c-1-2.68-1.36-5.61-3.39-7.77a3.08,3.08,0,0,0-1-.22,54.55,54.55,0,0,0-23.66,9.82,34.87,34.87,0,0,0-14.32,22,63.48,63.48,0,0,0-.59,25.71,25.61,25.61,0,0,0,3.5,8.87,68.4,68.4,0,0,0,25.63,24c8.5,4.56,17.64,5.41,27,4.23a133.13,133.13,0,0,0,26-6.42,33,33,0,0,1,4.59-1.25,2.65,2.65,0,0,1,1.71.68,4.48,4.48,0,0,1,1.19,1.46,107.74,107.74,0,0,1,7.83,18.53,40,40,0,0,1-.18,24.54,79.85,79.85,0,0,1-5.56,13.25c-.87,1.66.17,2.93,2.28,2.91,1.28,0,2.57,0,3.84-.11a203.22,203.22,0,0,0,23.72-3.4c2.19-.47,4.35-1.07,6.49-1.72A24.9,24.9,0,0,0,2058.9,893c1.13-1.92,2.14-3.92,3.34-5.8.19-.3,1.23-.39,1.65-.16a8,8,0,0,1,2.18,1.84,76.94,76.94,0,0,1,16.71,33.08,151.37,151.37,0,0,1,3.25,24.7,198.63,198.63,0,0,1,.16,21.1c-.22,4.47-.19,9-.24,13.43a1.71,1.71,0,0,0,2.75,1.31c7.69-5,16.26-7.34,25.18-8.77,3.47-.56,6.9-1.34,10.37-2,12.48-2.21,23.78-7.33,34.51-13.9,2.45-1.5,4.86-3.08,7.31-4.59a2.66,2.66,0,0,1,3.38.86c9.57,13.31,15.44,27.89,15.45,44.55,0,8.33-.18,16.63-1.66,24.86-.52,2.91.9,4,4,3.22a9.25,9.25,0,0,0,.94-.2c3.3-1.2,6.66-2.26,9.88-3.66a41.26,41.26,0,0,0,19.06-16.93c1.64-2.69,2.53-5.93,5.36-8a11.91,11.91,0,0,1,2.39,1.36,110.75,110.75,0,0,1,16.94,19.53,52.84,52.84,0,0,1,9.34,30.72c0,2.24,0,4.48.08,6.72,0,1.65,1.43,2.72,3.29,2.64.64,0,1.28,0,1.92-.07,7.93-1,15.82-2.25,23.63-4a157.72,157.72,0,0,0,51.91-21.81,252.1,252.1,0,0,0,21.84-15.64c3.23-2.62,6.43-5.28,9.65-7.91,3.06-2.5,4.31-2.14,5.32,1.4a82.43,82.43,0,0,1,3.1,19.86c.35,10.93-.77,21.72-4.63,32.09a79.11,79.11,0,0,1-8.33,16.16,211.39,211.39,0,0,1-20.23,25.56,426.3,426.3,0,0,1-45.52,42.58c-2.23,1.82-4.41,3.71-6.75,5.39a9.75,9.75,0,0,0-3.89,6.36,177.86,177.86,0,0,1-4.91,19.53,163.89,163.89,0,0,1-23.76,46.85,115.68,115.68,0,0,1-27.4,26.63,252.63,252.63,0,0,1-27.08,16.38c-11.07,5.76-22.25,11.29-33.37,16.94-10,5.06-20.05,10-29.91,15.27-6.19,3.32-12.13,7.13-18.07,10.9a54.33,54.33,0,0,0-11.61,10c-5.85,6.64-9.82,14.15-10.71,23.1-.15,1.51.09,3.17-1.09,4.42a.94.94,0,0,1-.9-.12,8.87,8.87,0,0,1-1.55-2.34,119.84,119.84,0,0,1-7.36-38.46,110.52,110.52,0,0,1,2.84-25.71,218.73,218.73,0,0,1,9.62-32.13c2.92-7.45,2.55-8.17-5-9.41-10.41-1.71-20.77-3.79-31.38-4.1a86.52,86.52,0,0,0-19.07,1.5,166,166,0,0,0-39.05,12.94,49.33,49.33,0,0,1-5.32,1.94c-.1,0-.6-.56-.55-.69a26,26,0,0,1,2.06-4.13,168.83,168.83,0,0,0,14.44-24.86c5.29-11.37,9.29-23.12,10.45-35.73,1.74-18.95-3.59-35.35-16.95-49.08a129.5,129.5,0,0,0-59.45-35.36c-21.63-6-43.51-6.71-65.63-3.73a178.55,178.55,0,0,0-53.95,16.29c-31.27,15.05-58.21,35.8-81.57,61.35-20.42,22.33-37.21,47.18-51.35,73.85a466.8,466.8,0,0,0-35,86,390.68,390.68,0,0,0-10.45,41.86,34.14,34.14,0,0,1-1,3.68c-.22.73-1.86,1.27-2.39.81a23.13,23.13,0,0,1-2.14-1.88c-10.94-12.27-20-25.72-26.17-41.07a318.11,318.11,0,0,1-11.72-35.51c-.75-2.77-1.48-5.54-2.19-8.21-.84-.16-1.57-.55-2-.34a13.13,13.13,0,0,0-3.18,2.06c-21.79,19.64-40.39,41.87-54.6,67.62-7.14,12.94-12.37,26.67-16.74,40.74a459.08,459.08,0,0,0-17.47,85.43c-1.56,14-2.61,28-3.92,42-.18,1.9-.51,3.78-.83,5.66,0,.18-.45.36-.71.42s-.73.09-.85-.07c-1.36-1.76-2.79-3.49-4-5.37a290.21,290.21,0,0,1-26.63-53.09c-6.77-18-12.51-36.27-17.55-54.79-1-3.67-2.11-7.31-3.15-10.9-1,.09-1.72,0-2.19.25a18.71,18.71,0,0,0-3,2.34,415.31,415.31,0,0,0-53.76,61.18c-9.27,13.08-17.56,26.72-23.84,41.51a293.2,293.2,0,0,0-13,39.09c-8.81,32.94-12.53,66.61-14.17,100.55-.45,9.25,0,18.54-.05,27.82,0,2.23-.17,4.46-.27,6.69,0,.82-.46,1.19-1.21,1.14-.31,0-.7.1-.9-.05a26.08,26.08,0,0,1-3-2.37,200,200,0,0,1-21.87-25.45,151.61,151.61,0,0,1-21.37-42.73,265,265,0,0,1-8.19-32.53c-.46-2.46-.54-5-2.37-7.46a21.3,21.3,0,0,0-3.3,1.6c-18.66,13.23-35.2,28.67-48.81,47.13a133.67,133.67,0,0,0-14.44,24.83,514.63,514.63,0,0,0-21.79,59.39c-5.82,19-10.82,38.16-15.18,57.5-3.87,17.16-7.6,34.36-10.25,51.77-.43,2.81-.42,5.77-2,8.27a1.71,1.71,0,0,1-1.64.33,6.84,6.84,0,0,1-2.11-1.84,248,248,0,0,1-27.3-43.94,502.9,502.9,0,0,1-20.67-51.64c-.72-2.1-1.58-4.16-2.41-6.23a2.26,2.26,0,0,0-2.51-.74c-1.38.78-2.83,1.49-4.12,2.41a213.65,213.65,0,0,0-47.55,45.71,181.15,181.15,0,0,0-21,36.49,470.8,470.8,0,0,0-19.66,54c-4.53,15-8.38,30.2-11.95,45.46-2.11,9-3.76,18.16-5.57,27.26-1.25,6.27-2.4,12.57-3.66,18.84-.1.52-.63,1-1,1.43s-1.64-.18-2.33-1.22c-.53-.8-1.08-1.59-1.57-2.41-25.47-42.46-45.79-87.16-58.75-135.07a329.28,329.28,0,0,1-11.08-71.89,484.15,484.15,0,0,1,1.66-68.05c1.52-15.61,3.21-31.19,5.8-46.67.16-.94.23-1.9.33-2.86a2.38,2.38,0,0,0-2.58-2.16c-6.32.94-12.61,2.14-19,2.77a118.93,118.93,0,0,1-40-2.39c-11.19-2.71-22.4-5.33-33.66-7.71-11.91-2.51-23.93-4.46-36.15-4.38a132,132,0,0,0-48.72,9.22,27.94,27.94,0,0,1-4.46,1.14c-.11,0-.55-.55-.49-.75a10.82,10.82,0,0,1,1-2.62c8.85-14.66,14.44-30.61,18.65-47.1a71.4,71.4,0,0,0,1.52-8.5,280.75,280.75,0,0,0,2.22-30.62,246.94,246.94,0,0,1,5.91-51.39,408.62,408.62,0,0,1,11.63-40.55,7.38,7.38,0,0,0,.48-2.74c0-.41-.88-1.16-1.25-1.1a72,72,0,0,0-7.45,1.48,338.6,338.6,0,0,1-53.72,9.81,74.79,74.79,0,0,1-11.49.3,171.73,171.73,0,0,1-25.64-3.62c-7.51-1.56-15-3.26-22.5-4.91-10.12-2.23-20.33-2-30.56-1.09a258.71,258.71,0,0,0-59.9,12.71c-2.1.7-4.26,1.26-6.41,1.83-.21.06-.55-.19-.76-.38s-.54-.6-.47-.76c.94-2,1.86-4.05,2.93-6a497.62,497.62,0,0,0,26.09-55.52,321.11,321.11,0,0,0,21-84.47c1.26-11.77,2.23-23.57,3.31-35.36.15-1.59.17-3.19.2-4.79,0-2.4-1.18-3.64-3.44-3.53-4.79.24-9.57.56-14.36.74a277.55,277.55,0,0,1-31.64-.36c-6.06-.46-12.11-1.18-18.17-1.55-11.49-.7-23-1.55-34.5-1.75-11.84-.2-23.62,1.09-35.35,2.75a237.66,237.66,0,0,0-37.47,8,16.44,16.44,0,0,1-2.8.67,2.28,2.28,0,0,1-1.69-.31,2,2,0,0,1-.32-1.71c.57-1.48,1.33-2.9,2-4.32a329.16,329.16,0,0,0,17.94-43.39c4.2-12.53,7-25.29,6.67-38.57-.13-6.07-.46-12.14-.71-18.21-.09-2.24-.15-4.47-.31-6.71-1.18-16.94,2.93-33,8-48.95a220.1,220.1,0,0,1,12.65-31.07,15.27,15.27,0,0,0,1.26-3.56c.07-.33-.73-1.19-1.14-1.2a19.14,19.14,0,0,0-3.78.36c-11.36,1.91-22.76,3.48-34.31,3.59-3.83,0-7.68.1-11.49-.21a256.43,256.43,0,0,1-28.52-3.9c-15.16-2.94-30.45-3.52-45.86-2.75a448.66,448.66,0,0,0-55.21,6.43c-1.49.26-3.05,1.06-4.6.15a.81.81,0,0,1-.25-.75,14.72,14.72,0,0,1,1.53-2.33c3.53-4.13,7.32-8.06,10.6-12.37a67.5,67.5,0,0,0,11.81-25c1.53-6.22,2.86-12.46,3.9-18.78,1.55-9.47,3-19,5-28.35,2.26-10.3,4.95-20.52,7.85-30.66s6.29-20.13,9.45-30.19a1.91,1.91,0,0,0-2.05-2.41c-8.58.91-17.15,2-25.74,2.7-9.24.79-18.5,1.29-27.75,1.85a20.89,20.89,0,0,1-3.79-.34c-.25,0-.69-.35-.67-.46.13-.58.2-1.36.6-1.65,1.54-1.14,3.21-2.08,4.8-3.16,4.5-3,9.09-6,13.46-9.22a93.15,93.15,0,0,0,19.93-20.62c1.69-2.34,1.18-3.85-1.66-5.13-.87-.39-1.78-.71-2.66-1.11-10.48-4.76-21-9.37-31.41-14.33C273,874,250.91,862.38,230,848.74c-7.49-4.88-14.85-10-21.94-15.48A153.42,153.42,0,0,1,165.93,784c-2.72-5.06-5.41-10.17-6.84-15.8a1.94,1.94,0,0,1,1.63-1.88c.95.1,1.91.07,2.85.23,2.84.48,5.67,1,8.5,1.56a255.51,255.51,0,0,0,45.74,4.9c10.88.23,21.73.11,32.59-.71A230.56,230.56,0,0,0,303,762.16c29.71-9.44,57.7-22.7,84.7-38.15a26.09,26.09,0,0,0,2.32-1.67,1.67,1.67,0,0,0,0-2.47c-2.73-1.65-5.44-3.34-8.22-4.92q-19.6-11.16-38.23-23.88a288.14,288.14,0,0,1-26.66-20.4,118.19,118.19,0,0,1-21.55-24.38,83.53,83.53,0,0,1-10.71-22.43,2.46,2.46,0,0,1,.5-1.67c.39-.61,1-.61,1.7-.19.27.17.57.28.84.45,10.25,6.25,21.56,9.63,33.16,12.16a339.73,339.73,0,0,0,60.92,7.18c11.83.41,23.66.7,35.5.74a372.37,372.37,0,0,0,79-8.48,557.72,557.72,0,0,0,70.1-19.8c2.7-1,5.32-2.16,8-3.27a1.68,1.68,0,0,0,.22-2.43c-2-1.61-3.94-3.24-6-4.79-14.46-11.11-29-22.08-43.36-33.33a408.78,408.78,0,0,1-31.89-27.66,139,139,0,0,1-15.94-17.9,63.31,63.31,0,0,1-7.32-12.36c-1.38-3.23-2.66-6.53-2.41-10.14a1.63,1.63,0,0,1,1.25-1,6.52,6.52,0,0,1,2.59,1.1c13.07,9.7,28,15.39,43.49,19.55a301,301,0,0,0,65.36,9.65c30.13,1.31,60.09-.41,90-3.5a564,564,0,0,0,69.08-11.09,255.7,255.7,0,0,0,33.14-9.6c5.38-2,10.61-4.43,15.9-6.7a4.16,4.16,0,0,0,2.57-3c-1.86-1-3.75-2.17-5.72-3.16-15.17-7.57-30.23-15.33-44.87-23.87A357.44,357.44,0,0,1,708.24,450a127.46,127.46,0,0,1-19.39-17.12c-7.15-7.95-12.76-16.8-15.82-27.13a15.9,15.9,0,0,1-.35-3.78c0-.25.29-.57.52-.76s.58-.28.72-.18a25.46,25.46,0,0,1,3,2.3c14.37,13.8,31.6,21.46,51.27,23.82a267.56,267.56,0,0,0,31.59,2c15.68,0,31.33-.61,47-.72,39.27-.28,77.62-6.9,115.58-16.35,18.32-4.56,36.41-9.89,54.22-16.15,1.51-.53,3-1,3.65-2.75-1.42-2.61-4.05-4-6.27-5.76-15.22-12.21-30.34-24.55-44.81-37.66-8.53-7.73-16.81-15.74-25-23.8a86.61,86.61,0,0,1-14.21-18.06,43.31,43.31,0,0,1-5.91-15.1,1.88,1.88,0,0,1,1.79-1.79c.63.11,1.27.15,1.88.31,1.24.33,2.48.66,3.68,1.1,22.52,8.3,45.45,15.31,68.56,21.7q25.88,7.15,52.23,12.53c15.69,3.17,31.45,5.93,47.33,7.79a335.68,335.68,0,0,0,105.94-4.71,318.15,318.15,0,0,0,38-9.92q2.73-.91,5.42-1.92a2,2,0,0,0,1-3.06c-1.48-1.67-3-3.34-4.52-5-14.78-15.53-29.36-31.25-43.27-47.57-7.47-8.77-14.75-17.69-21.33-27.17a115.65,115.65,0,0,1-11-19.11,44.07,44.07,0,0,1-4.12-15.68,3.15,3.15,0,0,1,.4-1.81,2.47,2.47,0,0,1,1.5-.95c1.73-.28,3,.9,4.34,1.68A618.13,618.13,0,0,0,1229.35,244a505.37,505.37,0,0,0,65.38,18.88c12.83,2.74,25.9,4.15,39,5.36,16.26,1.5,32.55,2.45,48.87,2.5,20.14.06,40.28-.08,60.63-1.71.11-1,.59-2.1.23-2.72-1.44-2.48-3.1-4.84-4.75-7.19-14.74-20.94-29-42.22-42.11-64.19-6.58-11-12.84-22.14-18.37-33.69a118.84,118.84,0,0,1-7.64-19.65,59.35,59.35,0,0,1-2.49-18.94,34.88,34.88,0,0,1,2.42-12.16,3.79,3.79,0,0,1,2.09-1.56c.31-.12,1.14.54,1.41,1,1.23,2.24,2.35,4.54,3.51,6.82a159.47,159.47,0,0,0,45.48,55,323.08,323.08,0,0,0,49.57,31,466.54,466.54,0,0,0,84.76,33c25.64,7.29,51.78,11.54,78.25,14.26a519.66,519.66,0,0,0,53.65,2.89,546.62,546.62,0,0,0,84-6.87,517.57,517.57,0,0,0,54.46-11.17,21,21,0,0,1,13.93,1c20.82,8.2,41.72,16.2,62.6,24.24l211.19,81.38q41.16,15.87,82.29,31.82a50.94,50.94,0,0,0,15.78,3.62c6.38.37,12.73,1.28,19.07,2.13,3.48.47,6.94,1.2,10.12,3.67.55,6.14,4.13,10.79,8.26,15.45,10.4,11.72,20.47,23.75,30.52,35.78a297.51,297.51,0,0,1,29.8,43.5c1.27,2.21,2.59,4.39,3.89,6.59a95.34,95.34,0,0,0,14.12,3.29c11.35,2,22.55,4.64,33.75,7.31,12.45,3,24.78,6.33,37.08,9.84a774.68,774.68,0,0,1,84.08,29.59c34.87,14.44,68.87,30.8,102.66,47.57,6.3,3.13,12.66,6.13,19,9.24a28.16,28.16,0,0,0,7.24,2.44c4.08.78,8.12,1.79,12.2,2.61,9.41,1.9,18.83,3.69,28.23,5.63,9.08,1.88,18.14,3.89,27.2,5.87,7.81,1.71,15.64,3.35,23.41,5.21,6.22,1.49,12.33,3.41,18.55,4.87,3.16.74,4.86,2.72,6.1,5.41Z"/><path d="M1437.6,893.8c0-.94-.41-2.05,0-2.78a62.26,62.26,0,0,1,3.59-5.64,107.45,107.45,0,0,0,15.22-35,49,49,0,0,0,1.27-10.45c.1-6.39-.19-12.79-.31-19.19-.19-10.23-.47-20.45,0-30.7a124.08,124.08,0,0,1,9.69-41.83,234.36,234.36,0,0,1,25.66-46c1.65-2.33,3.19-4.73,4.75-7.13,0-.07-.47-.67-.58-.63a10.51,10.51,0,0,0-2.54,1.11,180.26,180.26,0,0,1-21.27,13,122,122,0,0,1-26.85,10.2,82.87,82.87,0,0,1-25.68,2.37c-13.1-1-26.08-2.82-39-5.07-7.56-1.32-15.13-2.67-22.74-3.61-18.59-2.3-37-1-55.31,2.86-2.19.46-4.35,1.06-6.53,1.58-1.22.29-2.58-.07-2.52-.68a8.22,8.22,0,0,1,.58-2.58c.52-1.16,1.26-2.23,1.88-3.34a92.57,92.57,0,0,0,10.35-29.76,166.42,166.42,0,0,0,2.25-31.54c-.21-12.47,0-24.95.13-37.42a77.43,77.43,0,0,1,6.88-30.7c7-15.69,16.58-29.52,29.56-40.89,1.4-1.23,3.26-2.1,3.64-4.23l.18.2a7.56,7.56,0,0,0-2.75-.33c-2.46.67-4.85,1.62-7.27,2.43A205.76,205.76,0,0,1,1280.68,549a172.92,172.92,0,0,1-18.2-.79c-16.67-1.27-32.87-5-48.76-10a433.89,433.89,0,0,1-72.42-30.32c-1.68-.89-3.49-1.6-4.49-3.84.81-1.13,1.67-2.45,2.66-3.67,4-5,8.16-9.85,12.13-14.86a265.58,265.58,0,0,0,21.77-31.55c2.56-4.42,5.38-8.7,8.11-13,7.68-12.16,18-21.5,30.36-28.74,1.1-.65,2.21-1.29,3.34-1.88,7.08-3.68,6.69-3.11,7.47-10.78.55-5.4,1-10.82,1.36-16.23,0-.41-.72-.93-1.2-1.28-.19-.14-.66,0-.92.1a19.38,19.38,0,0,0-2.43,1.49c-1.79,1.35-3.52,2.76-5.28,4.15L1172,421a52.15,52.15,0,0,1-4.62,3.42,5.79,5.79,0,0,1-2.74.63,11.16,11.16,0,0,1-2.84-.37c-30.89-7-61.53-14.85-91-26.73a356.84,356.84,0,0,1-67.4-36.31c-1.17-.8-1.16-.82-.77-3.16,6.37,0,12.76-.06,19.15-.07,14.07,0,28.14.18,42.2-.1,16.3-.33,32.58-1.06,48.87-1.64,22.69-.82,45.3-2.57,67.91-4.63q43-3.91,85.73-9.62c12.34-1.65,24.66-3.52,37-5.36.37-.06.68-.89.9-1.42.07-.17-.16-.62-.37-.75a37.8,37.8,0,0,0-3.32-1.83c-4.92-2.31-9.88-4.52-14.78-6.87a411.36,411.36,0,0,1-39.7-21.28,142.74,142.74,0,0,1-27.48-22.32c-.88-.91-1.64-1.94-2.46-2.92a1.14,1.14,0,0,1,0-1.74,3.89,3.89,0,0,1,1.63-.57,2.56,2.56,0,0,1,.95.11c29.56,5.56,59.35,9.57,89.17,13.42,24.44,3.16,49,4.89,73.58,6.53,12.75.85,25.56.87,38.35,1.18q14.38.35,28.77.48c6.07.06,12.15.07,18.22-.07,13.42-.31,26.84-.72,40.26-1.12a26.16,26.16,0,0,0,2.82-.38c0-.69.15-1.53-.18-1.84-1.6-1.54-3.29-3-5-4.39a309.15,309.15,0,0,1-25.76-23A155.22,155.22,0,0,1,1449.42,226c-.69-1.43-1.43-2.88-.31-4.45l-.15.25c2.39-.11,4.23,1.27,6.22,2.27a616.4,616.4,0,0,0,70.55,30,530.18,530.18,0,0,0,60.72,17.71c18.13,4,36.34,7.5,54.88,8.95,12.76,1,25.54,1.3,38.34,1.19,44.32-.37,87.93-6.46,131.08-16.19a26.08,26.08,0,0,1,14.1.38c16.46,5.19,33,10.27,49.44,15.39l55,17c1.54.48,3,1,3.36,3-4.27,1.4-8.74,1.56-13.17,2a138,138,0,0,1-49.5-3.35q-9.74-2.54-19.5-5c-.93-.24-2.09-.25-2.4.74a4,4,0,0,0,.38,2.67,17.37,17.37,0,0,0,2.12,3.18,28.49,28.49,0,0,0,8.76,7.37,97.75,97.75,0,0,0,12.06,5.84,127.5,127.5,0,0,0,25,6.68c17.68,2.91,35.41,5.43,53.23,7.33q34.83,3.7,69.61,7.94a207.08,207.08,0,0,1,36.58,7.65,102.89,102.89,0,0,1,43.7,26.8,18.22,18.22,0,0,1,2.16,3.1c.14.22,0,.63,0,1-1.44,1.46-3.46,1.44-5.24,1.75-19.88,3.5-39.26,8.89-58.5,14.91q-18.3,5.72-36.79,10.84c-6.15,1.71-12.45,2.86-18.71,4.14a99.44,99.44,0,0,1-26.75,1.3,85.88,85.88,0,0,1-20.59-4.38c-1.8-.58-3.66-1-5.5-1.42-.28-.07-.86.09-.88.22a3.26,3.26,0,0,0,0,1.8c1.32,2.7,3.69,4.41,6.19,5.83a51.37,51.37,0,0,0,16.15,5.89c16.44,3,33,4.3,49.65,2.36,16.51-1.92,33-3.81,49.51-5.9C2065,411,2080,409.48,2095,409.45c8.61,0,17.25.8,25.84,1.6,18.88,1.77,37.15,6.5,55.16,12.22,12.43,4,21.61,12.12,28.35,23.15,5.75,9.41,6.1,19.3,2.49,29.51a37,37,0,0,1-1.48,3.54c-4.4,9.26-3.93,8.65-13.74,7.75-34.72-3.19-69.44-6.42-104.18-9.42q-29.64-2.55-59.34-4.38c-22.67-1.39-45.35-2.52-68-3.51-10.22-.45-20.46-.33-30.69-.4q-12-.09-24,0c-6.7,0-13.4.23-20.26.36.49.7.72,1.4,1.15,1.57a50.23,50.23,0,0,0,6.35,2.13A128.67,128.67,0,0,1,1920.38,484c16.76,8.36,31.83,19,44.48,32.9,7.11,7.8,14,15.77,20.94,23.76,6.28,7.26,12.4,14.65,18.61,22,1.24,1.46,2.59,2.84,3.81,4.32,13.3,16.14,30.23,27.4,48.86,36.37,2.3,1.11,4.68,2,7,3.09,3.77,1.69,3.08,3.29.3,5.46a67.21,67.21,0,0,1-23.13,11.32c-5.22,1.49-10.51,2.74-15.81,4-20.24,4.7-40.53,9.16-60.57,14.68q-25,6.88-49.19,16.12c-32.53,12.45-60.56,31.52-84.67,56.58A333.37,333.37,0,0,0,1788.69,769a61.57,61.57,0,0,0-9,23.09c-.46,2.84-1.34,5.61-1.82,8.44a54.86,54.86,0,0,1-8.79,21.1c-3.34,5.07-6.92,10-10.43,14.94a4.4,4.4,0,0,0-1,3.52,10.07,10.07,0,0,0-2.57,2c-1.1,1.43-2.37,2.71-3.4,4.19a1,1,0,0,1-1.37.6,1.21,1.21,0,0,0,1.37-.6c1-1.48,2.31-2.76,3.41-4.19.75-.79,1.64-1.43,2.42-2.19a7.91,7.91,0,0,0,2.52-1,152.57,152.57,0,0,0,19.55-22.35,30.09,30.09,0,0,0,4.72-9.37c1-3.38,2.12-6.73,2.81-10.16A49.09,49.09,0,0,1,1798,774.87a303.69,303.69,0,0,1,67.64-60.62,577.58,577.58,0,0,1,81.73-44.33c22-9.82,44.94-16.71,68.33-22.18a595.15,595.15,0,0,1,91.85-14.05c6.38-.47,12.76-.89,19.13-1.38a26,26,0,0,0,3-.6,7.78,7.78,0,0,0-.95-2.59,10.38,10.38,0,0,0-5.75-3.23c-3.77-.73-7.53-1.49-11.31-2.17-1.57-.28-3.19-.3-4.76-.58s-3.68.27-3.86-1.75c-.16-1.83,2.12-2.07,3.42-2.72,4.28-2.16,8.63-4.19,13-6.16A610.84,610.84,0,0,1,2186.71,587a634.66,634.66,0,0,1,119.83-25.67c16.84-1.91,33.74-3,50.69-3.46,21.47-.63,42.85.52,64.22,2.18a341,341,0,0,1,39.88,5.76c14.8,2.94,28.87,8.27,42.4,14.95,34.64,17.08,64.13,40.73,89.13,70.06a180.53,180.53,0,0,1,17.74,25A161.67,161.67,0,0,1,2621,696.35c.74,1.77,1.45,3.55,2.3,5.27a3.27,3.27,0,0,0,3,2,125.46,125.46,0,0,0,25.76-2.12,8.41,8.41,0,0,0,5.46-3.57,2.33,2.33,0,0,0-.28-3.35,66.8,66.8,0,0,1-6.1-4.62c-5.92-5.64-3.35-12.1,2.34-14.89,4.09-2,8.54-2.57,13-2.75q3.34-.14,6.68-.34c.69,0,1.3-1.65,1-2.33-3.25-6.4-8.27-10.46-15.44-11.63s-14.57-2.09-22-1.09a31.26,31.26,0,0,1-5.74.32,6,6,0,0,1-3.55-1.1c-5.92-5.44-11.14-11.48-14.72-18.76a34.34,34.34,0,0,1-3.27-14.86c0-1.66,1.33-2.78,3.21-2.61,1.59.15,3.18.31,4.76.57q11.83,2,23.66,4c1.89.32,3.78.68,5.67,1q23.22,3.7,46.44,7.38c1.57.25,3.13.61,4.69,1a3.13,3.13,0,0,1,2,2.9,68.11,68.11,0,0,1-1,7.59,98.42,98.42,0,0,1-12.42,31,137.28,137.28,0,0,1-11.84,16.28q-5.92,6.92-12.27,13.48c-7.85,8.09-6.9,5-7.59,16.48-.08,1.26-.33,2.52-.53,3.77a1.12,1.12,0,0,1-1.31,1.1,4.13,4.13,0,0,1-1.77-.41,13.07,13.07,0,0,1-4.19-5.14c-.87-1.69-1.71-3.39-2.61-5.05-.09-.17-.52-.24-.78-.23s-.76.1-.88.31a15.24,15.24,0,0,0-1.2,2.58c-1.11,3.33-2.09,6.71-3.26,10a87.17,87.17,0,0,1-23.23,35.85,239.11,239.11,0,0,1-31.51,25.06,29.63,29.63,0,0,0-8.68,8.72,159.45,159.45,0,0,1-22.15,26.42,130,130,0,0,1-27.59,20.62,80.16,80.16,0,0,1-30.93,9.58,143.89,143.89,0,0,1-35.41-.75c-10.75-1.56-21.46-3.43-32.07-5.93a196.05,196.05,0,0,1-37.88-13.44,392.73,392.73,0,0,1-46.8-26.27c-14.78-9.53-29.44-19.24-44.07-29q-21.55-14.38-43.6-28c-11.17-6.84-22.09-14.12-32.9-21.54a331.53,331.53,0,0,0-68.75-35.77c-4.47-1.73-9-3.22-13.52-4.88-2.38-.87-4.71-1.86-6.9-2.74a3.78,3.78,0,0,1,2.3-4.1,22.49,22.49,0,0,1,6.33-2c4.11-.56,8.27-.79,12.42-1,5.1-.29,10.21-.43,15.31-.66.24,0,.66-.29.66-.43,0-.6,0-1.41-.31-1.76-3.78-3.77-8.58-5.56-13.69-6.27a181.09,181.09,0,0,0-19.1-1.83,311.72,311.72,0,0,0-52.63,2.59,307.16,307.16,0,0,0-42.22,8.77,260.42,260.42,0,0,0-60.62,26.14,426.87,426.87,0,0,0-50.53,34.84c-34.77,27.77-68.33,56.93-99.93,88.28-8.17,8.11-16,16.52-23.84,25-2.71,3-5.51,5.22-9.58,5.75a18,18,0,0,0-6.14,2c.1,3.31,2,5.66,3.12,8.26,4.17,9.41,7.37,19.11,8.42,29.39a123.79,123.79,0,0,1,.14,23c-.21,2.53-.25,5.08-.34,7.62a.75.75,0,0,0,.45.58c.29,0,.82-.06.89-.24,2.91-7.78,5.74-15.59,8.67-23.37a445.94,445.94,0,0,1,20.15-46.63,95.1,95.1,0,0,1,23.1-29.12,14.87,14.87,0,0,1,3.19-2c.46-.22,1.18.08,1.88.16.67,7,1.2,14,2,21,.62,5.07,1.49,10.12,2.54,15.12,3.29,15.72,10.68,29.36,21.34,41.28,3.84,4.29,7.79,8.49,12.56,11.78.36.25,1.15-.08,1.71-.25.13,0,.23-.56.16-.79q-1.35-4.09-2.78-8.16c-4.43-12.71-8-25.64-9.48-39.06-1.1-9.74,1.06-25.17,4.79-33.87a.84.84,0,0,1,.67-.42,3.42,3.42,0,0,1,1.66.65,11.41,11.41,0,0,1,1.63,2.34c14.31,25.16,32,47.82,51.41,69.19a571.22,571.22,0,0,0,80.31,72.62c25.33,19,51.48,36.85,78.06,54.06,22,14.25,44.24,28.15,66.86,41.42a42.18,42.18,0,0,1,11,9,213.9,213.9,0,0,0,20.16,20.53c3.57,3.2,7.29,6.23,11,9.29a34.93,34.93,0,0,0,15.28,7.66c3.13.65,6.21,1.55,9.35,2.13a27.73,27.73,0,0,1,12.74,6.3c3.77,3.1,5.15,6.8,4.68,11.79-1.37,14.7-3.49,29.22-8.45,43.19-1.17,3.31-2.48,6.58-3.92,9.78a65.69,65.69,0,0,1-17.76,23.54,143.91,143.91,0,0,1-20.41,14.29,188.26,188.26,0,0,1-25.87,12.56c-8,3.16-16.17,6-24.27,9q-11.71,4.28-23.46,8.44a9.29,9.29,0,0,1-2.8.09l.16.22c.17-.9.08-2,.56-2.66,1.69-2.33,3.6-4.49,5.38-6.75a171.73,171.73,0,0,0,15.62-23,94,94,0,0,0,6.73-14.82c4.58-13.27,2.44-25.82-3.82-38a2.06,2.06,0,0,0-1.44-1,2,2,0,0,0-1.57.79c-1.18,2.26-2.13,4.63-3.31,6.9-2.06,4-4.06,8-6.39,11.79a59.48,59.48,0,0,1-5.78,7.63c-5.34,6.2-12.28,9-20.36,9.07a58.33,58.33,0,0,1-7.66-.41c-5.39-.68-10.84-1.18-16.13-2.37a221.65,221.65,0,0,0-33.21-4.73,8.77,8.77,0,0,1-2.75-.69,2.36,2.36,0,0,1-1.3-1.27,28.39,28.39,0,0,1-.82-4.66,141.71,141.71,0,0,0-5.74-29.1,113.27,113.27,0,0,0-33.71-52.63,203.45,203.45,0,0,0-94.61-46.06,122.82,122.82,0,0,0-48.6,0c-34.8,7.26-67.37,19.91-97.07,39.63a230.2,230.2,0,0,0-31.4,25.18c-21.14,20.13-39.93,42.32-57.23,65.79a674.68,674.68,0,0,0-45.79,70.84c-1.41,2.51-2.79,5-4.39,7.42-.36.54-1.59.49-2.52.74-1.58-7.51-1.65-14.88-1.88-22.2a292.25,292.25,0,0,1,4.53-61.14,252.85,252.85,0,0,1,10.44-38.87c3.7-10.55,7.61-21,11.5-31.52,4-10.79,8.42-21.43,11.51-32.53.7-2.53,2.24-3.5,4.72-4,6-1.12,11.92-2.33,17.8-3.83a189.5,189.5,0,0,0,39.5-14.6,135.27,135.27,0,0,0,22.63-14.39,73.44,73.44,0,0,0,18.52-21.78,134.76,134.76,0,0,0,12.74-32c1.47-5.55,3.39-11,3.76-16.83.05-.83-.25-1.28-.87-1.24a1.17,1.17,0,0,0-.81.31c-.91,1.31-1.77,2.65-2.63,4-3.63,5.64-7.15,11.37-10.92,16.91a151.57,151.57,0,0,1-14.56,17.81,103.4,103.4,0,0,1-51.21,30.47,260,260,0,0,1-34.9,6.19c-11.43,1.3-22.87,2.55-34.32,3.65a151.05,151.05,0,0,0-55,15.76,13.12,13.12,0,0,1-2.67.88.9.9,0,0,1-.7-.37,1.22,1.22,0,0,1-.27-.88,23.17,23.17,0,0,1,1.17-3.63,301.59,301.59,0,0,0,16.79-45.87,182.88,182.88,0,0,0,7.2-50.16,238.92,238.92,0,0,1,2.43-35.39A78.41,78.41,0,0,1,1621,914.72c1.93-2.94,4.05-5.75,6.14-8.58,1.52-2.06,3-4.13,4.69-6.08,9.32-11,13.28-23.88,13.82-38,.21-5.42.74-10.88-1.13-16.15a1,1,0,0,0-.63-.48c-.29-.07-.75-.1-.91.07-.88.91-1.72,1.85-2.53,2.83-3.45,4.2-6.68,8.59-10.35,12.58-12.21,13.29-27.26,20.85-45.37,22.23a270.82,270.82,0,0,1-27.79.78c-12.47-.33-24.92-1.1-37.38-1.61-28-1.15-55.53,1.83-82.1,11.37Z"/><path d="M1051.24,1192c.11,1.21.5,2.22.24,3-1.09,3.34-2.38,6.6-3.58,9.9a236.27,236.27,0,0,0-12.27,53.1,139.88,139.88,0,0,0,.64,38.21q2.22,14.2,4.25,28.42c1.28,8.88,1.92,17.8.45,26.72a52.1,52.1,0,0,1-2,8.38,34.83,34.83,0,0,1-10.16,14.86,55.57,55.57,0,0,1-16.33,9.85,98.51,98.51,0,0,1-24.1,6.06,213.32,213.32,0,0,1-27.71,1.8c-16.3,0-32.57-.84-48.86-1.35-21.5-.67-42.78.91-63.42,7.6a1.91,1.91,0,0,1-2.56-1.81c.06-.64.08-1.28.18-1.91a368.32,368.32,0,0,0,4.24-44.82,428.26,428.26,0,0,1,4.77-49.6,166.51,166.51,0,0,1,12-42.28c.78-1.75,1.6-3.48,2.44-5.2q15.69-32.09,49.18-44.52c13.56-5.07,27.64-7.8,42-9.24,13.67-1.36,27.39-1.78,41.14-1.83,10.84,0,21.74.27,32.47-1.87,3.75-.75,7.49-1.57,11.24-2.35C1047.35,1192.76,1049.2,1192.4,1051.24,1192Z"/><path d="M793.75,1593.43c.62-1.88,1.23-4,2-6.08a113.86,113.86,0,0,0,6.61-25c1-7.29,1.9-14.59,2.88-21.88,1.57-11.73,3-23.49,4.81-35.18a144.59,144.59,0,0,1,9.1-32.25,92.54,92.54,0,0,1,7.45-14.49,65.22,65.22,0,0,1,39.12-29,118.37,118.37,0,0,1,28.43-3.89c9.28-.23,18.54.23,27.81.57,11.5.41,23,1.2,34.52.84,20.68-.64,40.56-4.94,60-11.9,1.5-.54,3-1.13,4.47-1.74s3.25-1.74,4.51-.79.46,3-.05,4.42a73.67,73.67,0,0,0-3,15,204.4,204.4,0,0,0-1.28,22c-.44,23.52-4.09,46.5-12.22,68.65A130.1,130.1,0,0,1,986,1562.47c-14.73,17.37-33,29.06-55.11,34.71a162.94,162.94,0,0,1-31.23,4.79,285.43,285.43,0,0,1-45-1c-18.46-1.87-36.94-3.61-55.4-5.44C797.36,1595.36,795.35,1595.49,793.75,1593.43Z"/><path d="M926.66,1166.17c-1.33-.55-1.56-1.1-1.12-1.8,1-1.62,2-3.24,3.1-4.8A68.54,68.54,0,0,0,939.07,1136a50,50,0,0,0,1.46-14.25c-.38-7.66-.59-15.33-1-23a193.49,193.49,0,0,1,.74-28.73,123.54,123.54,0,0,1,8.5-36.26,82,82,0,0,1,33.62-39.44,140.05,140.05,0,0,1,37.86-15.93,200.72,200.72,0,0,1,42.59-6.17c14.1-.61,28.12.28,42.13,1.54a125.23,125.23,0,0,0,33.43-1.08c4.4-.79,8.74-1.88,13.12-2.77,1.14-.23,2.7-1.34,3.33.27.37.94-.19,2.47-.75,3.5a224,224,0,0,0-16.31,37.78,175.5,175.5,0,0,0-5.33,20.39c-2.22,11.3-3.84,22.69-5.4,34.09a217.59,217.59,0,0,1-7.3,34.67c-1.13,3.66-2.34,7.31-3.8,10.84a73,73,0,0,1-33.28,37.05,111.39,111.39,0,0,1-32.41,11.45,186.74,186.74,0,0,1-28.53,3.26c-11.5.47-23,.45-34.5.37a513.26,513.26,0,0,0-57.42,2.42C928.54,1166.2,927.29,1166.15,926.66,1166.17Z"/><path d="M1051.56,1502.6c1-13.1,2.08-25.85,4.19-38.49a135.23,135.23,0,0,1,9-31.24,90,90,0,0,1,7.21-13.52c9.8-15.09,23.18-25.34,40.55-30.34a151,151,0,0,1,25.4-4.83c9.53-1,19.09-1.82,28.62-2.84,5.08-.54,10.13-1.34,15.2-2a107.7,107.7,0,0,0,27.63-7.72c6.78-2.85,13.43-6,20.11-9.08,5.23-2.41,10.39-5,15.63-7.34a113.23,113.23,0,0,1,35.08-9.29,131.41,131.41,0,0,1,13.41-.25A2.61,2.61,0,0,1,1296,1349a36.65,36.65,0,0,1-1,3.7,387,387,0,0,0-13.53,47c-2.3,10.29-4,20.72-5.93,31.1a164.6,164.6,0,0,1-9,32.27,83.16,83.16,0,0,1-27.75,36,136.14,136.14,0,0,1-29.2,16.39,222.24,222.24,0,0,1-43.19,12.59,443.93,443.93,0,0,1-48.46,6.33c-11.15.93-22.31,1.62-33.47,2.44a105.24,105.24,0,0,0-28.9,6.52c-2.4.89-4.78,1.8-7.18,2.68-.62.23-1.88-1-1.8-1.79.1-1,.15-1.91.31-2.85C1049.16,1528.37,1050.4,1515.32,1051.56,1502.6Z"/><path d="M1072.62,1368.43c-.67-1.35,0-2.46.53-3.62a48.74,48.74,0,0,0,4.17-28.05c-.3-2.22-.48-4.45-.87-6.65-1.5-8.5-3-17-4.6-25.47-2-10.69-3.82-21.41-4.34-32.28-.84-17.44.69-34.61,8.08-50.67,14.69-31.91,38-54.07,72.65-63.17a170.39,170.39,0,0,1,37.91-5.11,241,241,0,0,1,35.41,1.92c10.49,1.2,21,2.56,31.56,1.69a17.51,17.51,0,0,1,1.92,0c2.47.07,3.61,1.3,3.2,3.48a45.19,45.19,0,0,1-1,4.69c-2.7,8.91-3.95,18.12-5.38,27.28-.79,5-1.3,10.15-1.68,15.25-.94,12.44-1.77,24.88-2.59,37.33-.67,10.23-2.05,20.36-3.65,30.47a123.08,123.08,0,0,1-6.73,25,92.8,92.8,0,0,1-4.82,10.43,60.72,60.72,0,0,1-30.58,27.87,100.06,100.06,0,0,1-24.93,6.71q-11.37,1.68-22.84,2.73c-20.49,1.89-40.31,6.75-59.8,13.16-5.77,1.9-11.44,4.08-17.17,6.08C1075.65,1368,1074.25,1368.83,1072.62,1368.43Z"/><path d="M1239.09,759a30,30,0,0,1-1.3,3.34,173.34,173.34,0,0,0-10,22.8,187.54,187.54,0,0,0-9.2,36.16q-3,21.36-6.17,42.7a123.14,123.14,0,0,1-6.58,26,100.17,100.17,0,0,1-4.75,10.44,43.05,43.05,0,0,1-10.87,13.25,117.45,117.45,0,0,1-28.52,17.45c-14.15,6.19-29,9.89-44.15,12.42a406.56,406.56,0,0,1-44.78,4.5q-26.81,1.46-53.39,5.07a14.79,14.79,0,0,1-3.76.07c-.43-.05-.95-.83-1.09-1.36a3.79,3.79,0,0,1,.16-1.88c4.85-17.6,7.82-35.58,10.42-53.6,1.78-12.35,3.77-24.65,6.42-36.82,3.27-15,7.55-29.72,14.1-43.68A115.61,115.61,0,0,1,1059,793.78a78.77,78.77,0,0,1,32.42-24.7,122.19,122.19,0,0,1,30.48-8.09,249.22,249.22,0,0,1,40.14-2.07c12.79.31,25.54,1,38.29,2a109.55,109.55,0,0,0,35.2-2.82,7.8,7.8,0,0,1,2.71.07C1238.49,758.16,1238.68,758.58,1239.09,759Z"/><path d="M641.3,1345.22a300.8,300.8,0,0,1,3.5-30.3,117.56,117.56,0,0,1,8.65-28.33A84.52,84.52,0,0,1,688,1247.87a120.19,120.19,0,0,1,35.52-14,184.67,184.67,0,0,1,37.06-4.23c10.25-.22,20.43.57,30.64,1.22a344.35,344.35,0,0,0,34.49.74c2.87-.11,5.75,0,8.62.12,2.05.06,2.88,1.46,1.9,3.13-1.29,2.2-2.66,4.36-3.92,6.58a73.61,73.61,0,0,0-9.76,33.74c-.11,2.55-.19,5.11-.21,7.67q-.09,12-.11,24a190.43,190.43,0,0,1-5.86,47.45,102.65,102.65,0,0,1-9.82,24.88,73.94,73.94,0,0,1-22.29,24.69,132.79,132.79,0,0,1-29.47,15.86c-15.62,5.85-31.57,7.58-48,4.05-7.5-1.61-15.07-2.86-22.62-4.21-8.56-1.53-17.2-1.27-25.81-.8-9.25.5-18.44,1.66-27.6,3.07a37,37,0,0,1-6.62.17,1,1,0,0,1-.84-1.37,31,31,0,0,1,1.61-3.44c1.41-2.5,3-4.93,4.36-7.44a78.09,78.09,0,0,0,9.94-33.72C639.72,1367.07,640.4,1358.14,641.3,1345.22Z"/><path d="M1591,911.39a18.53,18.53,0,0,1-.49,2.57c-1.69,5.16-3.51,10.27-5.14,15.45a204.09,204.09,0,0,0-6.92,29.85c-1.72,11.05-3.42,22.11-5.38,33.12-2.25,12.59-5,25-9.44,37.1a91.39,91.39,0,0,1-8.26,17.25,46.54,46.54,0,0,1-15.55,15.34,87.62,87.62,0,0,1-25.65,10.4,137,137,0,0,1-25.59,3.47,342.25,342.25,0,0,1-42.13-1c-14-1.15-28-2.07-42.11-2.18a344.27,344.27,0,0,0-42.07,2.19,37.16,37.16,0,0,1-5.7.14c-.41,0-1.2-.9-1.12-1.19a24,24,0,0,1,1.61-4.49,267.21,267.21,0,0,0,17.39-46.61c2.67-9.53,4.92-19.18,7.52-28.74a177.66,177.66,0,0,1,10.56-29.76c1.1-2.31,2.16-4.63,3.36-6.88a80.46,80.46,0,0,1,35.72-34.94,152.55,152.55,0,0,1,38-12.83,270.25,270.25,0,0,1,46.61-5,411.87,411.87,0,0,1,65,3.63c2.83.37,5.64,1,8.42,1.64C1590.17,910,1590.5,910.76,1591,911.39Z"/><path d="M1365.18,937.93c.33.62.87,1.17.82,1.67a8.92,8.92,0,0,1-.84,2.7c-5.46,12-8.62,24.7-10.64,37.71-1.92,12.32-3.77,24.66-6.06,36.91-3,16.06-7.28,31.77-14.5,46.54-7.87,16.11-18.86,29.59-33.7,39.8-4,2.72-7.87,5.5-11.92,8.05-3.78,2.38-7.68,4.61-11.62,6.71a60.14,60.14,0,0,1-35.25,6.74c-7.64-.79-15.21-1.89-22.75-3.41a215.62,215.62,0,0,0-22.73-3.49c-14.47-1.33-28.69.78-42.71,4.35-2.77.71-5.54,1.42-8.33,2.09a1.32,1.32,0,0,1-.89-.22,1.24,1.24,0,0,1-.48-1.67c2.57-6.88,5.34-13.69,7.64-20.66a128.35,128.35,0,0,0,5.95-26.14q1.31-11.92,2.55-23.85a225.79,225.79,0,0,1,4.63-29.34,107.78,107.78,0,0,1,16.05-36.66,128.41,128.41,0,0,1,31-31.13c9.23-6.66,19.66-10.62,30.72-12.92a143.59,143.59,0,0,1,31.45-2.79c12.79.18,25.56.85,38.3,2.09a163.73,163.73,0,0,0,47.71-2.24C1361.42,938.41,1363.32,938.21,1365.18,937.93Z"/><path d="M1013,813.42c-.89,3.07-2.09,7.38-3.39,11.65-4.65,15.33-7.72,31-10.3,46.79a384,384,0,0,1-8.18,38.43A142.75,142.75,0,0,1,980.56,938a82.63,82.63,0,0,1-29.92,33,130.67,130.67,0,0,1-29.5,13.66A219.57,219.57,0,0,1,880,993.39q-17.59,2.18-35.26,3.66A453.28,453.28,0,0,0,785,1005.8a13.76,13.76,0,0,1-3.78.25c-.44,0-1.24-.85-1.17-1.16a13.47,13.47,0,0,1,1.23-3.6,219.18,219.18,0,0,0,16.07-38.92c3-9.77,5.48-19.7,8-29.6,3.88-15.17,7.5-30.4,12.53-45.25a181.72,181.72,0,0,1,12.38-29.06,118.66,118.66,0,0,1,11.09-16.77c12.62-15.94,29.21-24.43,49.28-26.38a107.89,107.89,0,0,1,19.15-.4c9.24.75,18.49,1.31,27.74,2q6.7.49,13.38,1.13c17.76,1.7,35.06-.66,52.09-5.66,2.76-.81,5.51-1.66,8.27-2.45C1012.64,809.53,1013.61,810.65,1013,813.42Z"/><path d="M916.86,1023.33c-2.24,7.16-3.32,16.06-4.87,24.86a133.77,133.77,0,0,0-1.91,18.1c-.42,10.86-.84,21.72-1.39,32.57a197.75,197.75,0,0,1-5.58,39.81,101.48,101.48,0,0,1-6.85,18.88,69.21,69.21,0,0,1-32.53,32.65c-11,5.44-22.74,8.44-34.82,10.11a242.76,242.76,0,0,1-39.2,1.92c-12.14-.3-24.26-1-36.39-1.65-15-.82-30-.46-44.89,2.21a39,39,0,0,1-5.71.54c-.33,0-1-.9-1-1.34a14.83,14.83,0,0,1,.76-3.71c5.68-16.3,10.4-32.87,14.54-49.63,4-16.12,8.24-32.18,14.29-47.7a165.74,165.74,0,0,1,11.91-25.06c1.64-2.74,3.33-5.45,5.12-8.1,13.07-19.37,31-31.92,53.56-37.87a152.34,152.34,0,0,1,28.32-4.71c9.87-.68,19.78-.92,29.67-1.18,16.61-.44,33.2-1.07,49.61-4,1.57-.28,3.16-.48,4.74-.69C916.31,1019.08,917.45,1020.1,916.86,1023.33Z"/><path d="M1222.24,921.71c1.48-3.7,2.26-5.76,3.12-7.78A165.52,165.52,0,0,0,1236,877.18c3.62-20.8,8.09-41.42,14.44-61.59a182.25,182.25,0,0,1,12.64-31,116.49,116.49,0,0,1,9.72-15.39c11.86-15.77,27.53-25.54,46.8-29.49a117.16,117.16,0,0,1,22.86-2.23,183.76,183.76,0,0,1,38.11,3.79c9.71,2,19.48,3.72,29.43,4.09,5.11.19,10.22.53,15.33-.16a30.12,30.12,0,0,1,4.78,0,2.3,2.3,0,0,1,1.8,1.91c0,1,0,1.91,0,2.86-.77,12.13-1.32,24.25-1.32,36.42,0,15.66-.5,31.34-2.65,46.91a174.73,174.73,0,0,1-7,30.82,88.14,88.14,0,0,1-7.91,17.43,53.94,53.94,0,0,1-27.19,23.24,111.59,111.59,0,0,1-25,6.49,228,228,0,0,1-34.4,2.49c-13.75-.05-27.49-.31-41.24-.28-11.51,0-23,.24-34.45,1.75a117.71,117.71,0,0,0-22.47,4.74C1226.85,920.5,1225.31,920.85,1222.24,921.71Z"/><path d="M1265.19,1319.81c-1.22-1.78-.78-3.35-.38-4.88,1.14-4.32,2.38-8.62,3.5-13a304.82,304.82,0,0,0,8.15-49.16c1.44-15.93,3.29-31.82,5.79-47.61a195.06,195.06,0,0,1,9.83-38,122.55,122.55,0,0,1,9.06-19,74.28,74.28,0,0,1,29.37-28.21A118.78,118.78,0,0,1,1362,1108.6a193.52,193.52,0,0,1,35.16-4.28,181.06,181.06,0,0,1,21.08.37c1.27.11,2.53.37,3.78.59a2.15,2.15,0,0,1,1.47,2.1c-.94,3-1.78,6.12-2.86,9.12a231.75,231.75,0,0,0-8,29.61c-1.61,7.52-2.52,15.13-1.61,22.87.41,3.49.57,7,.71,10.52a72.23,72.23,0,0,1-3,24.62,297.41,297.41,0,0,1-23.31,54.57,64.38,64.38,0,0,0-2.68,6c-.06.15.34.72.53.72a4.12,4.12,0,0,0,1.85-.29c2.56-1.3,5.07-2.71,7.62-4a367.85,367.85,0,0,1,36.49-17c14.42-5.71,29.45-8.43,44.86-9.28.63,0,1.27.07,1.91.1a2.07,2.07,0,0,1,2.12,2.47,24,24,0,0,1-.78,2.76c-6,14.53-13.18,28.42-22.79,40.93a123.83,123.83,0,0,1-9.45,10.83,60.92,60.92,0,0,1-25.9,15.87,156.24,156.24,0,0,1-31,6.22,376.11,376.11,0,0,1-44.06,1.41c-13.74-.22-27.5-.53-41.24-.24a160.91,160.91,0,0,0-30.44,3.46C1270,1319.12,1267.52,1319.43,1265.19,1319.81Z"/><path d="M1008.23,613.69c8.15,4.46,16.19,8.41,24.9,10.71,3.39.9,6.79,1.83,10.25,2.44a134.63,134.63,0,0,0,38.23,1.06c6-.66,12-1.51,18.07-2.27.95-.12,1.9-.2,2.86-.28a2.89,2.89,0,0,1,3.34,2.56c0,.64.07,1.28,0,1.92-1.54,31.16-9.25,60.6-24.82,87.77a156.06,156.06,0,0,1-36.36,43,120,120,0,0,1-51.28,24.89,191.51,191.51,0,0,1-36.13,4.21c-18,.52-35.78-1.52-53.47-4.39a249.83,249.83,0,0,1-31.74-7.43,2.78,2.78,0,0,1-1.71-3.83c1-2,2-4,3.15-5.92,12.41-21.64,24.09-43.66,35.28-65.94,4.59-9.13,9.54-18.09,14.5-27,2.17-3.91,4.7-7.61,7.18-11.34a107.22,107.22,0,0,1,33.72-32.23A146.4,146.4,0,0,1,1008.23,613.69Z"/><path d="M699.27,1099.23c-4.39,16.59-8.29,31.43-12.25,46.26-2.56,9.57-5,19.17-7.86,28.67a151.46,151.46,0,0,1-9.92,24.91c-11.07,22.07-28.72,35.46-52.79,40.57a159.62,159.62,0,0,1-26.63,3.1c-13.48.56-26.84-.85-40.23-1.85-6.7-.5-13.39-1.06-20.09-1.54a164.26,164.26,0,0,0-37.29,1.69,13.22,13.22,0,0,1-3.77,0,1.71,1.71,0,0,1-1.08-1.28,32.89,32.89,0,0,1,.6-5.67q5.23-23.91,8.92-48.1c1.43-9.49,3-19,4.77-28.39a161.51,161.51,0,0,1,8.83-31.33,81.36,81.36,0,0,1,9.69-17.59c9.91-13.39,23.08-20.8,39.79-21.91a111.09,111.09,0,0,1,19.16.11c15,1.59,30,2.05,45,2.7,12.46.54,24.93.72,37.4,1.11q16.3.51,32.6,1.14c1.59.06,3.17.36,4.75.57a2.28,2.28,0,0,1,1.52,2.12C699.88,1096.66,699.36,1098.82,699.27,1099.23Z"/><path d="M608.75,1059.79c-8.38-1.1-18.23-2.29-28-3.71a82.61,82.61,0,0,0-25.77.62,1.56,1.56,0,0,1-1.63-1.79c.09-.3,0-.67.16-.94,4.49-8.38,5.84-17.48,6.47-26.83.52-7.65,1.3-15.32,2.47-22.9,2.61-16.83,7-33.15,14.69-48.47a103.26,103.26,0,0,1,22-30c1.17-1.09,2.38-2.14,3.57-3.2,12.74-11.27,27.58-15.56,44.42-13.71,8.64.95,17,3.21,25.3,5.45,6.17,1.66,12.28,3.58,18.42,5.37q4.14,1.21,8.29,2.39c20.07,5.69,40.44,5.57,60.93,3.19l8.57-1a2.46,2.46,0,0,1,2.47,2.34,154,154,0,0,1-6.89,52.06A80.63,80.63,0,0,1,749,1006.18a123.8,123.8,0,0,1-21,19.58,7.87,7.87,0,0,0-1.62,2.23.84.84,0,0,0,.11.8,33.91,33.91,0,0,0,5.17,2.42c2.43.74,5,1.11,7.46,1.68.16,0,.3.44.33.69a1.34,1.34,0,0,1-.15.9,6.33,6.33,0,0,1-1.4,1.29c-17.47,10.93-36,19.48-56.14,24.16a134.89,134.89,0,0,1-36.18,3.37C633.7,1062.81,621.88,1062.21,608.75,1059.79Z"/><path d="M1282.21,665.18c-1.38,13.23-2.29,22.47-5.5,31.27a94.24,94.24,0,0,1-3.52,8.9,47.34,47.34,0,0,1-23.43,23.05,80.77,80.77,0,0,1-22,6.37,167.67,167.67,0,0,1-24.83,1.77c-10.56,0-21.08-.63-31.62-1.17-17.55-.91-35.13-1.72-52.7-.3-5.73.46-11.44,1.09-17.16,1.63-1.84.17-2.81-1.34-2-3.09.41-.87.88-1.7,1.3-2.56,2.24-4.59,4.55-9.16,6.7-13.79a299.8,299.8,0,0,0,16.4-44c1.83-6.45,3.28-13,4.68-19.58,2.13-10,4.26-20,7.24-29.8a178.84,178.84,0,0,1,6.21-17.1,72.35,72.35,0,0,1,17.73-24.77,138.21,138.21,0,0,1,22-16.95c6.53-4,13.26-7.7,19.94-11.48a6.63,6.63,0,0,1,5.57-.41c3.32,1.14,6.65,2.28,9.93,3.53a280.59,280.59,0,0,0,33.9,10.33,115.33,115.33,0,0,0,14.18,2.33c8.57,1,17.18,1.72,25.76,2.6a8.06,8.06,0,0,1,2.73.73,1.68,1.68,0,0,1,.67,1.48,27.23,27.23,0,0,1-1.72,4.43c-7.64,15.24-10.16,31.51-9.85,48.37C1283.07,641.09,1283.29,655.16,1282.21,665.18Z"/><path d="M1106.24,1691.37c-2.5,1.92-4.73,3.7-7,5.39a408.24,408.24,0,0,0-32.54,26.87c-27.17,24.77-47.39,54.33-61.41,88.24a384.66,384.66,0,0,0-17.79,53.65,1.85,1.85,0,0,1-1.19,1.14,3,3,0,0,1-1.65-.56c-.24-.13-.37-.5-.52-.78-.44-.85-.91-1.69-1.29-2.57-12.6-29.2-21.77-59.37-26-91-3.72-27.81-2.85-55.5,1.48-83.15A216,216,0,0,1,970,1645.19a75.84,75.84,0,0,1,15.13-24.25,126.05,126.05,0,0,1,25-20.8,172.44,172.44,0,0,1,75.26-26.64,106.32,106.32,0,0,1,16.26-.94,2.38,2.38,0,0,1,2.39,2.4c-.14,1.59-.32,3.17-.52,4.76-.9,7.3-1.85,14.6-2.7,21.9-1.83,15.64-1.4,31.29-.11,46.93q1.5,18.16,4.61,36.13C1105.71,1686.55,1105.87,1688.46,1106.24,1691.37Z"/><path d="M586.8,898.92a7,7,0,0,1-.11,2.11,4.06,4.06,0,0,1-1.23,1.42c-14.84,12-31.26,21-49.73,26.15a100.13,100.13,0,0,1-31.32,3.55,309.09,309.09,0,0,1-52.27-6.75c-15-3.27-29.87-7-44.75-10.79a213,213,0,0,0-34.9-6.28c-1.27-.1-2.54-.28-3.81-.45a1.86,1.86,0,0,1-1.6-2.7,18.87,18.87,0,0,1,.91-1.68c11.85-17.12,21.72-35.4,31.7-53.64,5.83-10.65,12-21.11,18.3-31.51a179.07,179.07,0,0,1,15.56-21.86,61.21,61.21,0,0,1,19.17-15.7,48.78,48.78,0,0,1,14.46-4.93,4.38,4.38,0,0,1,3.66.52c.62.48.28,1.61-1.07,3.22-.82,1-1.7,1.92-2.49,2.92-1.58,2-3.17,4-4.67,6.09a39.3,39.3,0,0,0-7.52,25.24,1.89,1.89,0,0,0,1,1.37,2,2,0,0,0,1.72-.2c10.65-9.33,23.5-12.42,37.18-13.42,14.19-1,28.1.87,41.91,3.72,28.22,5.83,55.7,14.34,83,23.46q1.82.61,3.59,1.33c2.41,1,2.91,2.2,1.83,4.35a89.36,89.36,0,0,1-17.37,24c-5.48,5.36-11.21,10.5-17.13,15.37C584.37,879.07,577.6,883.91,571,889a17,17,0,0,0-2.77,2.57,2.05,2.05,0,0,0,0,1.74,3.51,3.51,0,0,0,1.29,1.34,23.9,23.9,0,0,0,11.65,4C583,898.82,584.92,898.84,586.8,898.92Z"/><path d="M705.46,897.47a94.43,94.43,0,0,1-22.41-5C667.93,887.4,653,881.8,638,876.39c-.77-.28-1-1.76-.34-2.47,1.29-1.41,2.59-2.81,3.93-4.17a154.68,154.68,0,0,0,35.31-55.31c4-10.77,7.57-21.71,11.42-32.54a226.54,226.54,0,0,1,10-23.84c7.75-15.82,19.63-27.35,35.44-35a138.66,138.66,0,0,1,35.5-11.27,12.51,12.51,0,0,1,9.12,1.82,120.73,120.73,0,0,0,25.19,11.57,89.63,89.63,0,0,0,14.93,3.37,158.09,158.09,0,0,0,36.33.81c.95-.08,1.9-.09,2.85-.12a2,2,0,0,1,1.71,1.91A15.38,15.38,0,0,1,859,734a78.15,78.15,0,0,1-19.08,32.8c-10.75,11-22.71,20.6-35.13,29.63-2.33,1.69-4.69,3.33-7,5.09a1.8,1.8,0,0,0-.45,1.59,2.15,2.15,0,0,0,1.24,1.28c4.78,1.3,9.51.5,14.19-.59,3.42-.8,6.76-1.93,10.16-2.81,6.14-1.6,12-.59,17.73,1.94.41.18.57,1,.72,1.61a1,1,0,0,1-.33.86c-1.3.9-2.65,1.75-4,2.61-4,2.61-8.14,5.07-12,7.85a86.52,86.52,0,0,0-21.85,22.63,223.48,223.48,0,0,0-18.43,34.62c-4.3,9.81-1.81,7.88-12.13,12-14.27,5.73-29,10.06-44.28,11.95C720.77,898,713.12,898.51,705.46,897.47Z"/><path d="M741.46,675a8.15,8.15,0,0,1,.75-2.67c1.52-2.05,3.26-3.94,4.86-5.93,12.93-16.11,23-33.75,29-53.65,2.29-7.64,4.95-15.19,7.69-22.69a104.55,104.55,0,0,1,20.37-33.36,182.22,182.22,0,0,1,25.47-23.25c8.62-6.66,18.48-10.06,29.16-11.16a82.84,82.84,0,0,1,19.15-.14c8.56,1.1,17.18,1.87,25.67,3.39q14.66,2.62,29.43,4.17c1.9.2,3.79.52,5.68.84a2.8,2.8,0,0,1,2,2.86,42.4,42.4,0,0,1-2.45,13.13A56.43,56.43,0,0,1,931,560a201.59,201.59,0,0,1-20.6,24c-1.56,1.59-3.08,3.23-4.58,4.88-.17.19-.13.58-.17.89a1.06,1.06,0,0,0,1,1.3c3.5.14,7,.42,10.52.25A126.63,126.63,0,0,1,942,592.89,66.71,66.71,0,0,1,963,599.46a1.75,1.75,0,0,1,.24,1.61,34.13,34.13,0,0,1-4.55,3.41c-9.33,5.59-18.45,11.51-27.24,17.92a230.36,230.36,0,0,0-22.17,18.31,85.75,85.75,0,0,0-20.48,28.66c-1.39,3.23-2.81,6.45-4.32,9.62-1.37,2.88-2.81,5.74-4.35,8.54-5.86,10.7-15.22,15.88-27.05,17.47-9.84,1.33-19.07-1-28.25-3.93-4.26-1.35-8.47-2.92-12.59-4.65-10.93-4.6-22.29-7.87-33.68-11S755.7,679.17,744.3,676C743.38,675.8,742.52,675.38,741.46,675Z"/><path d="M954.38,578c-.08-.79-.41-1.56-.16-2,1-1.63,2.14-3.16,3.27-4.7a87.81,87.81,0,0,0,15.88-34.58c1.37-6.56,3.19-13,4.93-19.52a92.72,92.72,0,0,1,9.94-22.78,238.15,238.15,0,0,1,23.19-32.89c14-16.69,31.5-28.88,51.38-37.71a24.31,24.31,0,0,1,3-.87c4.6,1.84,9.35,3.7,14.06,5.64A234.15,234.15,0,0,0,1108,438a112.94,112.94,0,0,0,21.79,3.28c4.79.33,9.58.53,14.37.81a2,2,0,0,1,1.47,2.83c-.73,1.42-1.46,2.84-2.29,4.2-9,14.79-19,28.88-30.73,41.59-8.91,9.62-18.1,19-27.17,28.44-.88.92-1.85,1.78-2.64,2.77a2.26,2.26,0,0,0-.47,1.68,2,2,0,0,0,1.16,1.22,13.45,13.45,0,0,0,2.8.56c15.85,2.16,31.68,4.36,47.54,6.43a120.17,120.17,0,0,1,34.94,10.57c-.33,1-.37,2.07-.95,2.58a30.22,30.22,0,0,1-4,2.63,85.39,85.39,0,0,0-21.4,19c-2.79,3.5-5.58,7-8.58,10.33a124.08,124.08,0,0,1-8.78,8.83A39.77,39.77,0,0,1,1102.74,596q-10,1.21-20,1.79a141.7,141.7,0,0,1-15.34.11c-20.14-1-40.19-3-60-7-8.77-1.79-17.54-3.58-26.27-5.58C972.08,583.18,963.12,580.84,954.38,578Z"/><path d="M540.87,959.37c-.79,3.05-1.6,6.47-2.56,9.84a266,266,0,0,0-6.44,28,156.21,156.21,0,0,1-6.29,25.06,66.89,66.89,0,0,1-6.57,13.8,34.33,34.33,0,0,1-18.39,14.57,126.8,126.8,0,0,1-23.24,5.64,256.7,256.7,0,0,1-37.24,2.49c-19.18,0-38.31-1-57.45-2.15-9.87-.58-19.78-1-29.65.38-2.28.31-3.39-1.25-2.61-3.59,1.91-5.75,3.9-11.48,5.82-17.24a293.14,293.14,0,0,0,10.33-40.83c1.53-8.47,3.09-17,6-25.15a56.75,56.75,0,0,1,5.25-11.26,35.27,35.27,0,0,1,13.87-12.89,29.2,29.2,0,0,1,14.74-3.49,62.48,62.48,0,0,1,16.92,3c4.86,1.56,9.68,3.26,14.49,5a122,122,0,0,0,28,6.37,322.17,322.17,0,0,0,44,1.65c9.25-.24,18.5-.77,27.75-1.15A3.06,3.06,0,0,1,540.87,959.37Z"/><path d="M1444.69,1170.77c.68-10.06,3-21,5.07-32,2.24-12,8.3-22,16.88-30.56a6.35,6.35,0,0,1,4.22-2c2.23-.12,4.47-.32,6.7-.3a137.57,137.57,0,0,0,62.16-13.54,14.29,14.29,0,0,1,3.61-1.16c.42-.08,1.16.47,1.42.92a3.84,3.84,0,0,1,.29,1.85c0,6.39-.11,12.77,0,19.16a57.18,57.18,0,0,0,2.17,15.13c1.24,4.35,3.09,8.41,6.68,11.38a1.6,1.6,0,0,0,1.53-.26,3,3,0,0,0,.58-1.77c.34-5.44,3.14-9.62,6.77-13.38a48.37,48.37,0,0,1,9.8-7.64,106.83,106.83,0,0,1,26.19-11.66,186.78,186.78,0,0,1,33.91-6,42.25,42.25,0,0,1,4.78,0,2,2,0,0,1,1.54,2.05,26.05,26.05,0,0,1-.63,3.76c-5.52,17.79-13,34.69-23.39,50.19a126.64,126.64,0,0,1-17.83,21.26,87.2,87.2,0,0,1-42.59,22.67,202.76,202.76,0,0,1-31.31,4.12c-22,1.21-44,2.55-65.93,4.71-4.13.41-8.27.73-12.4,1a2.3,2.3,0,0,1-2.38-2.4C1442.88,1194.85,1443.2,1183.35,1444.69,1170.77Z"/><path d="M1338.93,1348.15c8.21-.57,15.54-1.06,22.86-1.6a192,192,0,0,0,47.72-10.13c10.61-3.61,21-7.73,31.23-12.3,2.34-1,4.66-2.11,7-3.11,1.71-.73,3.38.21,3.44,1.89.1,2.88.24,5.76.23,8.63-.05,11.83-.17,23.67-.22,35.5a6.05,6.05,0,0,1-2.42,5q-2.62,2.1-5.22,4.22a429.78,429.78,0,0,0-37.18,34.67c-24.61,25.67-43.79,55-58.34,87.32a497.33,497.33,0,0,0-25.57,70.23,28.87,28.87,0,0,1-3.27,8.35,9.29,9.29,0,0,1-1.27-2.38c-1.51-9.47-3.1-18.93-4.37-28.43-2.51-18.71-4.22-37.5-4.93-56.36a411.35,411.35,0,0,1,.86-51.77c1.88-21.23,7.33-41.52,15.24-61.21a202,202,0,0,1,11-23.41C1336.69,1351.56,1337.78,1350,1338.93,1348.15Z"/><path d="M624.66,804.46c-7.42-.66-14.42-3-21.37-5.37-7.55-2.6-15-5.59-22.51-8.24-7.23-2.54-14.5-5-21.82-7.26-9.52-2.95-19.36-4.18-29.26-5.08-2.22-.2-4.44-.51-6.66-.76a1.16,1.16,0,0,1-1.15-1.27,1.23,1.23,0,0,1,.2-.81,33.55,33.55,0,0,1,2.8-2.6,223.17,223.17,0,0,0,32.77-32.25c6.36-7.6,12.66-15.26,19-22.87,7-8.36,14.17-16.5,21.9-24.16a185.06,185.06,0,0,1,17.31-15.17,85.76,85.76,0,0,1,27-14.22c5.8-1.8,11.61-3.58,17.49-5.09a59.83,59.83,0,0,0,20.78-9.55c1-.76,2.16-1.38,3.19-2.14,8.07-5.92,17.35-7.92,27.09-8.23,3.48-.11,7-.55,10.43.82a2.34,2.34,0,0,1,1.2,2.35,30,30,0,0,1-1.46,3.54,79.77,79.77,0,0,1-11.75,16.3c-4.16,4.43-8.39,8.79-12.45,13.31-6.51,7.23-13.89,13.2-23.09,16.72A9.61,9.61,0,0,0,672,694c-.53.41-.47,1.11.17,1.59,5.11,3.81,10.7,5.6,17,3.83a39,39,0,0,0,6.34-2.17,27.48,27.48,0,0,1,16.87-2c1.87.32,3.72.84,5.56,1.32.17,0,.3.5.34.78s0,.72-.12.85a43.68,43.68,0,0,1-3.85,2.81,228.18,228.18,0,0,0-20.5,14.2A102.5,102.5,0,0,0,667,746.11a262,262,0,0,0-20.49,46.41c-.6,1.82-1.32,3.61-1.82,5.46-1.71,6.28-2,6.62-9.47,6.94C631.7,805.06,628.18,804.63,624.66,804.46Z"/><path d="M456.89,752.11c-.82,1.91-2.37,2.42-3.81,3.1a203.41,203.41,0,0,0-25.1,14,142.56,142.56,0,0,0-42.23,42.62,290.33,290.33,0,0,0-27.15,54.91c-1,2.69-2,5.41-3,8.1-.8,2.11-2.2,2.86-4.58,2.28-3.72-.92-7.42-1.93-11.11-3a411.13,411.13,0,0,1-55.08-19.54,158.56,158.56,0,0,1-32.22-18.84,129.4,129.4,0,0,1-26.74-27.34,32.86,32.86,0,0,1-2.78-5,1.66,1.66,0,0,1,.59-1.51,17.56,17.56,0,0,1,4.59-1.09,432.15,432.15,0,0,0,56.1-6.93A359.6,359.6,0,0,0,363,769.61q27.74-12.06,54.12-26.85c2-1.09,3.92-2.17,5.83-3.33a6.53,6.53,0,0,1,6.42-.21c8.18,3.63,16.36,7.25,24.52,10.94A21.75,21.75,0,0,1,456.89,752.11Z"/><path d="M2314.38,842.6c-1.69-1.57-3.12-2.83-4.48-4.16a28,28,0,0,0-18.93-8.15c-6.06-.29-12.13-.74-18.2.1-1.58.22-3.2.19-4.78.41-8.53,1.2-6.92,1.73-12.53-5.44a121.66,121.66,0,0,0-16.37-17.48c-8.83-7.59-19.14-11.4-30.64-12.16a80.69,80.69,0,0,0-8.61.26c-8.32.35-6.72,1.52-12.38-4.71a117,117,0,0,0-14.81-13.62,94.45,94.45,0,0,0-15.32-9.81,75.66,75.66,0,0,0-24.6-7.64c-15.39-2-30.62-.68-45.8,2-3.46.6-6.91,1.27-10.37,1.87a3.09,3.09,0,0,1-2.89-2q-.75-3.76-1.42-7.53a106.27,106.27,0,0,0-4.31-15.7,51.89,51.89,0,0,0-21.47-27.4c-2.13-1.39-4.28-2.76-6.34-4.25-.23-.17-.15-1.3.15-1.55a7.22,7.22,0,0,1,2.47-1.34,144.38,144.38,0,0,1,52.06-6.2,135.81,135.81,0,0,1,48.06,12.17,394.84,394.84,0,0,1,47.78,26.43c17,10.81,33.43,22.47,49.73,34.3,13.45,9.77,26.88,19.57,40.37,29.28a159.47,159.47,0,0,0,22.08,13.47c5.73,2.85,11.49,5.64,17.7,7.29a13,13,0,0,1,7.63,5.41c2.38,3.4,4.92,6.69,7.35,10.05a1.8,1.8,0,0,1-1.44,2.76C2327.65,839.41,2321.44,841,2314.38,842.6Z"/><path d="M710.15,624.35a491.14,491.14,0,0,1-55.59-10.56c-38.68-9.5-73.77-26.77-105.93-50.14-1-.75-2-1.56-3-2.35s-1.57-2.13-1.06-2.41a3.69,3.69,0,0,1,1.58-.68c7,.06,14.07.22,21.1.27,8.31.05,16.63.15,24.94,0,11.18-.23,22.36-.7,33.54-1.08,19.82-.67,39.55-2.47,59.23-4.77q45.25-5.28,90-13.81c2.19-.42,4.42-.67,6.63-1a.94.94,0,0,1,.79.37c.22.51.59,1.27.38,1.61-1.32,2.18-2.74,4.31-4.19,6.41a196.7,196.7,0,0,0-21.47,39.52c-2.35,5.94-4.92,11.8-7.6,17.6a89.77,89.77,0,0,1-12.69,20.26c-1.79,2.14-3.73,3.26-6.61,2.91C723.52,625.71,716.83,625.07,710.15,624.35Z"/><path d="M623.55,643.41c-.16.56-.14,1.43-.5,1.62-2.25,1.19-4.57,2.27-6.9,3.31a126.93,126.93,0,0,0-32.8,21.36,498.07,498.07,0,0,0-36.07,35.76C538,715.61,529.05,726,519.95,736.3c-1.48,1.67-2.89,3.42-4.5,4.95a3.76,3.76,0,0,1-2.59.9,19.06,19.06,0,0,1-4.67-1c-28.1-9.63-56-19.73-83.12-31.93a256.72,256.72,0,0,1-34.62-18.47,179.12,179.12,0,0,1-18.57-13.55c-2.19-1.86-4.33-3.79-6.44-5.73a2.81,2.81,0,0,1-1.19-2.39c.07-.85,1.16-1.28,3.26-1.14,10.52.69,21,1.63,31.57,2a390.18,390.18,0,0,0,63.11-2.52,175.15,175.15,0,0,0,28.11-5.86c24.28-7.27,49.14-11.33,74.27-13.88,16.84-1.71,33.71-3.05,50.57-4.46,2.83-.24,5.74-.54,8.55.43Z"/><path d="M1157.25,1721a9.18,9.18,0,0,1-1.87-1.1,4.61,4.61,0,0,1-1-1.63,288.1,288.1,0,0,1-17.17-74.56c-1.33-15.12.26-30.06,3.17-44.85,1.73-8.78,4.11-17.43,6.32-26.1a47.55,47.55,0,0,1,2.6-7.2,3.42,3.42,0,0,1,2.06-1.78c2.81-.59,5.67-.94,8.52-1.33a238.22,238.22,0,0,0,37.38-8.42,167.59,167.59,0,0,0,42.67-19.38c7.79-5,15.44-10.29,23.14-15.45,1.86-1.24,3.68-2.53,5.55-3.76,1-.65,2.71.28,2.87,1.58.53,4.44,1,8.89,1.54,13.33.26,2.22.59,4.44.77,6.66a5.85,5.85,0,0,1-2.1,5.07q-12.75,11.64-25.38,23.43c-1.64,1.52-3.16,3.17-4.73,4.77a306.33,306.33,0,0,0-64.52,96.82,463.11,463.11,0,0,0-17,45.84C1159.32,1715.67,1158.24,1718.3,1157.25,1721Z"/><path d="M1602.15,1250.28c-1.81,1.5-4,3.37-6.2,5.13a420.43,420.43,0,0,0-35,31.26c-24.7,24.46-42.49,53.32-55.08,85.55a314.87,314.87,0,0,0-12,36.35,2.67,2.67,0,0,1-1.58,2.12c-.88.35-1.58-.4-2.19-2.55-.26-.92-.58-1.83-.79-2.76a266.85,266.85,0,0,1-5.12-30.2,209.79,209.79,0,0,1-.66-37.31,163.84,163.84,0,0,1,7.42-38.49,309.27,309.27,0,0,1,26.88-60.24c.32-.55.61-1.12,1-1.66a6.14,6.14,0,0,1,4.62-3c3.49-.38,7-.72,10.46-1.19,3.79-.51,7.58-1.11,11.35-1.75a147.84,147.84,0,0,0,53.53-19.93,30.77,30.77,0,0,1,4.23-2.2c.45-.19,1.17.16,1.71.4a1,1,0,0,1,.32.86c-2.6,12.59-2.82,25.34-2.44,38.12A8,8,0,0,1,1602.15,1250.28Z"/><path d="M2152.29,574.36a19.36,19.36,0,0,1-3.37,1.43c-6.28,1.39-12.17,3.84-18.09,6.27-6.21,2.55-12.46,5-18.8,7.18a88.67,88.67,0,0,1-25.34,4.81,43.64,43.64,0,0,1-20.42-4.32,83,83,0,0,1-17.61-11.51,159.06,159.06,0,0,1-17.81-17.42c-4-4.54-8-9.15-11.84-13.85-15.37-18.84-31.51-37-48.1-54.78-1.3-1.4-2.53-2.87-3.76-4.34a1.64,1.64,0,0,1-.18-.88,1.09,1.09,0,0,1,1.13-1.24c5.78-.48,11.48.22,17.18,1a213.54,213.54,0,0,1,69,22.45c14.2,7.36,27.92,15.54,41.39,24.16,17.77,11.38,35.07,23.46,52,36.07C2149.35,570.72,2151.54,571.69,2152.29,574.36Z"/><path d="M954.31,502.46c-1.68-.08-3.6-.08-5.5-.29-12.72-1.39-25.46-2.66-38.15-4.28s-25.38-3.38-38-5.52c-16.08-2.72-32.13-5.69-47.72-10.66a125.79,125.79,0,0,1-23.81-10.08,55,55,0,0,1-12.43-8.92,6.26,6.26,0,0,1-1.16-2.45c-.23-.69.76-1.3,2.13-1.38l1,0c25.25-1.06,50.42-3.1,75.54-5.73,47.58-5,94.07-14.85,139.21-30.83a62.75,62.75,0,0,1,6.42-1.84c.38-.09,1,.48,1.38.84.1.09-.07.67-.26.87q-2.35,2.4-4.76,4.73a213.83,213.83,0,0,0-34.24,42.47q-8.29,13.5-15.54,27.57C957.36,498.92,956.5,501,954.31,502.46Z"/><path d="M2289,510.18c7.38.85,14,1.73,20.7,2.38,17.52,1.71,34.84,4.72,52.13,7.86a175.28,175.28,0,0,1,34.91,10.12c1.33.54,3.19.8,3.31,3.13-1.28,0-2.54.1-3.79,0q-9.57-.45-19.14-1c-30.5-1.63-60.58,1.71-90.48,7.46-32,6.15-63.64,13.87-95,22.62-3.07.86-6.18,1.6-9.26,2.42a1.22,1.22,0,0,1-1.61-.67,1.1,1.1,0,0,1,.06-.92c.92-1.29,1.9-2.54,2.87-3.8,2.73-3.54,5.59-7,8.16-10.64a64.51,64.51,0,0,0,11-27.33c.41-2.52.72-5.06,1.11-7.59.45-3,1.82-3.43,4.64-1.56,2.13,1.41,4.16,3,6.35,4.29,5.76,3.43,11.51,6.88,17.4,10.08,2.79,1.51,5.9,2.41,8.84,3.66,6.81,2.91,13.74,2.27,20.69.68a4.54,4.54,0,0,0,1.57-1c.19-.15.25-.46.53-1-9.15-2.94-18.33-5.87-25.24-13-4.68-4.84-8.92-10-11.15-16,.07-2.82,1.45-4.64,2.38-6.65a79.59,79.59,0,0,0,7.52-26.6,53.22,53.22,0,0,0-3.77-25.33,118.7,118.7,0,0,0-11-20.15c-1.58-2.4-3.27-4.73-4.83-7.14a3,3,0,0,1-.31-1.74,5,5,0,0,1,2.6-.51,20.46,20.46,0,0,1,4.47,1.63,49.91,49.91,0,0,1,11.69,8.29A96.34,96.34,0,0,1,2252.83,442c4.74,7.58,9.4,15.24,13.57,23.15,6.26,11.87,12.06,24,18.06,36C2285.87,503.93,2287.3,506.76,2289,510.18Z"/><path d="M2272.8,1122.81a66.53,66.53,0,0,1-18.15-6c-9.31-4.42-13.64-12.16-14.41-22.12a45.28,45.28,0,0,1,.22-6.7c.16-2.24,1.15-3.2,3.65-3.71,1.56-.32,3.15-.54,4.71-.85,7.21-1.4,14.45-2.67,21.63-4.24a209.47,209.47,0,0,0,75.1-32.76c1.83-1.26,3.76-2.38,5.68-3.52a.94.94,0,0,1,.9.13c.3.47.74,1.14.6,1.55-4.62,14.15-11.54,27-21.64,38-2.37,2.59-4.88,5.07-7.47,7.44a245.29,245.29,0,0,1-43.54,31.27C2276.83,1123.25,2276,1123.33,2272.8,1122.81Z"/><path d="M2010.14,726.27c4.55,1.07,9.92,2,15.08,3.61a30.05,30.05,0,0,1,18.39,15.72,60.81,60.81,0,0,1,5.92,18.1c1,6.1,2,6.37-4.91,9.26-11,4.61-20.58,11.44-29.3,19.53-2.57,2.38-5.21,4.68-7.83,7a1.73,1.73,0,0,1-2.45-.44,99.44,99.44,0,0,1-15-31.82,44.32,44.32,0,0,1,1.63-27.24,62.94,62.94,0,0,1,5.33-11.2,5.28,5.28,0,0,1,4.76-2.63C2004.25,726.14,2006.8,726.23,2010.14,726.27Z"/><path d="M2164.43,804.64c-1,1-1.49,1.86-2.27,2.21-16.22,7.42-29.82,18.54-43.1,30.15-1.66,1.46-3.46,2.76-5.24,4.17a14.47,14.47,0,0,1-2.28-2.13,131.69,131.69,0,0,1-20.06-49.45,11.86,11.86,0,0,1-.2-3.8,6.35,6.35,0,0,1,1.41-2.37c.15-.22.57-.26.87-.35a77.34,77.34,0,0,1,35.08-2.61,42,42,0,0,1,15.17,5.68A77.07,77.07,0,0,1,2164.43,804.64Z"/><path d="M2446.2,880.55c7.91,1.48,14.47,2.82,21.08,3.92,5.91,1,6,2.23,4.59,6.83a137.22,137.22,0,0,1-14.91,33,70,70,0,0,1-31.23,27.31,128.86,128.86,0,0,1-27.13,9.17,4,4,0,0,1-1.77-.38c-.62-.19-.38-1.37.5-2.41.62-.73,1.26-1.43,1.88-2.16q1.86-2.19,3.69-4.4a137.29,137.29,0,0,0,21.07-34c4.5-10.57,8.69-21.25,12.32-32.15.4-1.2.91-2.38,1.41-3.55a3.71,3.71,0,0,1,3.14-1.75C2443.09,880.21,2445.31,880.46,2446.2,880.55Z"/><path d="M2363.41,854.19a46.94,46.94,0,0,1,20,6.27,3.61,3.61,0,0,1,1.31,3.37,18.23,18.23,0,0,1-.47,1.86c-3.72,9.74-9.28,18.22-17.58,24.65a88,88,0,0,1-10.38,6.87,138.49,138.49,0,0,1-28.19,11.92c-3.69,1.12-4.33.5-4.19-3.61.21-6.38.3-12.77.5-19.16a90.72,90.72,0,0,0-2.39-21.86c-.46-2.18-.94-4.36-1.38-6.54-.16-.78.76-1.85,1.65-2,.63-.1,1.26-.21,1.9-.26,5.41-.45,10.81-1.09,16.23-1.27C2348.08,854.17,2355.75,854.25,2363.41,854.19Z"/><path class="cls-2" d="M2126.76,502.83c12,.56,24.14,3.56,36.34,6.12,2.18.46,4.29,1.28,6.43,1.91s2.89,2.17,3.4,4.18a19.35,19.35,0,0,1-2.66,15.62,58.55,58.55,0,0,1-13.53,14.79,3.21,3.21,0,0,1-3.56.34c-1.06-.72-2.11-1.45-3.12-2.22a204,204,0,0,0-28.3-18c-12.42-6.59-24.94-13-37.41-19.49-1.7-.89-3.41-1.76-5-2.76-.38-.23-.51-1-.6-1.49,0-.16.43-.54.7-.58a23.6,23.6,0,0,1,4.7-.64C2098.15,501.15,2112.25,500.74,2126.76,502.83Z"/><path d="M2101.84,1004.91a60.85,60.85,0,0,1,32.85-14c6.66-.71,13.38-1.2,20.1-.3a4.61,4.61,0,0,1,4.1,3.44,36.82,36.82,0,0,1,1.75,15.11,71.6,71.6,0,0,1-4.65,18.56c-2.53,6.69-2.53,7.53-10.48,5.26a81.38,81.38,0,0,1-25-11.82c-5.73-4.06-11.21-8.48-16.8-12.75A4.43,4.43,0,0,1,2101.84,1004.91Z"/><path d="M2064.94,951.15c-.82,3.42-1.45,6.89-2.49,10.24-1.85,5.93-3,6.54-9.08,4.59a117.67,117.67,0,0,1-23.67-10.36,46,46,0,0,1-19-21,23.14,23.14,0,0,1-.87-2.73,2.12,2.12,0,0,1,1.88-2.71l24.91-.82a69.66,69.66,0,0,0,18.83-3.34c2.07-.66,3.24-.22,4.09,1.27C2064,934,2066.25,942.15,2064.94,951.15Z"/><path d="M2231.12,1054.1a33.88,33.88,0,0,1-2.92,11.62,46.72,46.72,0,0,1-10.6,14.67,3.92,3.92,0,0,1-3.56,1c-10.52-2.34-18.71-7.94-24.11-17.39a2.2,2.2,0,0,1,.69-2.53c1.07-.7,2.12-1.42,3.24-2a65.3,65.3,0,0,0,20-17.67c2.92-3.8,5.68-7.72,8.53-11.58a1.9,1.9,0,0,1,3.13.43,58.4,58.4,0,0,1,5.3,17.36A47.5,47.5,0,0,1,2231.12,1054.1Z"/><path d="M2214.25,818.95c9.18.76,15.68,3.83,21,9.35a85.92,85.92,0,0,1,11.82,15,3.19,3.19,0,0,1-.21,3.6,33,33,0,0,1-13.51,11.85c-3.77,1.72-7.46,3.67-11.63,4.29a2.46,2.46,0,0,1-2.17-1.54,13.86,13.86,0,0,1-.44-1.84c-1.08-11.6-4.67-22.45-9.82-32.84q-1.06-2.14-2-4.34c-.9-2.06.32-3.68,2.78-3.66C2212,818.86,2213.88,818.94,2214.25,818.95Z"/><path d="M1955.15,874.86c4-.12,8.14-.37,12.26-.35a68.2,68.2,0,0,0,23.39-4.25c.9-.32,1.81-.59,2.73-.86a2,2,0,0,1,2.2,1.33c1.94,9.84.59,19-5.44,27.26a37.83,37.83,0,0,1-8.79,8.72,3.11,3.11,0,0,1-3.56.34,51.7,51.7,0,0,1-23.31-29.23,4.5,4.5,0,0,1,.08-1.85A5.45,5.45,0,0,1,1955.15,874.86Z"/><path class="cls-2" d="M623.68,643.63a13.6,13.6,0,0,1,1.2-.87c.06,0,.48.35.46.4-.45.93-1.07.93-1.78.25Z"/><path class="cls-2" d="M2131.27,1263.93l-.8,1.14c-.63-1.3,0-1.26,1-.92Z"/><path class="cls-2" d="M1437.5,893.65c.13-.19,0,.05.09.09S1437.5,893.65,1437.5,893.65Z"/><path class="cls-2" d="M1449.11,221.59l-.41.4c-.38-.57-.3-.61.25-.13Z"/><path d="M1758.18,684.06a72.18,72.18,0,0,0-26.4-23.18,77.77,77.77,0,0,0-21.67-7.52,162.82,162.82,0,0,0-33.43-2.41c-18.23.5-36.38,2.12-54.55,3.47-18.5,1.38-37,2.47-55.56,2.34a236.75,236.75,0,0,1-44.84-4.41A97.73,97.73,0,0,1,1484,636.49a277.43,277.43,0,0,1-40.43-35.26,488.18,488.18,0,0,1-32.37-38c-8.43-10.87-16.68-21.88-25-32.84-6.19-8.15-12.43-16.27-18.55-24.48a112.92,112.92,0,0,0-29.26-27.42c-7.5-4.87-15.24-9.38-23-13.81-7.22-4.12-14.66-7.83-21.92-11.87-4.47-2.48-8.88-5.1-13.14-7.92a89.14,89.14,0,0,1-9.12-7,45.19,45.19,0,0,1-14.57-24.28,63.69,63.69,0,0,1-1.78-11.35,86.45,86.45,0,0,1,4.34-33.08c.72-2.07,2-2.87,4.39-2.85,13.75.11,27.5.39,41.25.32,12.79-.06,25.58-.38,38.36-.8,9.9-.32,19.8-.91,29.69-1.47,15.45-.87,30.42-3.91,44.66-10.12a38.81,38.81,0,0,0,4.15-2.32c.22-.13.3-.48.48-.76-1.24-2.72-3.9-4.14-5.89-6.17-5.63-5.77-10.61-12-13.82-19.43a12.38,12.38,0,0,1-.64-2.73c-.15-.82.28-1.21,1.13-1.15a7.48,7.48,0,0,1,1.87.17c13.41,4.7,27.33,6.65,41.41,7.53,9.6.6,19.16-.24,28.69-1.47,14-1.81,27.75-4.56,41.57-7.16s27.64-5.17,41.62-6.89a159.09,159.09,0,0,1,27.76-1.25c19.24,1,37,6.67,52.94,17.78,2.09,1.46,4.15,3,6.31,4.35a1.68,1.68,0,0,0,1.61-.37,22.22,22.22,0,0,0,1.28-3.58c1.77-5.81,3.43-11.66,6.07-17.16a28,28,0,0,1,17.53-15.31,16.24,16.24,0,0,1,3.78-.57,2.37,2.37,0,0,1,1.69.53,1.91,1.91,0,0,1,.36,1.66c-.57,1.48-1.33,2.89-2,4.33-4,8.2-2.91,16.19,1.24,23.92a56.72,56.72,0,0,0,5.82,8.78c4.22,5.22,8.55,10.37,13.12,15.29,7,7.5,14.18,14.76,21.28,22.14,8.21,8.53,16.27,17.18,23.86,26.29,14.33,17.22,22.41,37.09,25.45,59.12a104.69,104.69,0,0,1,.51,10.51,1.05,1.05,0,0,1-.55.75,1.08,1.08,0,0,1-1.56-.61c-1.14-2.29-2.26-4.59-3.44-6.86-12.72-24.6-28.38-47.1-48-66.73a181.39,181.39,0,0,0-45.33-33.52,148.35,148.35,0,0,0-46.45-14.64c-11.06-1.64-22.22-3-33.38-3.65a215.3,215.3,0,0,0-67.46,7c-11.15,2.9-22.08,6.5-32.94,10.32-10.26,3.6-20.51,7.23-30.81,10.7-18.89,6.37-38.39,9.63-58.18,11.59q-26.74,2.65-53.59,3.26c-9.27.21-18.55-.1-27.82-.3a370.26,370.26,0,0,1-38.29-2.46,24,24,0,0,0-2.87-.07,3.21,3.21,0,0,0-2.93,2c-4.24,11.19-2.44,21.41,5.25,30.47a55.59,55.59,0,0,0,8.37,7.86c4.8,3.71,9.77,7.22,14.85,10.54,8,5.25,16.26,10.18,24.28,15.44s16,10.6,23.79,16.18A160.82,160.82,0,0,1,1378,493.35c8.78,10.17,17.44,20.45,26.15,30.67,10,11.69,19.79,23.49,29.92,35a315.91,315.91,0,0,0,32.77,32.33,249.26,249.26,0,0,0,23,17.34,112.26,112.26,0,0,0,36.83,15.73c15.34,3.66,30.87,5.07,46.6,5.39,19.84.4,39.63-.61,59.44-1.39,16.29-.64,32.6-1.41,48.9.07,9.9.9,19.71,2.25,29.08,5.77q33.18,12.45,47.25,45c.65,1.51,1.07,3,.15,4.56l.69-.32Z"/><path d="M1607.25,491a18.18,18.18,0,0,0-2.06-3.14c-3.38-3.4-6.81-6.76-10.33-10-11.72-10.83-25.4-18.13-40.64-22.76-8.29-2.52-16.75-4.15-25.21-5.85-2.49-.5-5.06-.57-7.95-.88.1,1.11-.15,2.34.31,2.71,3.95,3.25,8.06,6.3,12,9.51a49.83,49.83,0,0,1,9.51,9.43c.93,1.29,1.81,2.59,1.57,4.31-1.33.59-2.44-.1-3.61-.58a267.29,267.29,0,0,0-28-10c-11.11-3.14-22.31-5.63-33.86-6.39-3.83-.25-7.65-.6-11.49-.77a119.41,119.41,0,0,1-21.81-3.2,55.08,55.08,0,0,1-26.54-14.62,38.06,38.06,0,0,1-10.5-18,4.8,4.8,0,0,1,.19-1.87c.11-.63,1.54-.79,2.6-.28s2.26,1.18,3.41,1.73c6.63,3.17,13.19,6.5,19.92,9.43a150.07,150.07,0,0,0,15.27,5.64,42.73,42.73,0,0,0,23.45,1c.65-1.94-.16-3.36-.72-4.85-1.8-4.78-3.79-9.51-5.32-14.38a84.42,84.42,0,0,1-2.45-11.22,18.37,18.37,0,0,1,3-13.81,9.08,9.08,0,0,1,2.64,1.11c1.42,1.27,2.59,2.83,4,4.16,4.61,4.43,9.12,9,13.93,13.18a122.76,122.76,0,0,0,44.06,24.61c7.3,2.32,14.77,4.14,22.17,6.13a14.27,14.27,0,0,0,2.85.22,2.23,2.23,0,0,0,2-1.76c.13-2.55.2-5.1.34-7.64.4-7.37,1.24-14.66,3.79-21.66,3.07-8.43,8.29-15,16.18-19.16,1.75.94,2.33,2.42,3.11,3.8,3.78,6.67,7.44,13.43,11.52,19.92,11,17.52,26.09,30.54,44.7,39.45,5.47,2.62,11.13,4.84,16.74,7.16,2,.84,3.59-.08,4.47-2.28,1.89-4.75,3.64-9.56,5.75-14.2,5.73-12.62,15.07-22.07,26.57-29.54a7.09,7.09,0,0,1,1.76-.7,6.74,6.74,0,0,1,1.33-.07c.88,2.22,1.88,4.53,2.74,6.89a234.88,234.88,0,0,0,14.47,32.37,182,182,0,0,0,13.42,21,101.51,101.51,0,0,0,34.64,29.72,177.51,177.51,0,0,0,28.29,11.75,45.41,45.41,0,0,0,6.55,1.17c.74.12,1.69-1.28,1.4-2.06-1.11-3-2.36-5.95-3.33-9-1.55-4.86-3.07-9.75-4.32-14.7a15.08,15.08,0,0,1,.83-10.31,2.17,2.17,0,0,1,1.48-1c.4-.05,1,.47,1.29.9a9.82,9.82,0,0,1,.45,1.85,8.49,8.49,0,0,0,6.86,6,58,58,0,0,0,6.67.71c25.33,2,48.73,10.07,70.47,23a117.58,117.58,0,0,1,14.86,10.51c16.92,14,25.59,32.4,27.37,54.07a37.36,37.36,0,0,1-3.43,19.64,24.43,24.43,0,0,1-5.51,7.78c-7.26,6.47-15.39,11.45-24.93,13.79a32.86,32.86,0,0,1-20.71-1.25,21.32,21.32,0,0,1-7.3-4.48,2.07,2.07,0,0,1-.09-2.54c2.19-1.87,4.45-3.65,6.57-5.59,7.37-6.78,11.76-15.12,12.39-25.16a76.65,76.65,0,0,0-.32-13.41c-.61-5.38-1.77-10.71-2.8-16-2.35-12.11-8.75-21.88-17.9-29.89a85.47,85.47,0,0,0-10.78-8,116.67,116.67,0,0,0-38-15.3,12,12,0,0,0-3.75-.09,1.72,1.72,0,0,0-1.15,1.22,26.38,26.38,0,0,0,.33,4.71,40.43,40.43,0,0,0,9.2,19.74,120.79,120.79,0,0,0,14.05,14.4q8.39,7.15,17.15,13.86a6.29,6.29,0,0,1,2.76,6.59,14.73,14.73,0,0,1-.27,1.89c-.18.59-.42,1.36-.87,1.6a1.91,1.91,0,0,1-1.71-.32c-1.91-1.69-3.68-3.55-5.58-5.26-12.08-10.91-25.84-18.78-41.79-22.41-7.79-1.78-15.71-3-23.54-4.6-5.94-1.25-11.9-2.5-17.69-4.29a59.18,59.18,0,0,1-26.59-16.5c-4.75-5.17-9.17-10.66-13.65-16.08-3.46-4.19-6.68-8.59-10.22-12.71a46.94,46.94,0,0,0-17.6-13,24.82,24.82,0,0,0-4.63-1.1,1,1,0,0,0-.87.31c-.27.49-.66,1.18-.5,1.59,1,2.37,2.06,4.68,3.15,7,5.25,11.14,7.64,23,8.92,35.14a6.41,6.41,0,0,1-.06,1.91c-.12.6-.3,1.44-.72,1.67s-1.26-.1-1.71-.45a13.11,13.11,0,0,1-2-2.07,130.82,130.82,0,0,0-38.2-31.6c-6.45-3.53-12.82-7.2-19.32-10.63-14.49-7.66-28.12-16.49-39.82-28.08-.75-.74-2.17-1-2.51-.52a3.46,3.46,0,0,0-.82,1.66,27,27,0,0,0,.38,5.69,27.7,27.7,0,0,0,2,5.37c1.85,4.07,3.68,8.16,5.72,12.15q5.46,10.67,11.18,21.21a6.91,6.91,0,0,1,.39,5.53C1607.4,490.07,1607.53,490.08,1607.25,491Z"/><path d="M2529.86,814.91c-.75,1.55-2.29,1.85-3.65,2.11a105,105,0,0,1-19.06,1.85c-23.37.12-44.84-6-63.68-20.23a135.76,135.76,0,0,1-17.22-15.23c-7.88-8.38-15.66-16.87-23.24-25.52s-14.83-17.6-22.29-26.36c-8.08-9.5-16.34-18.84-25.21-27.62q-4.77-4.72-9.72-9.26a147.45,147.45,0,0,0-46.85-29.3,340.41,340.41,0,0,0-45.72-14.15,379.34,379.34,0,0,0-69.27-9.35c-3.19-.13-6.38-.39-9.56-.7-.42,0-1.13-.75-1.09-1.06a2.07,2.07,0,0,1,1.09-1.22,13,13,0,0,1,2.7-1,257.65,257.65,0,0,1,59.7-7.92,239.56,239.56,0,0,1,32.51,1.93,195.43,195.43,0,0,1,56.07,15.8,114.65,114.65,0,0,1,25.14,15.69,192.44,192.44,0,0,1,23.35,22.7,412.22,412.22,0,0,1,25.44,32.44c8,11.17,15.86,22.46,24,33.55,5.48,7.47,11.2,14.77,17,22a146.24,146.24,0,0,0,15.83,16.68,88.67,88.67,0,0,0,35.81,19.62,107.91,107.91,0,0,0,36,4.16A8.08,8.08,0,0,1,2529.86,814.91Z"/><path d="M1766.59,611a8.36,8.36,0,0,1-2.72-.59c-2.44-1.52-4.74-3.25-7.12-4.87A226.73,226.73,0,0,0,1713,581.91a138.71,138.71,0,0,0-28.57-8,212.8,212.8,0,0,0-35.3-3.24c-7.67,0-15.32-.34-23-.1a420.9,420.9,0,0,0-54.33,5.23c-9.23,1.5-8,1.58-13.32-5.56-8.61-11.53-17.55-22.8-27.16-33.53a170.39,170.39,0,0,0-18.36-18.23,93.89,93.89,0,0,0-10.88-7.8c-5.2-3.15-10.41-2.54-15.14,1.23a31,31,0,0,0-7.28,8.83c-1.45,2.48-2.64,5.11-4,7.66-.81,1.55-2.62,1.6-3.84.07-2.39-3-4.64-6.12-7.12-9-4.13-4.87-8.3-9.72-12.65-14.4a53.59,53.59,0,0,0-6.56-5.57,15.07,15.07,0,0,0-3.36-1.79,6.34,6.34,0,0,0-7,1.79,38.39,38.39,0,0,0-2.46,4.09c-.57,1-.5,2.44-1.91,2.9a5.82,5.82,0,0,1-1.57-1,27.13,27.13,0,0,1-4.64-10.43,15.76,15.76,0,0,1,4.12-15,7.09,7.09,0,0,1,7.87-2,35.87,35.87,0,0,1,10.12,5.38c4.86,3.63,9.57,7.46,14.32,11.24,2,1.58,3.89,3.24,5.59,4.65,2.49,0,3.93-1.41,5.59-2.32,10-5.46,20.65-6.55,31.6-4,9.11,2.12,17.63,5.75,24.83,11.93,5.33,4.58,10.76,9.08,15.74,14,8.62,8.56,16.93,17.42,25.35,26.18,2,2.07,4,4.16,5.78,6.41a7.65,7.65,0,0,0,7.54,3c6.34-.74,12.71-1.27,19.07-1.84a378.79,378.79,0,0,1,62.25.05,226.23,226.23,0,0,1,44.26,8.09,58.74,58.74,0,0,1,18.13,8.54,156.46,156.46,0,0,1,12.84,10c9.65,8.46,18,18.19,25.66,28.43.76,1,1.48,2.08,1.14,3.48Z"/><path d="M2165.39,1149c-9.25-1.49-16.65-3.38-23.73-6.53a180.72,180.72,0,0,1-18.7-9.74c-15.43-9.14-30.1-19.41-44.58-30-30.27-22-59.52-45.39-88.39-69.2-7.16-5.91-14.5-11.56-22.1-16.89-12.83-9-25.68-18-38.32-27.25q-14.7-10.77-28.86-22.27a182.5,182.5,0,0,1-15.42-14.39,47.62,47.62,0,0,1-12.82-25.31c-.4-2.19-.73-4.42,0-6.62a1.1,1.1,0,0,1,.58-.67,1.32,1.32,0,0,1,.9.26,1.84,1.84,0,0,1,.58.7c5.54,11.1,13.8,20,23.17,27.84,5.63,4.73,11.4,9.32,17.3,13.69,8.74,6.47,17.55,12.85,26.52,19,34.33,23.51,67.48,48.58,100.21,74.25q33.22,26.06,66.78,51.69c10.4,8,21.17,15.48,32.15,22.66,9.46,6.18,19.51,10.92,30.64,13.22,2.82.58,5.61,1.29,8.38,2.05.34.09.59.82.72,1.29,0,.17-.32.6-.57.69a13.51,13.51,0,0,1-3.64,1.14C2172.06,1148.86,2167.9,1148.88,2165.39,1149Z"/><path d="M2578.69,752.47c-.89-.12-2.2.09-2.59-.41a62,62,0,0,1-4.18-6.4,354,354,0,0,0-31.83-45.57,270.27,270.27,0,0,0-31.42-32.27c-17.37-15-37.06-26.07-58.54-34A315.57,315.57,0,0,0,2407,621.08c-23.49-5.06-47.14-8.74-71.19-9.7-9.58-.38-19.14-1.29-28.75-.95-2.09.08-4.37.47-6.26-1,.22-.27.39-.69.63-.73,2.83-.49,5.66-1,8.51-1.35q23.83-2.64,47.8-3.21a370,370,0,0,1,65,3.85,223.1,223.1,0,0,1,53.5,14.62,136.36,136.36,0,0,1,42.1,27.92,191.5,191.5,0,0,1,26.19,31.77c13.38,20.07,23.52,41.74,31.59,64.42.74,2.08,1,4.38,2.81,5.95l-1.17,1.41Z"/><path d="M1591.94,718.27a49.19,49.19,0,0,1,9.47-1.11,156.61,156.61,0,0,0,34.87-5.85c4.58-1.36,9.1-3,13.54-4.76a58.55,58.55,0,0,0,22.38-16.05,99.22,99.22,0,0,0,12.63-18c1.07-1.94,2.23-3.84,3.37-5.75.39-.65,2.05-.57,2.53.09,5.7,8,9.34,16.66,9.59,26.59a29.93,29.93,0,0,1-9.61,23.16,46.42,46.42,0,0,1-10.88,7.78c-15.68,8.17-32.36,11.94-50,10.34a73.47,73.47,0,0,1-36.49-13.29C1592.43,720.77,1592.39,720.68,1591.94,718.27Z"/><path d="M1751,847.55l3.76-6.81-.15-.23a3.77,3.77,0,0,1-1,4c-1,1-2,2.13-3,3.19Z"/><path d="M2578.92,752.63c-.66-.11-1,.19-.86.89,0,.13.38.19.58.29,0-.45,0-.89,0-1.34Z"/><path d="M1606.91,490.88c.67,0,.81-.26.4-.72a2.88,2.88,0,0,0-.48.29l.4.56Z"/><path d="M1349.89,536c-.33-.6-.19-1.07.46-1.26.15,0,.41.27.62.41l-1.26.65Z"/><path d="M1766.39,611.15c.83,0,1.13.33.84.89,0,0-.54-.07-.6-.2a2.36,2.36,0,0,1,0-.85Z"/><path d="M1758,683.82l.66.2s-.48,0-.48,0A2.56,2.56,0,0,1,1758,683.82Z"/><path d="M1754.72,840.74c1-.29,1.75-1.35,2.93-.67l-.15-.22c-1,1.92-1,1.92-2.91.69Z"/><path d="M1750.61,847.7l.29-.48c-.6.17-.57.26.07.3A3.55,3.55,0,0,1,1750.61,847.7Z"/></g></g><g id="Text"><text class="cls-3" transform="translate(617.72 789.75) scale(1.03 1)">D<tspan class="cls-4" x="185.21" y="0">e</tspan><tspan class="cls-5" x="291.93" y="0">a</tspan><tspan class="cls-6" x="469.39" y="0">d</tspan><tspan class="cls-7" x="625.91" y="0">l</tspan><tspan class="cls-8" x="735.29" y="0">i</tspan><tspan class="cls-9" x="797.55" y="0">n</tspan><tspan class="cls-10" x="980.25" y="0">e</tspan><tspan class="cls-11"><tspan class="cls-12" x="493.09" y="162.21">i</tspan><tspan x="525.11" y="162.21">s</tspan></tspan><tspan x="65.6" y="394.79">C</tspan><tspan class="cls-13" x="237.36" y="394.79">o</tspan><tspan class="cls-14" x="398.09" y="394.79">m</tspan><tspan class="cls-15" x="621.24" y="394.79">i</tspan><tspan class="cls-16" x="683.1" y="394.79">n</tspan><tspan class="cls-17" x="851.59" y="394.79">g</tspan></text></g></svg>